<svg width="21" height="21" viewBox="0 0 21 21" fill="none" xmlns="http://www.w3.org/2000/svg">
<path d="M10.9196 0.129883C5.27956 0.129883 0.919556 4.25988 0.919556 9.82988C0.919556 12.7399 2.10956 15.2699 4.05956 16.9999C4.21956 17.1299 4.31956 17.3499 4.32956 17.5699L4.37956 19.3499C4.41956 19.9199 4.98956 20.2899 5.50956 20.0599L7.48956 19.1899C7.65956 19.1299 7.84956 19.0999 8.01956 19.1299C8.91956 19.3999 9.91956 19.5299 10.9196 19.5299C16.5596 19.5299 20.9196 15.3999 20.9196 9.82988C20.9196 4.25988 16.5596 0.129883 10.9196 0.129883ZM16.9196 7.58988L13.9896 12.2599C13.5196 12.9899 12.5196 13.1799 11.8196 12.6299L9.47956 10.8999C9.26956 10.7399 8.96956 10.7399 8.75956 10.8999L5.59956 13.2999C5.17956 13.6299 4.62956 13.1299 4.91956 12.6699L7.84956 7.99988C8.31956 7.26988 9.31956 7.07988 10.0196 7.59988L12.3596 9.35988C12.5796 9.51988 12.8696 9.51988 13.0796 9.35988L16.2396 6.95988C16.6596 6.62988 17.2096 7.12988 16.9196 7.58988Z" fill="#1B65B9"/>
</svg>
