<svg width="14" height="23" viewBox="0 0 14 23" fill="none" xmlns="http://www.w3.org/2000/svg">
<path d="M11.4196 0.129883H3.41956C2.03956 0.129883 0.919556 1.24988 0.919556 2.62988V19.6299C0.919556 21.0099 2.03956 22.1299 3.41956 22.1299H11.4196C12.7996 22.1299 13.9196 21.0099 13.9196 19.6299V2.62988C13.9196 1.24988 12.7996 0.129883 11.4196 0.129883ZM7.41956 21.1299C6.58956 21.1299 5.91956 20.4599 5.91956 19.6299C5.91956 18.7999 6.58956 18.1299 7.41956 18.1299C8.24956 18.1299 8.91956 18.7999 8.91956 19.6299C8.91956 20.4599 8.24956 21.1299 7.41956 21.1299ZM11.9196 17.1299H2.91956V3.12988H11.9196V17.1299Z" fill="#1B65B9"/>
</svg>
