<svg width="22" height="22" viewBox="0 0 22 22" fill="none" xmlns="http://www.w3.org/2000/svg">
<path d="M11 21.9296C16.9647 21.9296 21.8 17.0943 21.8 11.1296C21.8 5.16491 16.9647 0.32959 11 0.32959C5.03534 0.32959 0.200012 5.16491 0.200012 11.1296C0.200012 17.0943 5.03534 21.9296 11 21.9296Z" fill="#1B65B9"/>
<path d="M10.942 6.66895C11.0104 6.60607 11.0588 6.59719 11.2972 6.60463C11.4222 6.60895 11.6041 6.62335 11.704 6.63511C12.2075 6.69799 12.6148 6.81943 13.0607 7.03687C13.4996 7.25191 13.7809 7.45495 14.1527 7.82479C14.5004 8.17399 14.6939 8.43847 14.8988 8.84911C15.1842 9.42199 15.3467 10.1031 15.3745 10.8526C15.3846 11.1085 15.3774 11.1658 15.3191 11.2383C15.2077 11.3804 14.9632 11.3569 14.8801 11.1975C14.8532 11.145 14.8458 11.0996 14.8374 10.8946C14.8228 10.5805 14.8009 10.3777 14.7568 10.1348C14.584 9.18367 14.1277 8.42383 13.3988 7.87879C12.7912 7.42327 12.1636 7.20055 11.3413 7.15279C11.0629 7.13695 11.0147 7.12663 10.9518 7.07815C10.8349 6.98575 10.8289 6.76975 10.942 6.66895ZM12.6863 8.55103C12.392 8.37583 11.9574 8.24599 11.5612 8.21359C11.4172 8.20183 11.3384 8.17279 11.2844 8.10991C11.2009 8.01487 11.1923 7.88623 11.2624 7.77943C11.3384 7.66135 11.4553 7.64215 11.805 7.69447C12.6935 7.82479 13.3816 8.23687 13.832 8.90623C14.086 9.28303 14.2436 9.72607 14.2979 10.201C14.3164 10.375 14.3164 10.6918 14.2957 10.7444C14.2772 10.7941 14.2153 10.8615 14.1628 10.8894C14.1059 10.9184 13.984 10.9155 13.9168 10.8805C13.8044 10.8238 13.7706 10.7329 13.7706 10.4876C13.7706 10.1089 13.6727 9.70999 13.503 9.40063C13.3096 9.04639 13.0288 8.75455 12.6863 8.55103ZM13.1809 10.4991C13.0948 10.5778 12.9349 10.5807 12.8382 10.5066C12.7684 10.4535 12.746 10.3978 12.73 10.2478C12.7112 10.0477 12.6762 9.90703 12.6157 9.77719C12.4871 9.50119 12.2603 9.35767 11.8768 9.31087C11.697 9.28927 11.6425 9.26863 11.5842 9.19975C11.4772 9.07279 11.5184 8.86687 11.6663 8.79055C11.7217 8.76343 11.7448 8.76007 11.8681 8.76751C11.944 8.77183 12.0568 8.78479 12.1168 8.79799C12.405 8.85943 12.6263 8.96911 12.8147 9.14575C13.058 9.37543 13.1912 9.65287 13.2498 10.0518C13.2894 10.3122 13.2731 10.4144 13.1809 10.4991ZM15.3671 14.3382C15.2593 14.617 14.8376 15.1402 14.5434 15.3637C14.2772 15.5653 14.0881 15.6426 13.839 15.6548C13.6345 15.6646 13.5496 15.6469 13.2877 15.5391C11.2328 14.6931 9.59195 13.4307 8.28923 11.6958C7.60907 10.7898 7.09091 9.85039 6.73619 8.87527C6.53051 8.30719 6.52043 8.06023 6.68987 7.76911C6.76331 7.64671 7.07459 7.34263 7.30211 7.17343C7.67963 6.89263 7.85387 6.78895 7.99235 6.75943C8.08787 6.73879 8.25299 6.75511 8.35835 6.79327C8.40923 6.81055 8.48891 6.85183 8.53379 6.88087C8.81219 7.06519 9.58619 8.05423 9.83915 8.54815C9.98411 8.83039 10.0326 9.03895 9.98699 9.19399C9.93995 9.36031 9.86219 9.44815 9.51587 9.72751C9.37667 9.84007 9.24611 9.95527 9.22595 9.98623C9.17315 10.0621 9.13067 10.2114 9.13067 10.3162C9.13211 10.5606 9.29051 11.0029 9.49811 11.3437C9.65939 11.6082 9.94715 11.947 10.233 12.2072C10.568 12.5142 10.8635 12.7232 11.1976 12.8883C11.626 13.1017 11.8883 13.1554 12.0798 13.0664C12.1283 13.0448 12.1796 13.0153 12.1952 13.0021C12.2099 12.9889 12.3224 12.8516 12.4458 12.6997C12.6827 12.4016 12.7372 12.3534 12.8994 12.2979C13.106 12.2276 13.3165 12.2463 13.5287 12.3546C13.69 12.4381 14.0411 12.656 14.2676 12.8134C14.5664 13.0225 15.2046 13.5428 15.291 13.6465C15.4436 13.8339 15.47 14.0734 15.3671 14.3382Z" fill="white"/>
</svg>
