<svg width="21" height="21" viewBox="0 0 21 21" fill="none" xmlns="http://www.w3.org/2000/svg">
<path d="M15.6696 12.0899C15.9196 12.2199 16.0796 12.2899 16.1296 12.3899C16.1896 12.4999 16.1696 12.9999 15.9196 13.5699C15.7196 14.1299 14.6796 14.6699 14.2196 14.6899C13.7596 14.7099 13.7496 15.0499 11.2596 13.9599C8.76956 12.8699 7.26956 10.2099 7.14956 10.0399C7.02956 9.86988 6.18956 8.65988 6.22956 7.42988C6.27956 6.20988 6.91956 5.62988 7.17956 5.38988C7.41956 5.12988 7.68956 5.09988 7.85956 5.12988H8.32956C8.47956 5.12988 8.68956 5.06988 8.87956 5.57988L9.56956 7.44988C9.62956 7.57988 9.66956 7.72988 9.57956 7.88988L9.30956 8.29988L8.91956 8.71988C8.79956 8.83988 8.65956 8.96988 8.79956 9.21988C8.91956 9.47988 9.41956 10.3099 10.1196 10.9999C11.0296 11.8799 11.8296 12.1699 12.0696 12.2999C12.3096 12.4399 12.4596 12.4199 12.6096 12.2599L13.4196 11.3199C13.6096 11.0699 13.7696 11.1299 13.9996 11.2099L15.6696 12.0899ZM10.9196 0.129883C12.2328 0.129883 13.5331 0.388541 14.7464 0.891088C15.9596 1.39363 17.062 2.13023 17.9906 3.05882C18.9192 3.9874 19.6558 5.08979 20.1584 6.30305C20.6609 7.5163 20.9196 8.81666 20.9196 10.1299C20.9196 12.782 19.866 15.3256 17.9906 17.201C16.1153 19.0763 13.5717 20.1299 10.9196 20.1299C8.94956 20.1299 7.11956 19.5599 5.56956 18.5799L0.919556 20.1299L2.46956 15.4799C1.48956 13.9299 0.919556 12.0999 0.919556 10.1299C0.919556 7.47772 1.97312 4.93418 3.84849 3.05882C5.72385 1.18345 8.26739 0.129883 10.9196 0.129883ZM10.9196 2.12988C8.79782 2.12988 6.76299 2.97274 5.2627 4.47303C3.76241 5.97332 2.91956 8.00815 2.91956 10.1299C2.91956 11.8499 3.45956 13.4399 4.37956 14.7399L3.41956 17.6299L6.30956 16.6699C7.60956 17.5899 9.19956 18.1299 10.9196 18.1299C13.0413 18.1299 15.0761 17.287 16.5764 15.7867C18.0767 14.2864 18.9196 12.2516 18.9196 10.1299C18.9196 8.00815 18.0767 5.97332 16.5764 4.47303C15.0761 2.97274 13.0413 2.12988 10.9196 2.12988Z" fill="#1B65B9"/>
</svg>
