<svg width="128" height="129" viewBox="0 0 128 129" fill="none" xmlns="http://www.w3.org/2000/svg">
<g clip-path="url(#clip0)">
<path d="M64.0001 128.587C99.3464 128.587 128 99.9333 128 64.587C128 29.2407 99.3464 0.586914 64.0001 0.586914C28.6538 0.586914 0 29.2407 0 64.587C0 99.9333 28.6538 128.587 64.0001 128.587Z" fill="white"/>
<path d="M18.6748 4.71313H80.2619C82.2149 4.71313 83.7982 6.29639 83.7982 8.24939V89.6801C83.7982 91.6331 82.2149 93.2163 80.2619 93.2163H18.6748C16.7218 93.2163 15.1385 91.6331 15.1385 89.6801V8.24939C15.1385 6.29614 16.7215 4.71313 18.6748 4.71313Z" fill="#EEF3F7"/>
<path d="M19.4372 10.9773H79.4994C79.7261 10.9773 79.9101 11.1613 79.9101 11.388V84.5209C79.9101 84.7477 79.7261 84.9317 79.4994 84.9317H19.4372C19.2105 84.9317 19.0265 84.7477 19.0265 84.5209V11.388C19.0262 11.161 19.2105 10.9773 19.4372 10.9773Z" fill="#419AFF"/>
<path d="M49.4684 91.2307C50.7422 91.2307 51.7749 90.198 51.7749 88.9242C51.7749 87.6503 50.7422 86.6177 49.4684 86.6177C48.1945 86.6177 47.1619 87.6503 47.1619 88.9242C47.1619 90.198 48.1945 91.2307 49.4684 91.2307Z" fill="#ECF0F1"/>
<path d="M81.2589 91.9386C82.1549 91.9386 82.8812 91.2123 82.8812 90.3163C82.8812 89.4204 82.1549 88.6941 81.2589 88.6941C80.363 88.6941 79.6367 89.4204 79.6367 90.3163C79.6367 91.2123 80.363 91.9386 81.2589 91.9386Z" fill="#ECF0F1"/>
<path d="M79.9101 18.0113H19.026V11.3878C19.026 11.1616 19.211 10.9771 19.4368 10.9771H79.4991C79.7259 10.9771 79.9099 11.1616 79.9099 11.3878V18.0113H79.9101Z" fill="#1B65B9"/>
<path d="M23.5388 12.9783C24.4143 12.9783 25.1226 13.6865 25.1226 14.5623C25.1226 15.4373 24.4146 16.146 23.5388 16.146C22.6643 16.146 21.9548 15.4375 21.9548 14.5623C21.9548 13.6868 22.6643 12.9783 23.5388 12.9783Z" fill="white"/>
<path d="M27.9968 12.9783C28.8723 12.9783 29.5806 13.6865 29.5806 14.5623C29.5806 15.4373 28.8726 16.146 27.9968 16.146C27.1223 16.146 26.4128 15.4375 26.4128 14.5623C26.4128 13.6868 27.1221 12.9783 27.9968 12.9783Z" fill="white"/>
<path d="M32.4548 12.9783C33.3303 12.9783 34.0386 13.6865 34.0386 14.5623C34.0386 15.4373 33.3306 16.146 32.4548 16.146C31.5803 16.146 30.8708 15.4375 30.8708 14.5623C30.8711 13.6868 31.5803 12.9783 32.4548 12.9783Z" fill="white"/>
<path d="M41.3416 13.3318H77.5484C77.8152 13.3318 78.0329 13.6185 78.0329 13.97V15.1545C78.0329 15.5058 77.8152 15.7928 77.5484 15.7928H41.3416C41.0749 15.7928 40.8571 15.5058 40.8571 15.1545V13.97C40.8569 13.6185 41.0749 13.3318 41.3416 13.3318Z" fill="white"/>
<path d="M39.5336 45.4365C42.5851 45.4365 45.6361 45.4365 48.6874 45.4365L48.7376 46.062L44.2641 52.8438L39.4586 45.995L39.5336 45.4365Z" fill="#B3B3B3"/>
<path d="M39.5928 43.7354L39.5136 47.5604L33.0233 51.1097V64.1179H43.9488H54.8729V51.1097L48.8413 47.3602L48.5101 43.5356L39.5928 43.7354Z" fill="#F0BA7D"/>
<path d="M36.594 32.5804C36.594 32.5804 36.2215 31.7622 35.2225 32.1682C34.2233 32.5732 35.2678 36.6134 35.6495 37.1772C36.031 37.7407 36.6453 37.3822 36.869 37.3607C37.187 39.7694 37.2155 41.4295 38.1793 42.4452C39.0928 43.4065 41.1838 45.3665 42.2853 46.05C43.0313 46.2075 43.5881 46.2995 44.1113 46.3277C44.6348 46.2997 45.1918 46.2075 45.9376 46.05C47.0388 45.3665 49.1298 43.4067 50.0428 42.4452C51.0068 41.4295 51.0353 39.7694 51.3536 37.3607C51.5771 37.3824 52.1918 37.7409 52.5731 37.1772C52.9551 36.6137 53.9993 32.5732 52.9998 32.1682C52.0008 31.7624 51.6288 32.5804 51.6288 32.5804C51.6288 32.5804 52.6163 29.4077 50.8608 26.2844C49.6578 24.1439 46.9138 23.0336 44.1113 22.9521C41.3088 23.0336 38.5648 24.1439 37.362 26.2844C35.6063 29.4077 36.594 32.5804 36.594 32.5804Z" fill="#FED298"/>
<path d="M36.3308 48.6866L37.885 48.0743L39.1378 46.9486L43.5598 50.3031H44.6616L49.0851 46.9448L51.8911 48.6868L56.7676 56.9756L54.2378 70.7029H34.3308L29.9583 57.6371L36.3308 48.6866Z" fill="#EBECEC"/>
<path d="M50.4726 47.6383L48.6873 45.4365L44.6616 50.3028L48.1171 54.1423L50.4726 47.6383Z" fill="white"/>
<path d="M37.7466 47.5993L39.5336 45.4365L43.5601 50.3028L39.9671 54.103L37.7466 47.5993Z" fill="white"/>
<path d="M37.7466 47.5994L25.9128 51.4476C25.432 51.6036 25.1293 52.0131 25.0318 52.5094L21.5515 70.1436C21.751 70.3324 21.9533 70.5186 22.1573 70.7026H31.0086L31.2108 70.0414C31.2311 69.9764 31.2923 69.9359 31.3596 69.9441C31.4268 69.9521 31.4781 70.0059 31.4821 70.0734L31.5056 70.7026H42.7616L37.7466 47.5994Z" fill="white"/>
<path d="M37.7466 47.5994L36.3911 48.0159L32.8003 54.1424L37.3333 54.2846L34.5503 55.8694L41.2876 70.7029H42.7618L37.7466 47.5994Z" fill="#EEF3F7"/>
<path d="M50.4726 47.6384L62.3097 51.4479C62.7917 51.6029 63.0929 52.0134 63.1907 52.5097L66.6709 70.1437C66.4709 70.3324 66.2687 70.5187 66.0644 70.7027H57.2129L57.0101 70.0414C56.9904 69.9769 56.9284 69.9359 56.8609 69.9444C56.7941 69.9522 56.7434 70.0062 56.7391 70.0734L56.7156 70.7027H45.4614L50.4726 47.6384Z" fill="#EEF3F7"/>
<path d="M50.4726 47.6384L51.2249 47.8672L55.4187 54.1819L50.8859 54.3239L53.6689 55.9087L46.9386 70.7032H45.4619L50.4726 47.6384Z" fill="white"/>
<path d="M50.7664 33.5248L51.4631 33.5006L51.6874 32.7063L52.3431 32.0515C52.7761 28.7898 52.9046 23.7128 49.6661 23.8593C49.6661 23.8593 49.3744 20.157 43.5341 20.8835C37.6933 21.609 35.0541 25.3793 35.3688 28.5248C35.6833 31.6705 35.5566 32.0515 35.5566 32.0515L36.2123 32.7063L36.3113 33.6105L36.8843 33.5743C36.8843 33.5743 37.0638 32.3638 37.2436 31.8318C37.4233 31.2998 37.3673 30.2228 37.3673 30.2228C37.3673 30.2228 44.2656 30.6625 46.1299 28.291C47.2809 26.8265 49.9251 24.289 50.0589 27.8033C50.0984 28.845 49.7109 30.4073 50.4521 31.544C51.1936 32.6808 50.7664 33.5248 50.7664 33.5248Z" fill="#666666"/>
<path d="M45.4616 70.7027L45.9758 68.336L44.7091 51.418L45.3993 51.123L44.6618 50.303H43.5601L42.8033 51.104L43.5133 51.418L42.2781 68.4735L42.7618 70.7032L45.4616 70.7027Z" fill="#666666"/>
<path d="M55.7071 65.9157C54.4258 65.6947 53.5666 64.4757 53.7876 63.1942C54.0088 61.9132 55.2271 61.0529 56.5088 61.2742C57.7903 61.4952 58.6501 62.7142 58.4288 63.9957C58.2078 65.2775 56.9888 66.137 55.7071 65.9157Z" fill="#FEFEFE"/>
<path d="M55.7308 65.7799C54.5241 65.5716 53.7146 64.4246 53.9228 63.2179C54.1308 62.0106 55.2783 61.2009 56.4856 61.4091C57.6928 61.6176 58.5021 62.7654 58.2938 63.9724C58.0848 65.1794 56.9381 65.9886 55.7308 65.7799Z" fill="#0F7986"/>
<path d="M55.8991 64.8045C55.2318 64.6892 54.7833 64.0542 54.8993 63.3867C55.0146 62.7182 55.6496 62.2712 56.3171 62.3862C56.9851 62.5014 57.4326 63.1362 57.3176 63.804C57.2024 64.4712 56.5676 64.9197 55.8991 64.8045Z" fill="#EBECEC"/>
<path d="M56.0436 62.5176L56.5828 62.6104L56.8728 60.9311L56.3336 60.8384L56.0436 62.5176Z" fill="#FEFEFE"/>
<path d="M37.9846 66.3812L38.9949 66.181C39.4244 66.096 39.7799 65.8429 40.0066 65.5037C40.2329 65.1649 40.3309 64.7394 40.2459 64.3104L39.0576 58.3237C38.6096 56.0647 36.8419 54.9122 34.8221 54.6572C34.0486 54.5592 33.2371 54.5947 32.4514 54.7502C31.6649 54.9059 30.9021 55.1829 30.2244 55.5684C28.4601 56.5732 27.2708 58.3114 27.7208 60.5742L28.9089 66.561C28.9939 66.9905 29.2476 67.3457 29.5861 67.5727L29.5871 67.5722C29.9261 67.799 30.3509 67.8972 30.7801 67.812L31.7901 67.6115L31.7076 67.1952L30.6971 67.3955C30.3824 67.4577 30.0706 67.386 29.8221 67.22V67.2197C29.5736 67.053 29.3876 66.7922 29.3256 66.4782L28.1371 60.4914C27.7298 58.4379 28.8191 56.8557 30.4336 55.9367C31.0719 55.5727 31.7911 55.3119 32.5344 55.1647C33.2769 55.0177 34.0424 54.9842 34.7711 55.0764C36.6191 55.3104 38.2356 56.3572 38.6421 58.4064L39.8309 64.3932C39.8931 64.7079 39.8209 65.0195 39.6546 65.2682C39.4884 65.517 39.2276 65.7027 38.9129 65.7647L37.9024 65.9649L37.9846 66.3812Z" fill="#21D0C3"/>
<path d="M39.3783 59.2107L39.196 58.2962C38.7343 55.9667 36.9158 54.7797 34.8395 54.5172C34.0505 54.4177 33.2245 54.4534 32.4238 54.6122C31.6228 54.7702 30.8455 55.0529 30.1553 55.4457C28.3403 56.4789 27.1185 58.2679 27.5815 60.6012L27.7633 61.5159L28.4568 61.3779L28.275 60.4634C27.8815 58.4807 28.938 56.9494 30.5028 56.0582C31.1278 55.7022 31.8328 55.4467 32.561 55.3027C33.2895 55.1582 34.0388 55.1254 34.7533 55.2154C36.5443 55.4419 38.11 56.4539 38.5033 58.4334L38.685 59.3479L39.3783 59.2107Z" fill="#4D4D4D"/>
<path d="M30.9883 67.8614L31.5286 67.7539C31.6643 67.9064 31.8741 67.9847 32.0886 67.9424C32.4103 67.8789 32.6193 67.5662 32.5553 67.2442C32.4916 66.9232 32.1791 66.7139 31.8576 66.7782C31.6428 66.8204 31.4786 66.9732 31.4118 67.1657L30.8711 67.2727L30.9883 67.8614Z" fill="#076673"/>
<path d="M38.4141 66.3878L37.8738 66.4948C37.8068 66.6873 37.6426 66.8398 37.4283 66.8825C37.1066 66.946 36.7948 66.7373 36.7303 66.4155C36.6666 66.094 36.8756 65.7818 37.1971 65.7178C37.4106 65.6753 37.6213 65.7538 37.7566 65.9055L38.2968 65.7985L38.4141 66.3878Z" fill="#076673"/>
<path d="M32.7525 54.5578L32.5465 53.5193L32.1365 53.6008L31.7275 53.6815L31.9358 54.7303C32.0918 54.6845 32.25 54.646 32.4095 54.6148C32.5235 54.5928 32.638 54.5733 32.7525 54.5578Z" fill="#666666"/>
<path d="M31.8681 67.2836C31.9659 67.2638 32.0289 67.1693 32.0094 67.0726C31.9901 66.9753 31.8961 66.9116 31.7991 66.9313C31.7014 66.9506 31.6384 67.0451 31.6576 67.1423C31.6769 67.2396 31.7711 67.3031 31.8681 67.2836Z" fill="#0F7986"/>
<path d="M37.2119 66.2211C37.3091 66.2021 37.3726 66.1071 37.3529 66.0106C37.3334 65.9133 37.2394 65.8498 37.1424 65.8688C37.0451 65.8886 36.9816 65.9826 37.0011 66.0803C37.0199 66.1771 37.1146 66.2403 37.2119 66.2211Z" fill="#0F7986"/>
<path d="M55.8336 64.7935C55.2021 64.6845 54.7786 64.084 54.8879 63.4522C54.9964 62.8207 55.5969 62.3969 56.2286 62.5062C56.8604 62.6152 57.2839 63.2154 57.1746 63.8472C57.0656 64.4787 56.4649 64.9025 55.8336 64.7935Z" fill="#FEFEFE"/>
<path d="M37.7525 47.9108C37.734 47.9108 31.3561 47.9641 32.4333 53.5441L31.8403 53.6576C30.6261 47.3668 37.7255 47.3086 37.7455 47.3086L37.7525 47.9108Z" fill="#4D4D4D"/>
<path d="M50.4793 47.3372C51.5203 47.3652 53.5321 47.6487 55.0801 49.5324C56.5953 51.3752 57.6571 54.7602 56.8628 60.9659L56.2651 60.8909C57.0343 54.8844 56.0408 51.6504 54.6146 49.9157C53.2213 48.2209 51.4051 47.9654 50.4656 47.9402L50.4793 47.3372Z" fill="#4D4D4D"/>
<path d="M59.1034 55.8807C58.1161 57.2285 57.7688 58.85 58.0058 60.3808C58.2429 61.911 59.0634 63.3515 60.4114 64.3388C61.7594 65.3255 63.3806 65.6733 64.9114 65.436C66.4419 65.1995 67.8824 64.3785 68.8696 63.0305C69.8564 61.6825 70.2039 60.0613 69.9669 58.5305C69.7304 57 68.9094 55.5595 67.5614 54.5725C66.2134 53.5852 64.5916 53.2382 63.0614 53.4752C61.5309 53.712 60.0901 54.5325 59.1034 55.8807ZM59.9369 60.0818C59.7764 59.046 60.0116 57.9482 60.6801 57.0352C61.3486 56.1222 62.3239 55.5665 63.3601 55.4062C64.3959 55.2462 65.4936 55.4812 66.4066 56.1497C67.3196 56.8182 67.8754 57.7935 68.0354 58.8292C68.1956 59.8655 67.9606 60.963 67.2921 61.8758C66.6236 62.7888 65.6484 63.3445 64.6126 63.5048C63.5769 63.6648 62.4791 63.4298 61.5659 62.7613C60.6531 62.093 60.0974 61.118 59.9369 60.0818Z" fill="white"/>
<path d="M57.9876 85.642H57.9881C58.8409 84.1985 60.5504 84.1185 62.1501 84.6285L72.0804 87.7992L71.8336 85.6995L70.3994 80.839L65.8741 70.8575L61.3451 60.7792C60.6361 59.2002 61.2911 57.2984 62.8536 56.6377C64.4156 55.9767 66.2471 56.6494 66.9599 58.2257L74.7544 75.494L75.5206 75.202L73.5306 71.25C72.7529 69.705 73.4961 67.8109 75.0384 67.1087C76.5826 66.4077 78.3671 67.1524 79.1454 68.6967L81.3074 72.9922L82.1746 72.6617L80.7314 69.9137C79.9279 68.3832 80.6779 66.4337 82.2391 65.7732C83.8017 65.1117 85.5414 65.8304 86.3459 67.3617L87.9684 70.4497L89.0079 70.0532L88.2464 68.4465C87.5062 66.8842 88.1927 64.9672 89.7547 64.3062C91.3174 63.6452 93.1207 64.3317 93.8612 65.8942L95.4384 69.2232L95.7604 69.7665L102.796 88.3517C103.751 90.873 103.659 93.3895 103.098 95.061C102.937 95.5398 102.74 95.949 102.515 96.27L110.646 114.788L90.7527 123.775L83.6379 103.384C78.2869 103.137 64.1589 93.0285 59.0461 89.876C57.6106 88.9895 57.1346 87.084 57.9876 85.642Z" fill="#FED198"/>
<path d="M92.3365 123.058L90.753 123.774L83.6382 103.382C78.2869 103.136 64.1594 93.0274 59.0464 89.8749C58.7891 89.7164 58.5626 89.5246 58.3689 89.3081C65.8709 93.2811 78.4779 102.306 84.4037 102.389L92.3365 123.058Z" fill="#F0B97D"/>
<path d="M85.4977 114.7L108.23 104.763L112.862 113.786L89.2324 124.461L85.4977 114.7Z" fill="#5B636A"/>
<path d="M84.3962 110.266L105.696 100.828L107.509 105.053L86.2094 114.492L84.3962 110.266Z" fill="white"/>
<path d="M106.214 108.891C107.389 108.381 108.752 108.914 109.26 110.081C109.768 111.247 109.227 112.608 108.053 113.118C106.879 113.628 105.515 113.095 105.007 111.929C104.5 110.761 105.041 109.402 106.214 108.891Z" fill="white"/>
<path d="M65.7304 58.3068L66.8766 60.7675L63.1011 62.4745L61.9534 60.0138C61.0501 58.0765 65.0254 56.3068 65.7304 58.3068ZM60.6414 85.4111L63.6559 86.6398L62.1311 90.5383L59.1164 89.3096C57.1569 88.5103 58.6981 84.6183 60.6414 85.4111Z" fill="white"/>
</g>
<defs>
<clipPath id="clip0">
<rect width="128" height="128" fill="white" transform="translate(0 0.586914)"/>
</clipPath>
</defs>
</svg>
