<svg width="128" height="129" viewBox="0 0 128 129" fill="none" xmlns="http://www.w3.org/2000/svg">
<g clip-path="url(#clip0)">
<path d="M64 128.587C99.3462 128.587 128 99.9331 128 64.5869C128 29.2407 99.3462 0.586914 64 0.586914C28.6538 0.586914 0 29.2407 0 64.5869C0 99.9331 28.6538 128.587 64 128.587Z" fill="white"/>
<path d="M22.3931 15.9597H105.607H117.994C119.495 15.9597 120.724 17.1882 120.724 18.689V34.9288V94.246C96.8309 139.847 31.1696 139.847 7.27728 94.2455V34.9295V18.6892C7.27728 17.1882 8.50529 15.96 10.0065 15.96H22.3938L22.3931 15.9597Z" fill="#F2F2F2"/>
<path d="M10.0058 15.9597H117.994C119.495 15.9597 120.723 17.1877 120.723 18.689V24.1465H7.27655V18.689C7.27655 17.1877 8.50455 15.9597 10.0058 15.9597Z" fill="#828282"/>
<path d="M57.7827 18.7866H112.583C112.988 18.7866 113.316 19.1146 113.316 19.5196V20.8799C113.316 21.2849 112.988 21.6129 112.583 21.6129H57.7827C57.3777 21.6129 57.0497 21.2849 57.0497 20.8799V19.5196C57.0495 19.1146 57.3777 18.7866 57.7827 18.7866Z" fill="white"/>
<path d="M12.7203 21.4406C13.5882 21.4406 14.2918 20.737 14.2918 19.8691C14.2918 19.0012 13.5882 18.2976 12.7203 18.2976C11.8524 18.2976 11.1488 19.0012 11.1488 19.8691C11.1488 20.737 11.8524 21.4406 12.7203 21.4406Z" fill="#21D0C3"/>
<path d="M18.9231 21.4406C19.791 21.4406 20.4946 20.737 20.4946 19.8691C20.4946 19.0012 19.791 18.2976 18.9231 18.2976C18.0552 18.2976 17.3516 19.0012 17.3516 19.8691C17.3516 20.737 18.0552 21.4406 18.9231 21.4406Z" fill="#FAD24D"/>
<path d="M25.1258 21.4406C25.9937 21.4406 26.6973 20.737 26.6973 19.8691C26.6973 19.0012 25.9937 18.2976 25.1258 18.2976C24.2579 18.2976 23.5543 19.0012 23.5543 19.8691C23.5543 20.737 24.2579 21.4406 25.1258 21.4406Z" fill="#FF5B62"/>
<path d="M13.7528 32.9023H114.554V58.4979H13.7528V32.9023Z" fill="#1B65B9"/>
<path d="M28.7095 65.3142C31.3269 65.3142 33.448 67.435 33.448 70.0527C33.448 72.6685 31.3272 74.7912 28.7095 74.7912C26.0937 74.7912 23.971 72.6704 23.971 70.0527C23.971 67.435 26.0918 65.3142 28.7095 65.3142Z" fill="#21D0C3"/>
<path d="M64.154 65.3142C66.7698 65.3142 68.8925 67.435 68.8925 70.0527C68.8925 72.6685 66.7717 74.7912 64.154 74.7912C61.5382 74.7912 59.4155 72.6704 59.4155 70.0527C59.4155 67.435 61.5366 65.3142 64.154 65.3142Z" fill="#FF5B62"/>
<path d="M99.5984 65.3142C102.214 65.3142 104.337 67.435 104.337 70.0527C104.337 72.6685 102.216 74.7912 99.5984 74.7912C96.9806 74.7912 94.8599 72.6704 94.8599 70.0527C94.8599 67.435 96.981 65.3142 99.5984 65.3142Z" fill="#FAD24D"/>
<path d="M19.0939 78.988H38.3228V80.0315H19.0939V78.988ZM19.0939 85.5435H32.0104V86.5869H19.0939V85.5435ZM19.0939 82.266H38.3228V83.3078H19.0939V82.266Z" fill="#8296A5"/>
<path d="M54.5403 78.988H73.7693V80.0315H54.5403V78.988ZM54.5403 85.5435H67.4568V86.5869H54.5403V85.5435ZM54.5403 82.266H73.7693V83.3078H54.5403V82.266Z" fill="#8296A5"/>
<path d="M89.9847 78.988H109.212V80.0315H89.9847V78.988ZM89.9847 85.5435H102.899V86.5869H89.9847V85.5435ZM89.9847 82.266H109.212V83.3078H89.9847V82.266Z" fill="#DCE3DB"/>
<path d="M13.2527 60.6187H114.555V61.0362H13.2527V60.6187Z" fill="#ECF0F1"/>
<path d="M106.296 31.1484H113.195V29.5273H106.296V31.1484Z" fill="#8296A5"/>
<path d="M95.0707 31.1484H101.97V29.5273H95.0707V31.1484Z" fill="#8296A5"/>
<path d="M83.8468 31.1484H90.7458V29.5273H83.8468V31.1484Z" fill="#8296A5"/>
<path d="M72.6238 31.1484H79.5228V29.5273H72.6238V31.1484Z" fill="#8296A5"/>
<path d="M102.439 35.4585L103.63 37.0994L102.866 37.6532L102.225 36.7734C101.598 37.2069 98.0879 39.9216 102.074 43.908C105.566 47.3998 108.74 44.5935 109.883 43.309L109.038 42.6289L109.63 41.8932L111.209 43.1633L111.028 43.39L111.024 43.3935L111.021 43.397L111.017 43.4005C110.958 43.478 110.865 43.5964 110.738 43.746L110.733 43.7534L110.616 43.8971L110.611 43.8936C109.396 45.2697 106.029 48.3244 102.175 45.2553C100.975 45.9999 99.2104 45.7733 97.4152 45.5415C95.2458 45.2607 93.0222 44.9748 92.2234 46.5741C91.851 47.3207 92.2557 47.7686 92.9517 48.1176L92.9537 48.1156C93.4413 48.3587 94.0454 48.562 94.6588 48.7688C96.7995 49.4882 99.0628 50.2496 98.1381 52.7338C96.6861 56.6337 89.6056 54.1098 87.9433 53.4532C87.7275 53.8111 87.4681 54.1422 87.1752 54.4354C86.249 55.3616 84.968 55.9358 83.5522 55.9358C82.1384 55.9358 80.8589 55.362 79.9327 54.4354L79.9308 54.4335C79.0046 53.5073 78.4305 52.2263 78.4305 50.814C78.4305 49.4002 79.0042 48.1176 79.9308 47.191C80.857 46.2648 82.138 45.6907 83.5522 45.6907C84.9645 45.6907 86.2451 46.2644 87.1717 47.191L87.1737 47.1929L87.1756 47.1949C88.1018 48.1211 88.6759 49.4021 88.6759 50.8144C88.6759 51.4458 88.561 52.0522 88.3523 52.6115C89.9803 53.2518 96.1362 55.436 97.2641 52.4082C97.8522 50.8288 96.0606 50.2259 94.3644 49.6576C93.7077 49.4379 93.0623 49.2202 92.5385 48.9581V48.9562C91.3548 48.3641 90.6853 47.5692 91.3906 46.1589C92.4878 43.966 95.0409 44.2952 97.536 44.6153C99.0238 44.8077 100.488 44.9966 101.434 44.59L101.411 44.5682C96.7103 39.8679 100.848 36.5935 101.677 36.0143L101.675 36.0123L102.44 35.4565V35.4585H102.439ZM83.5538 48.2527C84.2623 48.2527 84.903 48.5406 85.3653 49.0044C85.8296 49.4687 86.117 50.1086 86.117 50.816C86.117 51.5229 85.8292 52.1651 85.3653 52.6275C84.901 53.0917 84.2611 53.3776 83.5538 53.3776C82.8469 53.3776 82.2046 53.0898 81.7423 52.6275C81.278 52.1632 80.9921 51.5233 80.9921 50.816C80.9921 50.1075 81.28 49.4668 81.7423 49.0044C82.2062 48.5406 82.8465 48.2527 83.5538 48.2527ZM84.7032 49.6666C84.4099 49.3733 84.0036 49.1898 83.5538 49.1898C83.1059 49.1898 82.6993 49.3733 82.4044 49.6666C82.1111 49.9599 81.9292 50.3665 81.9292 50.816C81.9292 51.2639 82.1107 51.6705 82.4044 51.9653C82.6977 52.2586 83.1059 52.4405 83.5538 52.4405C84.0017 52.4405 84.4083 52.259 84.7032 51.9653C84.9965 51.672 85.1799 51.2639 85.1799 50.816C85.1803 50.3684 84.9965 49.9618 84.7032 49.6666ZM86.5131 47.8551C85.7575 47.0995 84.7106 46.6317 83.5538 46.6317C82.399 46.6317 81.352 47.0995 80.5945 47.857C79.8389 48.6142 79.3691 49.6596 79.3691 50.8163C79.3691 51.9731 79.8389 53.0181 80.5945 53.7757C81.3516 54.5313 82.399 55.001 83.5538 55.001C84.7086 55.001 85.7556 54.5313 86.5131 53.7757C87.2703 53.0185 87.7384 51.9731 87.7384 50.8163C87.7384 49.6596 87.2707 48.6126 86.5151 47.857L86.5131 47.8551Z" fill="#FEFEFE"/>
<path d="M15.6913 39.2156C19.1786 39.2156 22.0057 36.3886 22.0057 32.9013C22.0057 29.4139 19.1786 26.5869 15.6913 26.5869C12.204 26.5869 9.37695 29.4139 9.37695 32.9013C9.37695 36.3886 12.204 39.2156 15.6913 39.2156Z" fill="#FF5B62"/>
<path d="M14.5029 28.5259H16.8792V31.7134H20.0667V34.0897H16.8792V37.2773H14.5029V34.0897H11.3154V31.7134H14.5029V28.5259Z" fill="white"/>
<path d="M94.5054 66.3841H97.6354V57.6538H94.5054V66.3841Z" fill="#828282"/>
<path d="M91.5146 57.6538H100.626C101.155 57.6538 101.588 58.0871 101.588 58.6161V62.5958H90.5524V58.6161C90.5524 58.0871 90.9851 57.6538 91.5146 57.6538Z" fill="#FF5B62"/>
<path d="M96.0699 128.447C113.704 128.447 128 114.152 128 96.517C128 78.8825 113.704 64.5869 96.0699 64.5869C78.4354 64.5869 64.1398 78.8825 64.1398 96.517C64.1398 114.152 78.4354 128.447 96.0699 128.447Z" fill="#21D0C3"/>
<path d="M96.0699 125.797C112.241 125.797 125.35 112.688 125.35 96.5169C125.35 80.3458 112.241 67.2366 96.0699 67.2366C79.8988 67.2366 66.7895 80.3458 66.7895 96.5169C66.7895 112.688 79.8988 125.797 96.0699 125.797Z" fill="#ECF0F1"/>
<path d="M96.0699 124.532C111.542 124.532 124.085 111.99 124.085 96.5171C124.085 81.0446 111.542 68.5017 96.0699 68.5017C80.5974 68.5017 68.0545 81.0446 68.0545 96.5171C68.0545 111.99 80.5974 124.532 96.0699 124.532Z" fill="white"/>
<path d="M87.6296 71.8001L88.3708 71.5593L89.0296 73.5843L88.2876 73.8251L87.6296 71.8001ZM104.512 121.234L103.77 121.475L103.112 119.449L103.853 119.208L104.512 121.234V121.234ZM120.788 88.0761L121.028 88.8174L119.003 89.4757L118.763 88.7344L120.788 88.0761ZM103.77 71.5591L104.512 71.7998L103.853 73.8248L103.112 73.5841L103.77 71.5591ZM111.106 75.1601L111.736 75.6181L110.484 77.3414L109.853 76.8834L111.106 75.1601ZM116.969 80.8516L117.427 81.4821L115.704 82.7344L115.246 82.1034L116.969 80.8516ZM121.028 104.217L120.788 104.958L118.763 104.3L119.003 103.558L121.028 104.217ZM117.427 111.552L116.969 112.183L115.246 110.931L115.704 110.3L117.427 111.552ZM111.736 117.416L111.105 117.875L109.853 116.151L110.484 115.693L111.736 117.416ZM88.3703 121.475L87.6291 121.235L88.2873 119.209L89.0293 119.45L88.3706 121.476L88.3703 121.475ZM81.035 117.874L80.404 117.416L81.6563 115.693L82.2873 116.151L81.035 117.874ZM75.1713 112.183L74.7128 111.552L76.436 110.299L76.8945 110.93L75.1713 112.183ZM71.3528 104.958L71.112 104.217L73.1383 103.558L73.379 104.3L71.3533 104.958L71.3528 104.958ZM71.112 88.8174L71.3528 88.0761L73.3785 88.7344L73.1378 89.4757L71.1115 88.8174H71.112ZM74.713 81.4821L75.1715 80.8516L76.8948 82.1034L76.4363 82.7344L74.713 81.4821ZM80.4045 75.6183L81.0355 75.1603L82.2878 76.8836L81.6568 77.3416L80.4045 75.6183Z" fill="#21D0C3"/>
<path d="M95.2424 78.9331L96.1281 78.0479L96.9934 78.9331V96.5549H95.2424V78.9331Z" fill="#828282"/>
<path d="M79.9851 109.229L78.7783 109.466L79.3483 108.381L95.1746 96.5173L95.8106 97.3661L79.9843 109.229L79.9851 109.229Z" fill="#FF5B62"/>
<path d="M112.229 95.5532L113.236 96.4312L112.242 97.3047L96.1476 97.4547L96.1344 95.7037L112.229 95.5537V95.5532Z" fill="#828282"/>
<path d="M96.0699 99.4656C97.6983 99.4656 99.0184 98.1455 99.0184 96.5171C99.0184 94.8887 97.6983 93.5686 96.0699 93.5686C94.4414 93.5686 93.1213 94.8887 93.1213 96.5171C93.1213 98.1455 94.4414 99.4656 96.0699 99.4656Z" fill="#ECF0F1"/>
<path d="M116.95 95.8408H121.051V97.1923H116.95V95.8408ZM71.0893 95.8408H75.1908V97.1923H71.0893V95.8408Z" fill="#FF5B62"/>
<path d="M95.3947 75.6372V71.5356H96.7462V75.6372H95.3947ZM95.3947 121.498V117.396H96.7462V121.498H95.3947Z" fill="#FF5B62"/>
<path d="M96.0699 98.8593C97.3635 98.8593 98.4121 97.8107 98.4121 96.5171C98.4121 95.2235 97.3635 94.1748 96.0699 94.1748C94.7763 94.1748 93.7276 95.2235 93.7276 96.5171C93.7276 97.8107 94.7763 98.8593 96.0699 98.8593Z" fill="#21D0C3"/>
</g>
<defs>
<clipPath id="clip0">
<rect width="128" height="128" fill="white" transform="translate(0 0.586914)"/>
</clipPath>
</defs>
</svg>
