<svg width="128" height="129" viewBox="0 0 128 129" fill="none" xmlns="http://www.w3.org/2000/svg">
<g clip-path="url(#clip0)">
<path d="M64 128.587C99.3462 128.587 128 99.933 128 64.5869C128 29.2407 99.3462 0.586914 64 0.586914C28.6538 0.586914 0 29.2407 0 64.5869C0 99.933 28.6538 128.587 64 128.587Z" fill="white"/>
<path d="M64 105.772C90.385 105.772 111.774 104.441 111.774 102.8C111.774 101.158 90.385 99.8274 64 99.8274C37.615 99.8274 16.2258 101.158 16.2258 102.8C16.2258 104.441 37.615 105.772 64 105.772Z" fill="#5B636A"/>
<path d="M106.242 30.5659H21.7574V85.5709H106.242V30.5659Z" fill="#EEF3F7"/>
<path d="M22.8812 23.4011H105.118C106.464 23.4011 107.564 24.5014 107.564 25.8471V31.5024H20.4357V25.8471C20.4357 24.5014 21.5362 23.4011 22.8812 23.4011Z" fill="white"/>
<path d="M106.242 80.97H21.7574V102.445H106.242V80.97Z" fill="#EEF3F7"/>
<path d="M106.242 102.447V87.3201H21.7574L106.242 102.447Z" fill="#D9DADA"/>
<path d="M106.242 80.97H21.7574V87.3197H106.242V80.97Z" fill="white"/>
<path d="M81.8652 87.3201H46.1375V102.446H81.8652V87.3201Z" fill="#1B65B9"/>
<path d="M81.0144 29.584H80.2749V24.8758H81.0144V26.8938H81.8551V24.8758H82.6084V29.584H81.8551V27.566H81.0144V29.584ZM84.3971 28.5015C84.3971 28.6715 84.4319 28.7918 84.5014 28.861C84.5709 28.9308 84.6642 28.9653 84.7804 28.9653C84.8972 28.9653 84.9899 28.9308 85.0599 28.861C85.1291 28.7918 85.1639 28.6715 85.1639 28.5015V25.9588C85.1639 25.7883 85.1291 25.6685 85.0599 25.5993C84.9901 25.5295 84.8972 25.495 84.7804 25.495C84.6639 25.495 84.5709 25.5295 84.5014 25.5993C84.4319 25.6685 84.3971 25.7885 84.3971 25.9588V28.5015ZM83.6569 26.006C83.6569 25.6248 83.7532 25.332 83.9464 25.1283C84.1389 24.9243 84.4172 24.822 84.7802 24.822C85.1434 24.822 85.4214 24.924 85.6144 25.1283C85.8069 25.332 85.9032 25.6248 85.9032 26.006V28.454C85.9032 28.8353 85.8072 29.128 85.6144 29.3318C85.4214 29.5358 85.1437 29.638 84.7802 29.638C84.4172 29.638 84.1389 29.536 83.9464 29.3318C83.7534 29.128 83.6569 28.8353 83.6569 28.454V26.006ZM86.8574 26.006C86.8574 25.6248 86.9481 25.332 87.1299 25.1283C87.3116 24.9243 87.5836 24.822 87.9469 24.822C88.3101 24.822 88.5827 24.924 88.7644 25.1283C88.9464 25.332 89.0367 25.6248 89.0367 26.006V26.154H88.3372V25.9588C88.3372 25.7883 88.3044 25.6685 88.2397 25.5993C88.1747 25.5295 88.0836 25.495 87.9671 25.495C87.8504 25.495 87.7602 25.5295 87.6949 25.5993C87.6299 25.6685 87.5974 25.7885 87.5974 25.9588C87.5974 26.1205 87.6334 26.263 87.7049 26.3863C87.7767 26.5095 87.8664 26.626 87.9739 26.736C88.0814 26.8455 88.1969 26.9555 88.3204 27.0653C88.4437 27.1753 88.5591 27.295 88.6666 27.425C88.7741 27.5553 88.8637 27.7033 88.9357 27.869C89.0072 28.0353 89.0432 28.23 89.0432 28.4543C89.0432 28.8355 88.9504 29.1283 88.7642 29.332C88.5779 29.536 88.3034 29.6383 87.9401 29.6383C87.5769 29.6383 87.3021 29.5363 87.1161 29.332C86.9299 29.1283 86.8366 28.8355 86.8366 28.4543V28.165H87.5367V28.5015C87.5367 28.6715 87.5711 28.7903 87.6406 28.8578C87.7101 28.9248 87.8034 28.9585 87.9202 28.9585C88.0367 28.9585 88.1296 28.9248 88.1989 28.8578C88.2686 28.7905 88.3032 28.6715 88.3032 28.5015C88.3032 28.3398 88.2671 28.1973 88.1956 28.074C88.1239 27.9508 88.0342 27.8343 87.9267 27.7243C87.8192 27.6143 87.7036 27.5048 87.5804 27.395C87.4571 27.285 87.3414 27.1653 87.2342 27.035C87.1264 26.905 87.0369 26.757 86.9649 26.591C86.8934 26.425 86.8574 26.23 86.8574 26.006ZM91.1279 24.8758C91.4999 24.8758 91.7769 24.974 91.9584 25.1718C92.1404 25.3688 92.2309 25.6583 92.2309 26.0395V26.6513C92.2309 27.0325 92.1402 27.3218 91.9584 27.519C91.7767 27.716 91.4999 27.8153 91.1279 27.8153H90.7782V29.584H90.0382V24.8758H91.1279ZM90.7782 25.5485V27.143H91.1279C91.2446 27.143 91.3342 27.1115 91.3969 27.0488C91.4599 26.9858 91.4909 26.8695 91.4909 26.699V25.9928C91.4909 25.8228 91.4597 25.706 91.3969 25.6433C91.3342 25.58 91.2444 25.549 91.1279 25.549H90.7782V25.5485ZM93.1444 24.8758H93.8844V29.584H93.1444V24.8758ZM94.7782 24.8758H97.0651V25.5483H96.2916V29.5838H95.5517V25.5483H94.7782V24.8758ZM100.097 29.584H99.3507L99.2232 28.7298H98.3151L98.1871 29.584H97.5074L98.2609 24.8758H99.3439L100.097 29.584ZM98.4091 28.091H99.1222L98.7656 25.71L98.4091 28.091ZM101.011 24.8758H101.751V28.911H102.968V29.5838H101.011V24.8758H101.011Z" fill="#1B65B9"/>
<path d="M21.7572 31.5022H106.242V34.1049L21.7572 32.3606V31.5022Z" fill="#D9DADA"/>
<path d="M24.7415 34.7961H34.1635V39.4151H24.7415V34.7961ZM82.5667 34.7961H91.9887V39.4151H82.5667V34.7961ZM93.8362 34.7961H103.258V39.4151H93.8362V34.7961ZM53.654 34.7961H63.076V39.4151H53.654V34.7961ZM64.9237 34.7961H74.3457V39.4151H64.9237V34.7961ZM36.011 34.7961H45.433V39.4151H36.011V34.7961Z" fill="#419AFF"/>
<path d="M24.7415 44.3757H34.1635V48.9945H24.7415V44.3757ZM82.5667 44.3757H91.9887V48.9945H82.5667V44.3757ZM93.8362 44.3757H103.258V48.9945H93.8362V44.3757ZM53.654 44.3757H63.076V48.9945H53.654V44.3757ZM64.9237 44.3757H74.3457V48.9945H64.9237V44.3757ZM36.011 44.3757H45.433V48.9945H36.011V44.3757Z" fill="#419AFF"/>
<path d="M24.7415 53.9548H34.1635V58.5736H24.7415V53.9548ZM82.5667 53.9548H91.9887V58.5736H82.5667V53.9548ZM93.8362 53.9548H103.258V58.5736H93.8362V53.9548ZM53.654 53.9548H63.076V58.5736H53.654V53.9548ZM64.9237 53.9548H74.3457V58.5736H64.9237V53.9548ZM36.011 53.9548H45.433V58.5736H36.011V53.9548Z" fill="#419AFF"/>
<path d="M24.7415 63.5339H34.1635V68.153H24.7415V63.5339ZM82.5667 63.5339H91.9887V68.153H82.5667V63.5339ZM93.8362 63.5339H103.258V68.153H93.8362V63.5339ZM53.654 63.5339H63.076V68.153H53.654V63.5339ZM64.9237 63.5339H74.3457V68.153H64.9237V63.5339ZM36.011 63.5339H45.433V68.153H36.011V63.5339Z" fill="#419AFF"/>
<path d="M24.7415 73.1135H34.1635V77.7322H24.7415V73.1135ZM82.5667 73.1135H91.9887V77.7322H82.5667V73.1135ZM93.8362 73.1135H103.258V77.7322H93.8362V73.1135ZM53.654 73.1135H63.076V77.7322H53.654V73.1135ZM64.9237 73.1135H74.3457V77.7322H64.9237V73.1135ZM36.011 73.1135H45.433V77.7322H36.011V73.1135Z" fill="#419AFF"/>
<path d="M106.242 41.2922H21.7574V42.51H106.242V41.2922Z" fill="#D9DADA"/>
<path d="M106.242 51.1204H21.7574V52.3381H106.242V51.1204Z" fill="#D9DADA"/>
<path d="M106.242 60.4797H21.7574V61.6975H106.242V60.4797Z" fill="#D9DADA"/>
<path d="M106.242 70.4778H21.7574V71.6955H106.242V70.4778Z" fill="#D9DADA"/>
<path d="M81.8635 98.0826V87.3203H46.136V91.6853L81.8635 98.0826Z" fill="#419AFF"/>
<path d="M74.9507 24.7468H76.2992V26.5556H78.1077V27.9041H76.2992V29.7126H74.9507V27.9041H73.142V26.5556H74.9507V24.7468Z" fill="#FF5B62"/>
<path d="M64.1775 88.5051H63.8203V102.446H64.1775V88.5051Z" fill="#EBECEC"/>
<path d="M81.8635 102.447H82.6493V87.3201H81.8635V102.447Z" fill="#FEFEFE"/>
<path d="M46.1372 87.3198H45.3515V102.445H46.1372V87.3198Z" fill="#FEFEFE"/>
<path d="M106.242 80.2986H21.7574V80.9744H106.242V80.2986Z" fill="#D9DADA"/>
</g>
<defs>
<clipPath id="clip0">
<rect width="128" height="128" fill="white" transform="translate(0 0.586914)"/>
</clipPath>
</defs>
</svg>
