<svg width="128" height="129" viewBox="0 0 128 129" fill="none" xmlns="http://www.w3.org/2000/svg">
<g clip-path="url(#clip0)">
<path d="M64.0007 128.586C99.3468 128.586 128 99.9327 128 64.5866C128 29.2406 99.3468 0.586914 64.0007 0.586914C28.6546 0.586914 0.000976562 29.2406 0.000976562 64.5866C0.000976562 99.9327 28.6546 128.586 64.0007 128.586Z" fill="white"/>
<path d="M31.9932 88.8982C36.3692 88.8982 40.7455 88.8982 45.1212 88.8982L45.1932 89.7952L38.7772 99.5214L31.886 89.6989L31.9935 88.8982H31.9932Z" fill="#B3B3B3"/>
<path d="M32.0778 86.4586L31.9643 91.9446L22.656 97.0346V113.435C23.574 114.213 24.513 114.967 25.4738 115.692H38.325H53.9922V97.0341L45.3418 91.6576L44.867 86.1724L32.0778 86.4586Z" fill="#F0BA7D"/>
<path d="M27.7767 70.4596C27.7767 70.4596 27.243 69.2864 25.81 69.8681C24.3772 70.4491 25.8742 76.2438 26.4217 77.0518C26.9692 77.8603 27.8507 77.3463 28.1712 77.3148C28.6275 80.7693 28.6682 83.1503 30.0512 84.6068C31.3607 85.9866 34.3602 88.7971 35.9392 89.7773C37.0087 90.0028 37.8075 90.1353 38.5582 90.1753C39.309 90.1353 40.1072 90.0028 41.1772 89.7773C42.757 88.7971 45.7557 85.9866 47.066 84.6068C48.449 83.1503 48.489 80.7693 48.9452 77.3148C49.2665 77.3463 50.1472 77.8598 50.6947 77.0518C51.2425 76.2438 52.7407 70.4491 51.3072 69.8681C49.8745 69.2871 49.34 70.4596 49.34 70.4596C49.34 70.4596 50.757 65.9094 48.2385 61.4301C46.5132 58.3599 42.578 56.7679 38.5582 56.6509C34.539 56.7676 30.6032 58.3599 28.878 61.4301C26.3602 65.9094 27.7767 70.4596 27.7767 70.4596Z" fill="#FED298"/>
<path d="M27.3998 93.559L29.6288 92.6818L31.4248 91.0675L37.767 95.878H39.3468L45.6918 91.0615L49.7168 93.5598L56.7103 105.448L52.6308 127.58C39.9878 125.313 28.6335 119.333 19.735 110.809L18.259 106.397L27.3998 93.559Z" fill="#15BDB2"/>
<path d="M47.682 92.0559L45.1213 88.8984L39.3473 95.8774L44.3033 101.384L47.6818 92.0564V92.0559H47.682Z" fill="#21D0C3"/>
<path d="M29.4298 92.0012L31.9938 88.8994L37.7678 95.8784L32.6148 101.328L29.4298 92.0012Z" fill="#21D0C3"/>
<path d="M29.4298 92.0005L12.4583 97.52C11.7678 97.7442 11.3343 98.3312 11.194 99.0427L10.9318 100.371C17.1995 109.648 25.8355 117.19 35.9723 122.136L29.4305 92.0007H29.4298V92.0005Z" fill="white"/>
<path d="M29.4297 92.0005L27.4855 92.5977L22.3352 101.385L28.8362 101.588L24.8447 103.861L32.2515 120.168C33.4665 120.864 34.7072 121.519 35.971 122.136L29.4292 92.001L29.4297 92.0005Z" fill="#EEF3F7"/>
<path d="M47.682 92.0547L64.6595 97.5184C65.3508 97.7407 65.7835 98.3297 65.923 99.0412L71.6148 128.132C69.1178 128.429 66.5773 128.585 64.0003 128.585C62.0723 128.585 60.1648 128.495 58.2803 128.328L57.0593 124.186C57.0323 124.093 56.942 124.036 56.8455 124.047C56.749 124.059 56.6763 124.136 56.671 124.233L56.524 128.149C51.0038 127.506 45.697 126.164 40.6975 124.209L47.6825 92.0554L47.682 92.0547Z" fill="#EEF3F7"/>
<path d="M47.682 92.0562L48.7615 92.3847L54.7768 101.441L48.2758 101.645L52.2673 103.917L42.6985 124.951C42.0263 124.714 41.3583 124.469 40.6973 124.21L47.6823 92.0566V92.0562H47.682Z" fill="white"/>
<path d="M48.1038 71.8146L49.1025 71.7798L49.4238 70.6408L50.3643 69.7018C50.9858 65.0231 51.1695 57.7423 46.5255 57.9521C46.5255 57.9521 46.1065 52.6426 37.7305 53.6836C29.354 54.7243 25.5688 60.1321 26.0203 64.6438C26.4713 69.1556 26.2893 69.7016 26.2893 69.7016L27.2298 70.6413L27.372 71.9378L28.1938 71.8853C28.1938 71.8853 28.4508 70.1503 28.7093 69.3871C28.967 68.6243 28.887 67.0796 28.887 67.0796C28.887 67.0796 38.7808 67.7098 41.4545 64.3091C43.1058 62.2086 46.8985 58.5693 47.0895 63.6098C47.146 65.1043 46.5905 67.3443 47.6543 68.9746C48.718 70.6053 48.1053 71.8161 48.1053 71.8161L48.1038 71.8146Z" fill="#666666"/>
<path d="M40.6962 124.21L41.2327 121.741L39.4155 97.4767L40.4055 97.0542L39.347 95.8777H37.7672L36.6815 97.0259L37.7005 97.4764L35.928 121.938L35.9712 122.136C37.513 122.888 39.0882 123.581 40.696 124.21V124.209H40.6962V124.21Z" fill="#0F7986"/>
<path d="M55.1903 118.27C53.352 117.952 52.1193 116.206 52.4368 114.367C52.7543 112.529 54.5018 111.296 56.339 111.613C58.1778 111.93 59.4105 113.678 59.093 115.516C58.776 117.354 57.0285 118.587 55.1903 118.27Z" fill="#FEFEFE"/>
<path d="M55.2237 118.076C53.4927 117.777 52.332 116.132 52.6302 114.401C52.9292 112.67 54.5752 111.508 56.3057 111.807C58.0367 112.106 59.1975 113.752 58.8992 115.483C58.6002 117.215 56.955 118.375 55.2237 118.076Z" fill="#0F7986"/>
<path d="M55.4651 116.678C54.5076 116.512 53.8651 115.601 54.0303 114.644C54.1963 113.685 55.1071 113.043 56.0638 113.208C57.0218 113.374 57.6643 114.284 57.4993 115.243C57.3341 116.2 56.4231 116.843 55.4651 116.678Z" fill="#EBECEC"/>
<path d="M55.6722 113.407L56.446 113.541L56.8617 111.122L56.0885 110.988L55.6722 113.407Z" fill="#FEFEFE"/>
<path d="M30.0975 118.874L31.2207 118.651C31.8365 118.529 32.3467 118.165 32.6712 117.679C32.9957 117.193 33.1375 116.583 33.0147 115.967L31.3102 107.381C30.667 104.141 28.1325 102.488 25.2362 102.122C24.1262 101.981 22.9627 102.033 21.8355 102.256C20.7077 102.479 19.6137 102.876 18.642 103.429C17.3377 104.172 16.2525 105.195 15.5955 106.456C15.7405 106.623 15.8887 106.786 16.035 106.951C16.6205 105.696 17.6665 104.683 18.9412 103.957C19.856 103.436 20.8882 103.061 21.9537 102.85C23.0187 102.639 24.1157 102.591 25.161 102.724C27.8122 103.059 30.1302 104.561 30.713 107.499L32.4175 116.086C32.5072 116.537 32.403 116.985 32.165 117.341C31.9262 117.697 31.5525 117.964 31.1007 118.053L29.6515 118.34L29.7092 118.632C29.8377 118.713 29.9675 118.792 30.0962 118.874H30.0975Z" fill="#21D0C3"/>
<path d="M31.7697 108.653L31.5095 107.342C30.8465 104.001 28.2387 102.298 25.2607 101.921C24.1295 101.778 22.9445 101.829 21.7965 102.058C20.6475 102.285 19.5335 102.69 18.5432 103.254C17.2297 104.002 16.132 105.026 15.4532 106.287C15.694 106.567 15.9385 106.844 16.1837 107.119C16.7437 105.864 17.7767 104.853 19.041 104.132C19.9375 103.622 20.9485 103.256 21.9932 103.048C23.0372 102.841 24.1125 102.795 25.1367 102.924C27.7052 103.248 29.9512 104.7 30.5145 107.539L30.7747 108.85L31.7697 108.653Z" fill="#4D4D4D"/>
<path d="M30.3865 118.951L30.256 118.977C29.7332 118.651 29.2165 118.317 28.7037 117.977C28.989 117.941 29.2632 118.054 29.444 118.258L30.2185 118.103L30.3857 118.951H30.3865Z" fill="#076673"/>
<path d="M22.2677 101.987L21.972 100.491L21.3845 100.608L20.7977 100.725L21.0967 102.236C21.3202 102.171 21.5472 102.115 21.7762 102.07C21.939 102.037 22.1027 102.01 22.268 101.987V101.987H22.2677Z" fill="#666666"/>
<path d="M55.3715 116.675C54.466 116.517 53.858 115.652 54.0147 114.743C54.171 113.833 55.0317 113.223 55.9375 113.38C56.843 113.537 57.451 114.402 57.2942 115.312C57.1375 116.221 56.2765 116.832 55.371 116.675H55.3715Z" fill="#FEFEFE"/>
<path d="M29.4377 92.447C29.4114 92.447 20.2637 92.523 21.8094 100.526L20.9589 100.689C19.2174 91.6667 29.3992 91.5835 29.4279 91.5835L29.4377 92.447Z" fill="#4D4D4D"/>
<path d="M47.6917 91.623C49.1842 91.663 52.0694 92.0696 54.2897 94.7705C56.4629 97.4138 57.9862 102.269 56.8464 111.17L55.9887 111.062C57.0917 102.447 55.6669 97.8088 53.6214 95.32C51.6234 92.8891 49.0179 92.5225 47.6707 92.4865L47.6909 91.623H47.6917Z" fill="#4D4D4D"/>
<path d="M89.7397 86.6568L88.4577 93.0995L84.162 94.5768L86.0702 124.679C92.3772 122.361 98.218 119.079 103.414 115.012L103.811 93.8195L101.067 92.9565L99.6692 86.3848L89.7385 86.6575L89.7397 86.6568Z" fill="#F0BA7D"/>
<path d="M83.1877 95.7646C90.3387 99.2324 97.6947 99.9594 105.439 95.9606L105.373 113.411C98.8985 118.903 91.3177 123.133 83.012 125.715L83.1877 95.7646Z" fill="white"/>
<path d="M102.448 93.4463L114.905 96.8443C116.143 97.226 117.328 97.742 118.327 98.4253C112.648 107.523 104.748 115.089 95.3872 120.369C96.3748 107.919 97.9498 102.06 102.448 93.4463Z" fill="#9B51E0"/>
<path d="M87.875 93.3179L75.3592 96.4956C72.1112 97.4361 69.1932 99.2944 69.04 102.725L67.8925 128.465C71.1417 128.27 74.3255 127.833 77.4265 127.171L78.018 119.215L78.9772 126.819C84.1857 125.57 89.1465 123.684 93.773 121.249C93.9999 120.087 97.4999 109.587 87.875 93.3179Z" fill="#9B51E0"/>
<path d="M81.2683 71.2073C81.0593 73.318 81.4821 78.0063 84.0433 77.8278C84.0433 77.8278 87.7293 88.5715 94.8266 89.788C100.954 88.668 104.681 78.938 104.964 78.012C105.808 78.3005 108.169 74.3708 106.359 71.1563C105.84 70.2343 104.369 70.981 104.369 70.981L104.257 68.2971C94.5743 69.2376 88.5368 59.8726 88.5368 59.8726C84.8456 63.8871 83.9578 66.1791 83.5631 71.1723C83.5631 71.1723 82.8698 70.7413 82.1006 70.7253C81.8691 70.7205 81.5711 70.922 81.2683 71.2073Z" fill="#FED298"/>
<path d="M88.4577 93.0988L89.7122 86.8003C86.0792 83.2231 84.1842 77.8276 84.1842 77.8276C81.7087 78.1036 80.7145 71.2811 82.3802 71.0426C83.1422 70.9338 83.6517 71.1723 83.6517 71.1723C84.0267 65.9001 85.0425 64.2961 88.5365 59.8726C88.5365 59.8726 94.6402 70.1418 104.315 69.2013L104.453 71.4153C104.911 70.9656 105.747 70.5433 106.443 71.6888C107.576 73.5531 106.094 77.7898 104.722 78.0476C104.527 78.7008 103 83.5203 99.7642 86.8233L101.068 92.9553C104.699 94.131 108.199 95.0393 111.713 95.9735C109.928 85.0933 108.905 73.3188 106.774 63.2678C104.728 53.6238 93.548 50.9261 87.119 55.2093C87.119 55.2093 81.5752 57.4433 80.5627 64.8521C79.551 72.2608 79.9385 72.9748 79.9385 72.9748L78.1522 95.787C81.4645 94.9458 85.3 94.1858 88.4585 93.099L88.4577 93.0988Z" fill="#F2F2F2"/>
<path d="M35.6693 13.8784H67.8953C69.8795 13.8784 71.5033 15.5019 71.5033 17.4864V38.6946C71.5033 40.6789 69.8798 42.3026 67.8953 42.3026H41.8693C40.296 45.5001 32.6855 46.9839 32.6855 46.9839C32.6855 46.9839 35.0633 45.0941 36.4038 42.3026H35.6693C33.685 42.3026 32.0613 40.6791 32.0613 38.6946V17.4864C32.0613 15.5019 33.685 13.8784 35.6693 13.8784Z" fill="#FF5B62"/>
<path d="M76.6807 16.9229C87.3885 16.9229 96.0687 23.8311 96.0687 32.3526C96.0687 37.2466 93.2057 41.6071 88.7392 44.4341C89.7872 48.0126 93.0257 50.5863 93.0257 50.5863C93.0257 50.5863 86.4542 49.3043 84.2625 46.5568C81.9332 47.3458 79.3705 47.7823 76.68 47.7823C65.9723 47.7823 57.2915 40.8741 57.2915 32.3526C57.2915 23.8311 65.9723 16.9229 76.68 16.9229H76.6807Z" fill="#419AFF"/>
<path d="M35.598 18.9907H58.1848V20.3847H35.598V18.9907ZM35.598 27.775H52.1198V29.1689H35.598V27.775ZM35.598 23.3827H58.1848V24.7767H35.598V23.3827Z" fill="#FEFEFE"/>
<path d="M66.2018 27.4561H88.7885V28.8501H66.2018V27.4561ZM66.2018 36.2408H82.7235V37.6348H66.2018V36.2408ZM66.2018 31.8483H88.7885V33.2423H66.2018V31.8483Z" fill="#FEFEFE"/>
</g>
<defs>
<clipPath id="clip0">
<rect width="128" height="128" fill="white" transform="translate(0 0.586914)"/>
</clipPath>
</defs>
</svg>
