<svg width="128" height="129" viewBox="0 0 128 129" fill="none" xmlns="http://www.w3.org/2000/svg">
<g clip-path="url(#clip0)">
<path d="M64 0.586914C99.3463 0.586914 128 29.2406 128 64.5869C128 99.9331 99.3463 128.587 64 128.587C28.6538 128.587 0 99.9331 0 64.5869C0 29.2406 28.6538 0.586914 64 0.586914Z" fill="white"/>
<path d="M64 102.404C89.1674 102.404 109.571 104.013 109.571 105.997C109.571 107.98 89.1687 109.589 64 109.589C38.8325 109.589 18.429 107.98 18.429 105.997C18.429 104.013 38.8312 102.404 64 102.404Z" fill="#5B636A"/>
<path d="M16.496 17.3923H111.505C114.627 17.3923 117.181 19.9466 117.181 23.0678V81.5943H10.8218V23.0673C10.8218 19.9461 13.376 17.3918 16.4973 17.3918L16.496 17.3923Z" fill="#F2F2F2"/>
<path d="M14.6737 77.741H113.326V23.0686C113.326 22.0743 112.499 21.2463 111.505 21.2463H16.496C15.5017 21.2463 14.675 22.0731 14.675 23.0686V77.741H14.6737Z" fill="#DCE3DB"/>
<path d="M117.18 81.5942V87.8007C117.18 90.9232 114.364 93.4762 110.924 93.4762H17.0768C13.6358 93.4762 10.8208 90.9232 10.8208 87.8007V81.5942H117.18Z" fill="#F2F2F2"/>
<path d="M37.3902 27.6724H90.61H98.5322C99.492 27.6724 100.278 28.4589 100.278 29.4181V39.8046V77.7411H27.724V77.7398V39.8048V29.4184C27.724 28.4586 28.5092 27.6726 29.4697 27.6726H37.392C37.3922 27.6724 37.3902 27.6724 37.3902 27.6724Z" fill="white"/>
<path d="M29.4678 27.6724H98.5311C99.4908 27.6724 100.277 28.4576 100.277 29.4181V32.9089H27.7218V29.4181C27.7218 28.4589 28.5071 27.6724 29.4678 27.6724Z" fill="#828282"/>
<path d="M60.0232 29.4807H95.0704C95.3292 29.4807 95.5392 29.6917 95.5392 29.9516V30.825C95.5392 31.0849 95.3292 31.2959 95.0704 31.2959H60.0232C59.7644 31.2959 59.5544 31.0849 59.5544 30.825V29.9516C59.5544 29.6922 59.7644 29.4807 60.0232 29.4807Z" fill="white"/>
<path d="M31.2042 29.1702C31.7585 29.1702 32.2087 29.6212 32.2087 30.1792C32.2087 30.7372 31.7585 31.1882 31.2042 31.1882C30.6487 31.1882 30.1985 30.7372 30.1985 30.1792C30.1987 29.6214 30.649 29.1702 31.2042 29.1702Z" fill="#21D0C3"/>
<path d="M35.1708 29.1702C35.7263 29.1702 36.1753 29.6212 36.1753 30.1792C36.1753 30.7372 35.7263 31.1882 35.1708 31.1882C34.6153 31.1882 34.1663 30.7372 34.1663 30.1792C34.1663 29.6214 34.6168 29.1702 35.1708 29.1702Z" fill="#FAD24D"/>
<path d="M39.1382 29.1702C39.6924 29.1702 40.1427 29.6212 40.1427 30.1792C40.1427 30.7372 39.6924 31.1882 39.1382 31.1882C38.5827 31.1882 38.1324 30.7372 38.1324 30.1792C38.1324 29.6214 38.5829 29.1702 39.1382 29.1702Z" fill="#FF5B62"/>
<path d="M31.649 39.7437H96.35V56.1726H31.649V39.7437Z" fill="#1B65B9"/>
<path d="M41.2493 60.5479C42.9293 60.5479 44.2908 61.9091 44.2908 63.5894C44.2908 65.2684 42.9295 66.6309 41.2493 66.6309C39.5703 66.6309 38.2078 65.2696 38.2078 63.5894C38.2078 61.9091 39.569 60.5479 41.2493 60.5479Z" fill="#21D0C3"/>
<path d="M64 60.5479C65.679 60.5479 67.0415 61.9091 67.0415 63.5894C67.0415 65.2684 65.6803 66.6309 64 66.6309C62.321 66.6309 60.9585 65.2696 60.9585 63.5894C60.9585 61.9091 62.32 60.5479 64 60.5479Z" fill="#FF5B62"/>
<path d="M86.7507 60.5479C88.4297 60.5479 89.7922 61.9091 89.7922 63.5894C89.7922 65.2684 88.431 66.6309 86.7507 66.6309C85.0705 66.6309 83.7092 65.2696 83.7092 63.5894C83.7092 61.9091 85.0707 60.5479 86.7507 60.5479Z" fill="#FAD24D"/>
<path d="M35.0773 69.3247H47.4198V69.9945H35.0773V69.3247ZM35.0773 73.5325H43.368V74.2022H35.0773V73.5325ZM35.0773 71.4287H47.4198V72.0975H35.0773V71.4287Z" fill="#8296A5"/>
<path d="M57.8292 69.3247H70.1717V69.9945H57.8292V69.3247ZM57.8292 73.5325H66.12V74.2022H57.8292V73.5325ZM57.8292 71.4287H70.1717V72.0975H57.8292V71.4287Z" fill="#8296A5"/>
<path d="M80.5801 69.3247H92.9216V69.9945H80.5801V69.3247ZM80.5801 73.5325H88.8696V74.2022H80.5801V73.5325ZM80.5801 71.4287H92.9216V72.0975H80.5801V71.4287Z" fill="#8296A5"/>
<path d="M31.328 57.5339H96.351V57.8032H31.328V57.5339Z" fill="#ECF0F1"/>
<path d="M64 85.3335C65.0798 85.3335 65.9538 86.2075 65.9538 87.2872C65.9538 88.367 65.0798 89.241 64 89.241C62.9203 89.241 62.0463 88.367 62.0463 87.2872C62.0463 86.2075 62.9203 85.3335 64 85.3335Z" fill="#B6B6B8"/>
<path d="M76.2662 102.404L85.2902 105.296H42.7097L49.99 102.404V93.4763H76.2662V102.404Z" fill="#C2C2C4"/>
<path d="M76.2663 102.404L49.99 93.4761H76.2663V102.404Z" fill="#B0B0B0"/>
<path d="M49.99 102.404H76.2662L85.2902 105.296V106.541H64H42.7085V105.296L49.9887 102.404H49.99Z" fill="#ECF0F1"/>
<path d="M91.05 38.6226H95.4783V37.5774H91.05V38.6226Z" fill="#8296A5"/>
<path d="M83.8445 38.6226H88.2727V37.5774H83.8445V38.6226Z" fill="#8296A5"/>
<path d="M76.6403 38.6226H81.0685V37.5774H76.6403V38.6226Z" fill="#8296A5"/>
<path d="M69.4365 38.6226H73.8648V37.5774H69.4365V38.6226Z" fill="#8296A5"/>
<path d="M88.5742 41.3843L89.3387 42.4376L88.8479 42.7931L88.4369 42.2283C88.0339 42.5066 85.7812 44.2491 88.3399 46.8078C90.5812 49.0491 92.6182 47.2478 93.3524 46.4233L92.8097 45.9868L93.1897 45.5146L94.2034 46.3298L94.0869 46.4753L94.0847 46.4776L94.0824 46.4798L94.0802 46.4821C94.042 46.5318 93.9822 46.6078 93.9012 46.7038L93.8977 46.7086L93.8227 46.8008L93.8192 46.7986C93.0397 47.6818 90.8782 49.6426 88.4047 47.6726C87.6344 48.1506 86.5017 48.0051 85.3494 47.8563C83.9569 47.6761 82.5297 47.4926 82.0169 48.5191C81.7779 48.9983 82.0377 49.2858 82.4844 49.5098L82.4857 49.5086C82.7987 49.6646 83.1865 49.7951 83.5802 49.9278C84.9542 50.3896 86.4069 50.8783 85.8134 52.4728C84.8814 54.9761 80.3367 53.3561 79.2697 52.9346C79.1312 53.1643 78.9647 53.3768 78.7767 53.5651C78.1822 54.1596 77.3599 54.5281 76.4512 54.5281C75.5437 54.5281 74.7224 54.1598 74.1279 53.5651L74.1267 53.5638C73.5322 52.9693 73.1637 52.1471 73.1637 51.2406C73.1637 50.3331 73.5319 49.5098 74.1267 48.9151C74.7212 48.3206 75.5434 47.9521 76.4512 47.9521C77.3577 47.9521 78.1797 48.3203 78.7744 48.9151L78.7757 48.9163L78.7769 48.9176C79.3714 49.5121 79.7399 50.3343 79.7399 51.2408C79.7399 51.6461 79.6662 52.0353 79.5322 52.3943C80.5772 52.8053 84.5284 54.2073 85.2524 52.2638C85.6299 51.2501 84.4799 50.8631 83.3912 50.4983C82.9697 50.3573 82.5555 50.2176 82.2192 50.0493V50.0481C81.4594 49.6681 81.0297 49.1578 81.4824 48.2526C82.1867 46.8451 83.8254 47.0563 85.4269 47.2618C86.3819 47.3853 87.3217 47.5066 87.9289 47.2456L87.9139 47.2316C84.8969 44.2146 87.5527 42.1128 88.0849 41.7411L88.0837 41.7398L88.5744 41.3831V41.3843H88.5742ZM76.4522 49.5966C76.9069 49.5966 77.3182 49.7813 77.6149 50.0791C77.9129 50.3771 78.0975 50.7878 78.0975 51.2418C78.0975 51.6956 77.9127 52.1078 77.6149 52.4046C77.3169 52.7026 76.9062 52.8861 76.4522 52.8861C75.9984 52.8861 75.5862 52.7013 75.2894 52.4046C74.9914 52.1066 74.8079 51.6958 74.8079 51.2418C74.8079 50.7871 74.9927 50.3758 75.2894 50.0791C75.5872 49.7813 75.9982 49.5966 76.4522 49.5966ZM77.1899 50.5041C77.0017 50.3158 76.7409 50.1981 76.4522 50.1981C76.1647 50.1981 75.9037 50.3158 75.7144 50.5041C75.5262 50.6923 75.4094 50.9533 75.4094 51.2418C75.4094 51.5293 75.5259 51.7903 75.7144 51.9796C75.9027 52.1678 76.1647 52.2846 76.4522 52.2846C76.7397 52.2846 77.0007 52.1681 77.1899 51.9796C77.3782 51.7913 77.4959 51.5293 77.4959 51.2418C77.4962 50.9546 77.3782 50.6936 77.1899 50.5041ZM78.3517 49.3413C77.8667 48.8563 77.1947 48.5561 76.4522 48.5561C75.7109 48.5561 75.0389 48.8563 74.5527 49.3426C74.0677 49.8286 73.7662 50.4996 73.7662 51.2421C73.7662 51.9846 74.0677 52.6553 74.5527 53.1416C75.0387 53.6266 75.7109 53.9281 76.4522 53.9281C77.1934 53.9281 77.8654 53.6266 78.3517 53.1416C78.8377 52.6556 79.1382 51.9846 79.1382 51.2421C79.1382 50.4996 78.8379 49.8276 78.3529 49.3426L78.3517 49.3413Z" fill="#FEFEFE"/>
<path d="M32.8932 43.7959C35.1316 43.7959 36.9462 41.9813 36.9462 39.7429C36.9462 37.5045 35.1316 35.6899 32.8932 35.6899C30.6548 35.6899 28.8402 37.5045 28.8402 39.7429C28.8402 41.9813 30.6548 43.7959 32.8932 43.7959Z" fill="#FF5B62"/>
<path d="M32.1305 36.9343H33.6557V38.9803H35.7017V40.5056H33.6557V42.5516H32.1305V40.5056H30.0845V38.9803H32.1305V36.9343Z" fill="white"/>
</g>
<defs>
<clipPath id="clip0">
<rect width="128" height="128" fill="white" transform="translate(0 0.586914)"/>
</clipPath>
</defs>
</svg>
