<svg width="64" height="64" viewBox="0 0 64 64" fill="none" xmlns="http://www.w3.org/2000/svg">
<g clip-path="url(#clip0)">
<path d="M17.3334 45.3337H12V48.0004H17.3334V45.3337Z" fill="#8296A5"/>
<path d="M20 50.6663H12V53.3329H20V50.6663Z" fill="#8296A5"/>
<path d="M62.8001 57.0174L48.0001 42.2156V9.33337C48.0001 7.12425 46.2092 5.33337 44.0001 5.33337H17.1999C16.5821 2.29037 13.892 0 10.6667 0C7.4415 0 4.7515 2.29037 4.13375 5.33337H4.00012C1.791 5.33337 0.00012207 7.12425 0.00012207 9.33337V60C0.00012207 62.2091 1.791 64 4.00012 64H44.0001C46.2092 64 48.0001 62.2091 48.0001 60V53.7837L57.0175 62.8C57.7835 63.5695 58.825 64.0015 59.9109 64C60.9961 63.9999 62.0367 63.5684 62.8036 62.8005C64.3996 61.2026 64.3981 58.6134 62.8001 57.0174ZM10.6667 2.66663C12.4082 2.66663 13.889 3.77988 14.4382 5.33325H6.89537C7.4445 3.77988 8.92525 2.66663 10.6667 2.66663ZM45.3335 60C45.3335 60.7364 44.7365 61.3334 44.0001 61.3334H4.00012C3.26375 61.3334 2.66675 60.7364 2.66675 60V9.33337C2.66675 8.597 3.26375 8 4.00012 8H14.6667V22.6666C14.6667 23.403 14.0697 24 13.3334 24C12.597 24 12 23.403 12 22.6666V10.6666H9.3335V22.6666C9.3335 24.8757 11.1244 26.6666 13.3335 26.6666C15.5426 26.6666 17.3335 24.8757 17.3335 22.6666V8H44.0001C44.7365 8 45.3335 8.597 45.3335 9.33337V39.5488L41.3335 35.5482V12C41.3335 11.2636 40.7365 10.6666 40.0001 10.6666H20.0001V13.3333H38.6667V33.1725L31.2627 29.4788C30.8869 29.2904 30.4441 29.2904 30.0682 29.4788C29.9967 29.5145 29.9309 29.5569 29.8689 29.603L29.8667 29.6001L26.0827 32.4347L23.9494 24.9681C23.8871 24.7498 23.7702 24.5509 23.6096 24.3904C23.0887 23.8698 22.2446 23.87 21.724 24.3908L18.1147 28H8.00012C7.26375 28 6.66675 28.597 6.66675 29.3334V57.3334C6.66675 58.0697 7.26375 58.6668 8.00012 58.6668H40.0001C40.7365 58.6668 41.3335 58.0697 41.3335 57.3334V47.1179L45.3335 51.1174V60ZM34.9307 36.2147L33.6455 33.6466L36.2144 34.9311L34.9307 36.2147ZM38.6667 44.4514V56H9.3335V30.6666H18.6669C19.0196 30.6669 19.3581 30.5274 19.6082 30.2786L22.0082 27.8786L24.0509 35.032C24.0956 35.189 24.1687 35.3366 24.2667 35.4671C24.7087 36.0561 25.5445 36.1753 26.1335 35.7332L30.1862 32.6937L33.3721 39.0666L33.3755 39.065C33.4377 39.1886 33.5196 39.3048 33.6227 39.408L38.6667 44.4514ZM36.4507 38.4654L38.4654 36.4507L56.0789 54.0641L54.0642 56.0788L36.4507 38.4654ZM60.9175 60.9174C60.3611 61.4737 59.4591 61.4737 58.9029 60.9174L55.9499 57.9644L57.9645 55.9497L60.9174 58.9026C61.4739 59.459 61.4739 60.361 60.9175 60.9174Z" fill="#8296A5"/>
</g>
<defs>
<clipPath id="clip0">
<rect width="64" height="64" fill="white"/>
</clipPath>
</defs>
</svg>
