<svg width="64" height="65" viewBox="0 0 64 65" fill="none" xmlns="http://www.w3.org/2000/svg">
<g clip-path="url(#clip0)">
<path d="M62.6665 8.08788H26.5719C25.9032 3.49876 21.971 0.0936406 17.3333 0.0878906H1.33337C0.596999 0.0878906 0 0.684889 0 1.42126V62.7545C0 63.4908 0.596999 64.0876 1.33337 64.0876H34.6667V61.421H2.66674V2.75451H17.3333C20.5567 2.75839 23.2445 5.04688 23.865 8.08788H10.6666V10.7545H25.3332H61.3331V21.4211H63.9999V9.42112C63.9999 8.68487 63.4029 8.08788 62.6665 8.08788Z" fill="#8296A5"/>
<path d="M57.2702 39.1271C59.7438 37.1736 61.3333 34.1503 61.3333 30.7536V28.087C61.3333 22.196 56.5577 17.4204 50.6667 17.4204C44.7757 17.4204 39.9999 22.196 39.9999 28.087V30.3616C39.9604 33.8889 41.5978 37.0571 44.1828 39.093C40.2371 40.1838 37.3382 43.7953 37.3333 48.087V62.7536C37.3333 63.49 37.9303 64.087 38.6667 64.087H62.6666C63.403 64.087 64 63.49 64 62.7536V48.087C63.995 43.8389 61.1546 40.2573 57.2702 39.1271ZM50.6665 20.087C54.1342 20.0905 57.0847 22.2982 58.1949 25.3842C50.7489 25.0839 47.435 22.9962 47.4065 22.9777C46.936 22.6639 46.3189 22.681 45.8665 23.0203L43.3161 24.9332C44.5413 22.0854 47.3703 20.0903 50.6665 20.087ZM42.6666 30.3616V28.7536L46.7825 25.6669C48.3627 26.4356 52.1718 27.89 58.666 28.0688C58.666 28.0749 58.6665 28.0808 58.6665 28.0869V30.7535C58.6665 30.837 58.6653 30.9205 58.6628 31.004C58.5313 35.265 55.0909 38.6436 50.8825 38.7535H50.4199C46.0072 38.4796 42.5911 34.7823 42.6666 30.3616ZM54.0302 41.4204L50.6665 49.831L47.3029 41.4204H50.3345C50.4465 41.4204 50.5559 41.4204 50.6665 41.4204H54.0302ZM39.9999 61.4204V48.087C40.0034 45.141 41.9162 42.6439 44.5667 41.762L49.3332 53.6784V58.7537H51.9999V53.6784L56.7664 41.762C59.417 42.6439 61.3296 45.1409 61.3331 48.087V61.4204H39.9999Z" fill="#8296A5"/>
<path d="M51.9999 32.0869C51.9999 32.8233 51.4029 33.4203 50.6666 33.4203C49.9302 33.4203 49.3332 32.8233 49.3332 32.0869H46.6666C46.6666 34.296 48.4574 36.0869 50.6666 36.0869C52.8757 36.0869 54.6665 34.296 54.6665 32.0869H51.9999Z" fill="#8296A5"/>
<path d="M26.6662 14.7532H10.6662V17.4198H26.6662V14.7532Z" fill="#8296A5"/>
<path d="M26.6662 21.4207H10.6662V24.0873H26.6662V21.4207Z" fill="#8296A5"/>
<path d="M26.6662 28.0869H10.6662V30.7535H26.6662V28.0869Z" fill="#8296A5"/>
<path d="M7.99999 56.0869V52.0869H5.33337V57.4203C5.33337 58.1567 5.93037 58.7537 6.66675 58.7537H12V56.0869H7.99999Z" fill="#8296A5"/>
<path d="M17.3328 56.0869H14.6662V58.7535H17.3328V56.0869Z" fill="#8296A5"/>
<path d="M32.0003 14.7532H29.3337V17.4198H32.0003V14.7532Z" fill="#8296A5"/>
<path d="M32.0003 21.4207H29.3337V24.0873H32.0003V21.4207Z" fill="#8296A5"/>
<path d="M32.0003 28.0869H29.3337V30.7535H32.0003V28.0869Z" fill="#8296A5"/>
<path d="M7.99999 8.08716H5.33337V10.7538H7.99999V8.08716Z" fill="#8296A5"/>
<path d="M25.3332 34.7537H12C11.2636 34.7537 10.6666 35.3507 10.6666 36.087V46.7536C10.6666 47.49 11.2636 48.087 12 48.087H25.3333C26.0697 48.087 26.6666 47.49 26.6666 46.7536V36.087C26.6666 35.3507 26.0696 34.7537 25.3332 34.7537ZM24 45.4204H13.3334V37.4204H24V45.4204Z" fill="#8296A5"/>
</g>
<defs>
<clipPath id="clip0">
<rect width="64" height="64" fill="white" transform="translate(0 0.0869141)"/>
</clipPath>
</defs>
</svg>
