<svg width="64" height="65" viewBox="0 0 64 65" fill="none" xmlns="http://www.w3.org/2000/svg">
<g clip-path="url(#clip0)">
<path d="M61.3123 40.0558C58.0572 36.8829 52.9797 36.5439 49.3316 39.2559C48.9048 38.9386 48.4578 38.6648 47.9971 38.4308V4.08862C47.9971 1.87963 46.2063 0.0888672 43.9973 0.0888672H3.99976C1.79077 0.0888672 0 1.87963 0 4.08862V60.0852C0 62.2942 1.79077 64.085 3.99976 64.085H43.9973C45.2965 64.085 46.4506 63.4652 47.1813 62.5055L48.3971 63.7024C48.6461 63.9473 48.9812 64.0846 49.3304 64.085C49.6796 64.0846 50.0147 63.9473 50.2637 63.7024L61.3124 52.8297C61.3602 52.7829 61.4075 52.7357 61.4543 52.6878C64.9032 49.1605 64.8397 43.5049 61.3123 40.0558ZM43.9973 61.4185H3.99976C3.26343 61.4185 2.66646 60.8216 2.66646 60.0852V4.08862C2.66646 3.35229 3.26343 2.75533 3.99976 2.75533H43.9973C44.7337 2.75533 45.3306 3.35229 45.3306 4.08862V37.5557C42.5037 37.0868 39.5231 37.9403 37.3525 40.0558C37.3047 40.1026 37.2574 40.1498 37.2106 40.1977C33.7616 43.7251 33.8251 49.3806 37.3525 52.8298L45.2323 60.5868C45.0339 61.0744 44.5562 61.4185 43.9973 61.4185ZM59.4404 50.9325L49.3304 60.8853L39.2216 50.9259C39.184 50.8892 39.1468 50.8519 39.11 50.8143C36.6939 48.3366 36.7439 44.3692 39.2216 41.9531C40.4447 40.7517 42.0922 40.0809 43.8067 40.0866C45.5242 40.0821 47.1743 40.7551 48.3984 41.9598C48.9169 42.468 49.7466 42.468 50.265 41.9598C52.8158 39.4677 56.8896 39.4677 59.4404 41.9598C59.478 41.9966 59.5153 42.0338 59.552 42.0714C61.9681 44.549 61.9181 48.5164 59.4404 50.9325Z" fill="#8296A5"/>
<path d="M31.9981 18.7544H27.9983V14.7547C27.9983 14.0184 27.4014 13.4214 26.665 13.4214H21.332C20.5957 13.4214 19.9987 14.0184 19.9987 14.7547V18.7544H15.9989C15.2626 18.7544 14.6656 19.3514 14.6656 20.0877V25.4208C14.6656 26.1571 15.2626 26.7541 15.9989 26.7541H19.9987V30.7538C19.9987 31.4902 20.5957 32.0871 21.332 32.0871H26.665C27.4014 32.0871 27.9983 31.4902 27.9983 30.7538V26.7541H31.9981C32.7344 26.7541 33.3314 26.1571 33.3314 25.4208V20.0877C33.3314 19.3513 32.7344 18.7544 31.9981 18.7544ZM30.6648 24.0874H26.665C25.9287 24.0874 25.3318 24.6843 25.3318 25.4207V29.4204H22.6653V25.4207C22.6653 24.6843 22.0683 24.0874 21.332 24.0874H17.3322V21.4209H21.332C22.0683 21.4209 22.6653 20.8239 22.6653 20.0876V16.0879H25.3318V20.0876C25.3318 20.8239 25.9287 21.4209 26.665 21.4209H30.6648V24.0874Z" fill="#8296A5"/>
<path d="M6.66618 5.42188C5.92985 5.42188 5.33301 6.01884 5.33301 6.75517V12.0882H7.99947V8.08846H11.9992V5.42188H6.66618Z" fill="#8296A5"/>
<path d="M41.3307 5.42188H35.9978V8.08834H39.9976V12.0881H42.664V6.75517C42.664 6.01884 42.0671 5.42188 41.3307 5.42188Z" fill="#8296A5"/>
<path d="M33.3305 40.0857H14.6654V42.7522H33.3305V40.0857Z" fill="#8296A5"/>
<path d="M33.3305 46.7529H14.6654V49.4194H33.3305V46.7529Z" fill="#8296A5"/>
<path d="M33.3305 53.4187H14.6654V56.0852H33.3305V53.4187Z" fill="#8296A5"/>
</g>
<defs>
<clipPath id="clip0">
<rect width="64" height="64" fill="white" transform="translate(0 0.0869141)"/>
</clipPath>
</defs>
</svg>
