<svg viewBox="0 0 197 67" fill="none" xmlns="http://www.w3.org/2000/svg">
<path d="M79.1832 43.7552V39.5797L89.294 27.5284V27.3693H79.5014V21.2955H98.8857V26.1707L89.974 37.5198V37.6814H99.3251V43.7552H79.1832Z" fill="white"/>
<path d="M123.237 21.2955V43.7552H115.244V39.359H115.083C114.631 40.8783 113.808 42.0635 112.615 42.9163C111.422 43.7676 109.987 44.1948 108.308 44.1948C105.845 44.1948 103.839 43.4313 102.294 41.9067C100.749 40.3812 99.9773 38.3137 99.9773 35.7024V21.2955H108.169V33.8632C108.169 35.0367 108.491 35.9494 109.138 36.601C109.784 37.2535 110.627 37.5796 111.667 37.5796C112.639 37.5796 113.444 37.2378 114.085 36.5513C114.723 35.8655 115.043 34.9691 115.043 33.8632V21.2955H123.237Z" fill="white"/>
<path d="M136.316 27.3103C135.199 27.3103 134.308 27.7833 133.65 28.7277C132.99 29.6736 132.654 30.9467 132.64 32.5452C132.654 34.1575 132.986 35.4259 133.64 36.3508C134.292 37.2776 135.185 37.7405 136.316 37.7405C137.436 37.7405 138.326 37.2713 138.985 36.3308C139.645 35.3925 139.975 34.1241 139.975 32.5249C139.975 30.9406 139.641 29.6736 138.975 28.7277C138.309 27.7833 137.424 27.3103 136.316 27.3103ZM139.635 44.0736C137.996 44.0736 136.583 43.7055 135.398 42.9661C134.213 42.2266 133.36 41.1982 132.841 39.878H132.679V43.7552H124.488V13.4213H132.679V25.3313H132.841C133.385 23.9595 134.238 22.89 135.398 22.1243C136.557 21.3584 137.935 20.9746 139.533 20.9746C142.373 20.9746 144.554 21.9735 146.079 23.9734C147.604 25.9697 148.368 28.8208 148.368 32.5249C148.368 36.2297 147.61 39.0786 146.099 41.0771C144.586 43.0756 142.432 44.0736 139.635 44.0736Z" fill="white"/>
<path d="M159.928 26.3891C158.955 26.3891 158.136 26.7114 157.47 27.3498C156.804 27.9899 156.432 28.8069 156.351 29.8072H163.505C163.439 28.7673 163.079 27.9386 162.427 27.3196C161.773 26.6996 160.94 26.3891 159.928 26.3891ZM163.745 36.5016H171.058C170.712 38.914 169.549 40.8169 167.573 42.2165C165.592 43.6147 163.079 44.3159 160.027 44.3159C156.365 44.3159 153.497 43.2822 151.426 41.2185C149.354 39.1524 148.318 36.295 148.318 32.6446C148.318 28.9825 149.348 26.0807 151.406 23.9432C153.464 21.8041 156.251 20.7362 159.769 20.7362C163.232 20.7362 165.996 21.7608 168.062 23.8128C170.126 25.8639 171.158 28.6081 171.158 32.0441V34.2631H156.231V34.7821C156.231 35.9291 156.597 36.8636 157.331 37.5898C158.063 38.3175 159.003 38.6794 160.148 38.6794C161.013 38.6794 161.767 38.4861 162.407 38.1008C163.045 37.7125 163.493 37.1796 163.745 36.5016Z" fill="white"/>
<path d="M171.711 43.7552V21.2955H179.704V25.6915H179.863C180.69 22.5476 182.442 20.9746 185.118 20.9746C185.838 20.9746 186.484 21.0826 187.057 21.2955V28.1887C186.337 27.8827 185.532 27.7296 184.639 27.7296C183.08 27.7296 181.901 28.1289 181.102 28.928C180.302 29.7281 179.903 30.9125 179.903 32.4853V43.7552H171.711Z" fill="white"/>
<path d="M192.678 23.1781V23.8563H193.161C193.443 23.8563 193.584 23.7491 193.584 23.53C193.584 23.4189 193.549 23.3312 193.477 23.2697C193.405 23.2101 193.304 23.1781 193.175 23.1781H192.678ZM192.678 25.5323H191.687V22.4225H193.401C193.775 22.4225 194.071 22.5156 194.292 22.7029C194.511 22.89 194.622 23.1425 194.622 23.4586C194.622 23.6815 194.567 23.878 194.459 24.0488C194.35 24.222 194.207 24.3409 194.028 24.4108L194.785 25.5323H193.63L193.018 24.5536H192.678V25.5323ZM191.373 25.7412C191.853 26.2204 192.429 26.4588 193.109 26.4588C193.787 26.4588 194.366 26.2204 194.843 25.7412C195.322 25.2636 195.561 24.685 195.561 24.0068C195.561 23.3288 195.322 22.7502 194.843 22.2718C194.366 21.7942 193.787 21.5534 193.109 21.5534C192.429 21.5534 191.853 21.7942 191.373 22.2718C190.896 22.7502 190.655 23.3288 190.655 24.0068C190.655 24.685 190.896 25.2636 191.373 25.7412ZM194.469 27.2341C194.036 27.4228 193.582 27.5168 193.109 27.5168C192.634 27.5168 192.181 27.4228 191.749 27.2341C191.316 27.0476 190.944 26.799 190.63 26.4845C190.317 26.1723 190.067 25.7987 189.88 25.3668C189.693 24.9336 189.6 24.4806 189.6 24.0068C189.6 23.5324 189.693 23.0787 189.88 22.647C190.067 22.2135 190.317 21.8423 190.63 21.5277C190.944 21.2154 191.316 20.9654 191.749 20.7781C192.181 20.591 192.634 20.4978 193.109 20.4978C193.582 20.4978 194.036 20.591 194.469 20.7781C194.901 20.9654 195.274 21.2154 195.587 21.5277C195.901 21.8423 196.149 22.2135 196.336 22.647C196.523 23.0787 196.617 23.5324 196.617 24.0068C196.617 24.4806 196.523 24.9336 196.336 25.3668C196.149 25.7987 195.901 26.1723 195.587 26.4845C195.274 26.799 194.901 27.0476 194.469 27.2341Z" fill="white"/>
<path d="M40.1811 64.7232C40.1811 63.4653 34.1284 62.4456 26.6621 62.4456C19.1959 62.4456 13.1432 63.4653 13.1432 64.7232C13.1432 65.9803 19.1959 67 26.6621 67C34.1284 67 40.1811 65.9803 40.1811 64.7232Z" fill="#0F3B6F"/>
<path d="M16.3636 4.47319C9.91762 4.47319 5.91879 10.4075 4.81438 16.2906C2.31246 29.6152 13.8192 48.5605 22.4703 58.5389C20.9837 50.7708 18.9547 38.7304 24.3378 32.2479C24.7179 31.7911 25.2632 31.5039 25.8545 31.4498C26.448 31.3964 27.0349 31.5791 27.491 31.9592C31.1426 35.0035 32.8632 39.7983 32.6169 46.2281C37.3401 40.9809 47.5911 28.6723 45.7251 16.2087C44.9153 10.7949 41.5538 4.47319 34.7482 4.47319C31.8947 4.47319 29.194 5.60903 27.1416 7.67167C26.7228 8.09414 26.1512 8.33169 25.5563 8.33169C24.9613 8.33169 24.3905 8.09414 23.9709 7.67241C21.9185 5.60903 19.2171 4.47319 16.3636 4.47319ZM23.4015 64.3329C23.4008 64.3329 23.4008 64.3329 23.4008 64.3329C22.2956 64.3329 21.2724 63.8834 20.5188 63.0669C10.8196 52.5586 -2.5379 31.2086 0.417918 15.4647C2.15457 6.21496 8.56251 -8.37249e-06 16.3636 -8.37249e-06C19.7148 -8.37249e-06 22.9118 1.0971 25.5563 3.12393C28.2007 1.0971 31.397 -8.37249e-06 34.7482 -8.37249e-06C42.5676 -8.37249e-06 48.7569 6.24785 50.1493 15.5465C52.4839 31.1421 39.2295 45.6324 34.874 50.3944C34.1175 51.221 33.0847 51.6756 31.9671 51.6756C30.8422 51.6756 29.7678 51.2086 29.0208 50.3929C28.3045 49.6115 27.961 48.5948 28.0531 47.5306C28.428 43.227 27.8747 39.8553 26.4049 37.4623C24.0718 43.2416 25.9071 52.7486 27.0656 58.748L27.2695 59.8107C27.48 60.9129 27.195 62.0371 26.4853 62.8945C25.7412 63.7949 24.5878 64.3329 23.4015 64.3329Z" fill="white"/>
<path d="M53.2521 5.51179V6.32311H53.8295C54.1679 6.32311 54.3375 6.19301 54.3375 5.9328C54.3375 5.79831 54.2936 5.69379 54.2081 5.6207C54.1219 5.54834 54.002 5.51179 53.8456 5.51179H53.2521ZM53.2521 8.32874H52.0658V4.60619H54.1182C54.5655 4.60619 54.9207 4.71803 55.1839 4.94169C55.4463 5.16608 55.5778 5.46721 55.5778 5.84728C55.5778 6.1126 55.5128 6.34796 55.3827 6.55335C55.2526 6.75947 55.0808 6.90346 54.8681 6.98605L55.773 8.32874H54.3915L53.6577 7.15855H53.2521V8.32874ZM51.6915 8.57799C52.2631 9.15102 52.9553 9.43681 53.7673 9.43681C54.5787 9.43681 55.2708 9.15102 55.8424 8.57799C56.4155 8.00641 56.702 7.31423 56.702 6.50292C56.702 5.69087 56.4155 4.99943 55.8424 4.42712C55.2708 3.85481 54.5787 3.56903 53.7673 3.56903C52.9553 3.56903 52.2631 3.85481 51.6915 4.42712C51.1192 4.99943 50.8335 5.69087 50.8335 6.50292C50.8335 7.31423 51.1192 8.00641 51.6915 8.57799ZM55.3944 10.3658C54.8762 10.5895 54.3345 10.7013 53.7673 10.7013C53.2001 10.7013 52.6578 10.5895 52.1396 10.3658C51.6228 10.1421 51.177 9.84319 50.8013 9.46823C50.4271 9.09401 50.1281 8.64742 49.9045 8.12993C49.6808 7.61172 49.569 7.07011 49.569 6.50292C49.569 5.93573 49.6808 5.39339 49.9045 4.8759C50.1281 4.35841 50.4271 3.91182 50.8013 3.53759C51.177 3.16263 51.6228 2.8637 52.1396 2.64004C52.6578 2.41638 53.2001 2.30454 53.7673 2.30454C54.3345 2.30454 54.8762 2.41638 55.3944 2.64004C55.9119 2.8637 56.3585 3.16263 56.7327 3.53759C57.1069 3.91182 57.4066 4.35841 57.6302 4.8759C57.8539 5.39339 57.9657 5.93573 57.9657 6.50292C57.9657 7.07011 57.8539 7.61172 57.6302 8.12993C57.4066 8.64742 57.1069 9.09401 56.7327 9.46823C56.3585 9.84319 55.9119 10.1421 55.3944 10.3658Z" fill="white"/>
</svg>
