<svg width="170" height="179" viewBox="0 0 170 179" fill="none" xmlns="http://www.w3.org/2000/svg">
<g filter="url(#filter0_d)">
<path fill-rule="evenodd" clip-rule="evenodd" d="M84.6087 48C66.5994 48 52 62.5994 52 80.6087C52 96.3852 63.2037 109.545 78.0888 112.565C78.1258 112.987 78.2554 113.413 78.4919 113.818L82.4097 120.523C83.5678 122.505 86.4322 122.505 87.5903 120.523L91.5081 113.818C91.7446 113.413 91.8742 112.987 91.9112 112.565C106.796 109.545 118 96.3852 118 80.6087C118 62.5994 103.401 48 85.3913 48H84.6087Z" fill="#1B65B9"/>
<path d="M78.0888 112.565L80.0812 112.391L79.9506 110.903L78.4866 110.605L78.0888 112.565ZM78.4919 113.818L80.2187 112.809L80.2187 112.809L78.4919 113.818ZM82.4097 120.523L80.6829 121.532L82.4097 120.523ZM87.5903 120.523L85.8634 119.514H85.8634L87.5903 120.523ZM91.5081 113.818L93.235 114.827L93.235 114.827L91.5081 113.818ZM91.9112 112.565L91.5134 110.605L90.0494 110.903L89.9188 112.391L91.9112 112.565ZM54 80.6087C54 63.704 67.704 50 84.6087 50V46C65.4948 46 50 61.4948 50 80.6087H54ZM78.4866 110.605C64.5153 107.77 54 95.4152 54 80.6087H50C50 97.3551 61.8922 111.319 77.6911 114.526L78.4866 110.605ZM80.2187 112.809C80.1324 112.661 80.0926 112.52 80.0812 112.391L76.0965 112.74C76.1591 113.454 76.3784 114.165 76.765 114.827L80.2187 112.809ZM84.1366 119.514L80.2187 112.809L76.765 114.827L80.6829 121.532L84.1366 119.514ZM85.8634 119.514C85.4774 120.175 84.5226 120.175 84.1366 119.514L80.6829 121.532C82.613 124.836 87.387 124.836 89.3171 121.532L85.8634 119.514ZM89.7813 112.809L85.8634 119.514L89.3171 121.532L93.235 114.827L89.7813 112.809ZM89.9188 112.391C89.9074 112.52 89.8676 112.661 89.7813 112.809L93.235 114.827C93.6216 114.165 93.8409 113.454 93.9035 112.74L89.9188 112.391ZM116 80.6087C116 95.4152 105.485 107.77 91.5134 110.605L92.3089 114.526C108.108 111.319 120 97.3551 120 80.6087H116ZM85.3913 50C102.296 50 116 63.704 116 80.6087H120C120 61.4948 104.505 46 85.3913 46V50ZM84.6087 50H85.3913V46H84.6087V50Z" fill="white"/>
<path d="M95.0199 105.211C95.0199 104.39 91.0251 103.725 86.0973 103.725C81.1696 103.725 77.1748 104.39 77.1748 105.211C77.1748 106.031 81.1696 106.696 86.0973 106.696C91.0251 106.696 95.0199 106.031 95.0199 105.211Z" fill="#0F3B6F"/>
<path d="M79.2999 65.9173C75.0456 65.9173 72.4064 69.7875 71.6775 73.6243C70.0262 82.3143 77.6207 94.6699 83.3304 101.178C82.3492 96.1114 81.0101 88.259 84.563 84.0313C84.8138 83.7333 85.1737 83.546 85.564 83.5107C85.9557 83.4759 86.343 83.5951 86.6441 83.843C89.0541 85.8284 90.1897 88.9554 90.0272 93.1488C93.1445 89.7267 99.9102 81.6993 98.6786 73.5709C98.1441 70.0401 95.9255 65.9173 91.4338 65.9173C89.5505 65.9173 87.7681 66.6581 86.4135 68.0033C86.1371 68.2788 85.7598 68.4337 85.3671 68.4337C84.9745 68.4337 84.5977 68.2788 84.3208 68.0037C82.9662 66.6581 81.1833 65.9173 79.2999 65.9173ZM83.945 104.956C83.9445 104.956 83.9445 104.956 83.9445 104.956C83.2151 104.956 82.5398 104.663 82.0424 104.131C75.6409 97.2773 66.825 83.3534 68.7758 73.0857C69.922 67.0532 74.1513 63 79.2999 63C81.5118 63 83.6218 63.7155 85.3671 65.0373C87.1125 63.7155 89.222 63 91.4338 63C96.5946 63 100.68 67.0747 101.599 73.1391C103.139 83.31 94.3915 92.7603 91.5168 95.8659C91.0175 96.405 90.3359 96.7015 89.5983 96.7015C88.8559 96.7015 88.1467 96.3969 87.6537 95.8649C87.181 95.3554 86.9542 94.6923 87.015 93.9982C87.2625 91.1915 86.8973 88.9926 85.9272 87.4319C84.3874 91.2011 85.5987 97.4013 86.3633 101.314L86.4979 102.007C86.6368 102.726 86.4487 103.459 85.9803 104.018C85.4892 104.605 84.728 104.956 83.945 104.956Z" fill="white"/>
<path d="M103.647 66.5946V67.1238H104.028C104.251 67.1238 104.363 67.0389 104.363 66.8692C104.363 66.7815 104.334 66.7133 104.278 66.6657C104.221 66.6185 104.142 66.5946 104.038 66.5946H103.647ZM103.647 68.4318H102.864V66.004H104.218C104.514 66.004 104.748 66.077 104.922 66.2228C105.095 66.3692 105.182 66.5656 105.182 66.8134C105.182 66.9865 105.139 67.14 105.053 67.2739C104.967 67.4083 104.854 67.5023 104.713 67.5561L105.31 68.4318H104.399L103.914 67.6686H103.647V68.4318ZM102.617 68.5943C102.994 68.9681 103.451 69.1544 103.987 69.1544C104.522 69.1544 104.979 68.9681 105.356 68.5943C105.734 68.2216 105.924 67.7701 105.924 67.241C105.924 66.7114 105.734 66.2605 105.356 65.8872C104.979 65.514 104.522 65.3276 103.987 65.3276C103.451 65.3276 102.994 65.514 102.617 65.8872C102.239 66.2605 102.05 66.7114 102.05 67.241C102.05 67.7701 102.239 68.2216 102.617 68.5943ZM105.061 69.7603C104.719 69.9062 104.361 69.9791 103.987 69.9791C103.612 69.9791 103.254 69.9062 102.912 69.7603C102.571 69.6144 102.277 69.4195 102.029 69.1749C101.782 68.9309 101.585 68.6396 101.437 68.3021C101.29 67.9642 101.216 67.6109 101.216 67.241C101.216 66.8711 101.29 66.5174 101.437 66.1799C101.585 65.8424 101.782 65.5512 102.029 65.3071C102.277 65.0626 102.571 64.8676 102.912 64.7218C103.254 64.5759 103.612 64.503 103.987 64.503C104.361 64.503 104.719 64.5759 105.061 64.7218C105.402 64.8676 105.697 65.0626 105.944 65.3071C106.191 65.5512 106.389 65.8424 106.536 66.1799C106.684 66.5174 106.758 66.8711 106.758 67.241C106.758 67.6109 106.684 67.9642 106.536 68.3021C106.389 68.6396 106.191 68.9309 105.944 69.1749C105.697 69.4195 105.402 69.6144 105.061 69.7603Z" fill="white"/>
</g>
<defs>
<filter id="filter0_d" x="0" y="0" width="170" height="178.01" filterUnits="userSpaceOnUse" color-interpolation-filters="sRGB">
<feFlood flood-opacity="0" result="BackgroundImageFix"/>
<feColorMatrix in="SourceAlpha" type="matrix" values="0 0 0 0 0 0 0 0 0 0 0 0 0 0 0 0 0 0 127 0"/>
<feOffset dy="4"/>
<feGaussianBlur stdDeviation="25"/>
<feColorMatrix type="matrix" values="0 0 0 0 0 0 0 0 0 0 0 0 0 0 0 0 0 0 0.2 0"/>
<feBlend mode="normal" in2="BackgroundImageFix" result="effect1_dropShadow"/>
<feBlend mode="normal" in="SourceGraphic" in2="effect1_dropShadow" result="shape"/>
</filter>
</defs>
</svg>
