<svg viewBox="0 0 80 17" fill="none" xmlns="http://www.w3.org/2000/svg">
<path d="M78.6666 6.24708L73.8733 5.83374L72 1.42041L70.1266 5.84041L65.3333 6.24708L68.9733 9.40041L67.88 14.0871L72 11.6004L76.12 14.0871L75.0333 9.40041L78.6666 6.24708ZM72 10.3537L69.4933 11.8671L70.16 9.01374L67.9466 7.09374L70.8666 6.84041L72 4.15374L73.14 6.84708L76.06 7.10041L73.8466 9.02041L74.5133 11.8737L72 10.3537Z" fill="#8296A5"/>
<path d="M7.99998 11.6004L12.12 14.0871L11.0266 9.40041L14.6666 6.24708L9.87331 5.84041L7.99998 1.42041L6.12665 5.84041L1.33331 6.24708L4.97331 9.40041L3.87998 14.0871L7.99998 11.6004Z" fill="#F2C94C"/>
<path d="M24 11.6004L28.12 14.0871L27.0266 9.40041L30.6666 6.24708L25.8733 5.84041L24 1.42041L22.1266 5.84041L17.3333 6.24708L20.9733 9.40041L19.88 14.0871L24 11.6004Z" fill="#F2C94C"/>
<path d="M40 11.6004L44.12 14.0871L43.0266 9.40041L46.6666 6.24708L41.8733 5.84041L40 1.42041L38.1266 5.84041L33.3333 6.24708L36.9733 9.40041L35.88 14.0871L40 11.6004Z" fill="#F2C94C"/>
<path d="M56 11.6004L60.12 14.0871L59.0266 9.40041L62.6666 6.24708L57.8733 5.84041L56 1.42041L54.1266 5.84041L49.3333 6.24708L52.9733 9.40041L51.88 14.0871L56 11.6004Z" fill="#F2C94C"/>
</svg>
