<svg width="32" height="18" viewBox="0 0 32 18" fill="none" xmlns="http://www.w3.org/2000/svg">
<path d="M10.6667 7.33329H6.66667V3.33329H4V7.33329H0V9.99996H4V14H6.66667V9.99996H10.6667V7.33329ZM24 8.66663C26.2133 8.66663 27.9867 6.87996 27.9867 4.66663C27.9867 2.45329 26.2133 0.666626 24 0.666626C23.5733 0.666626 23.16 0.733292 22.7867 0.853292C23.5467 1.93329 23.9867 3.23996 23.9867 4.66663C23.9867 6.09329 23.5333 7.38663 22.7867 8.47996C23.16 8.59996 23.5733 8.66663 24 8.66663ZM17.3333 8.66663C19.5467 8.66663 21.32 6.87996 21.32 4.66663C21.32 2.45329 19.5467 0.666626 17.3333 0.666626C15.12 0.666626 13.3333 2.45329 13.3333 4.66663C13.3333 6.87996 15.12 8.66663 17.3333 8.66663ZM26.16 11.5466C27.2667 12.52 28 13.76 28 15.3333V18H32V15.3333C32 13.28 28.84 12.0133 26.16 11.5466ZM17.3333 11.3333C14.6667 11.3333 9.33333 12.6666 9.33333 15.3333V18H25.3333V15.3333C25.3333 12.6666 20 11.3333 17.3333 11.3333Z" fill="white"/>
</svg>
