<svg viewBox="0 0 16 20" fill="none" xmlns="http://www.w3.org/2000/svg">
  <path d="M5.087 1.39c-2.004 0-3.247 1.846-3.59 3.675-.778 4.142 2.8 10.032 5.489 13.134-.462-2.415-1.093-6.158.58-8.174a.696.696 0 01.98-.09c1.136.947 1.67 2.438 1.594 4.437 1.468-1.632 4.655-5.458 4.075-9.333-.251-1.683-1.296-3.648-3.412-3.648-.887 0-1.727.353-2.365.994a.695.695 0 01-.986 0 3.319 3.319 0 00-2.365-.994zM7.275 20c-.344 0-.662-.14-.896-.393C3.364 16.34-.789 9.702.129 4.807.67 1.933 2.663 0 5.088 0 6.13 0 7.123.341 7.945.971A4.677 4.677 0 0110.803 0c2.43 0 4.355 1.942 4.788 4.833.726 4.849-3.395 9.354-4.75 10.834a1.212 1.212 0 01-.903.398c-.35 0-.684-.145-.916-.399a1.155 1.155 0 01-.3-.89c.116-1.337-.056-2.385-.513-3.13-.725 1.797-.155 4.753.205 6.618l.064.33c.065.343-.023.692-.244.959-.231.28-.59.447-.959.447z" fill="#1B65B9"/>
</svg>