<svg viewBox="0 0 1115 765" fill="none" xmlns="http://www.w3.org/2000/svg">
  <g opacity=".61" fill="#fff">
    <path opacity=".61" d="M80.211 542.54l-8.1 14.747 1.3.715 8.1-14.748-1.3-.714zM71.362 558.551l-8.097 14.747 1.3.715 8.097-14.748-1.3-.714zM45.058 609.508l1.158-2.098-.796-.435c-.108.833-.253 1.701-.362 2.533zM89.014 526.471l-8.1 14.748 1.3.714 8.1-14.747-1.3-.715zM93.133 521.981c-1.085.904-2.134 1.845-3.22 2.75l-.216.398 1.302.723 2.134-3.871zM45.673 605.42l1.266.687 8.103-14.763-1.302-.723-8.067 14.69v.109zM62.537 574.601l-8.099 14.745 1.3.715 8.1-14.746-1.3-.714zM60.988 615.536l-8.1 14.747 1.3.714 8.1-14.747-1.3-.714zM123.953 503.889l-1.266-.687c-.036 0-.036.036-.072.036l-8.067 14.69 1.302.724 8.103-14.763zM113.807 519.232l-8.099 14.746 1.3.714 8.099-14.746-1.3-.714zM124.894 502.189l-.543.217.326.181.217-.398zM78.621 583.43l-8.099 14.748 1.3.714 8.1-14.747-1.3-.715zM69.818 599.502l-8.1 14.747 1.3.715 8.1-14.748-1.3-.714zM105.058 535.323l-8.099 14.747 1.3.714 8.099-14.747-1.3-.714zM45.058 644.498c.109.832.218 1.628.326 2.46l8.067-14.654-1.303-.724-7.09 12.918zM96.241 551.342l-8.099 14.747 1.3.714 8.1-14.747-1.3-.714zM87.438 567.414l-8.1 14.747 1.3.715 8.1-14.748-1.3-.714zM129.926 528.054l-8.099 14.747 1.3.714 8.099-14.747-1.3-.714zM85.834 608.319l-8.1 14.747 1.3.714 8.1-14.747-1.3-.714zM103.503 576.216l-8.1 14.747 1.3.714 8.1-14.747-1.3-.714zM112.287 560.184l-8.099 14.748 1.3.714 8.099-14.747-1.3-.715zM138.743 512.038l-8.099 14.748 1.3.714 8.099-14.747-1.3-.715zM147.518 495.92l-8.097 14.747 1.3.714 8.097-14.747-1.3-.714zM77.048 624.36l-8.1 14.747 1.3.714 8.1-14.747-1.3-.714zM59.397 656.417L51.3 671.165l1.3.714 8.097-14.747-1.3-.715zM94.668 592.267l-8.099 14.748 1.3.714 8.1-14.747-1.3-.715zM150.469 493.685c-.652.145-1.303.29-1.918.435l-.289.542 1.302.724.905-1.701zM68.15 640.395l-8.1 14.745 1.3.715 8.1-14.746-1.3-.714zM121.123 544.126l-8.099 14.747 1.3.714 8.099-14.747-1.3-.714zM173.113 490.465l-1.736.109-7.09 12.917 1.302.724 7.524-13.75zM154.776 520.827l-8.099 14.747 1.3.714 8.099-14.747-1.3-.714zM163.593 504.806l-8.099 14.748 1.3.714 8.099-14.748-1.3-.714zM119.519 585.035l-8.1 14.748 1.3.714 8.099-14.748-1.299-.714zM60.504 692.404c.29.507.58 1.013.832 1.52l6.548-11.94-1.302-.724-6.078 11.144zM93.096 633.194l-8.1 14.747 1.3.714 8.1-14.747-1.3-.714zM145.973 536.895l-8.099 14.747 1.3.715 8.099-14.748-1.3-.714zM101.899 617.125l-8.1 14.747 1.3.714 8.099-14.747-1.299-.714zM128.353 568.983l-8.099 14.747 1.3.715 8.099-14.748-1.3-.714zM75.476 665.282l-8.1 14.748 1.3.714 8.1-14.747-1.3-.715zM137.138 552.947l-8.099 14.747 1.3.714 8.099-14.747-1.3-.714zM110.734 601.071l-8.1 14.747 1.3.714 8.099-14.747-1.299-.714zM84.279 649.213l-8.1 14.747 1.3.714 8.1-14.747-1.3-.714zM144.368 577.806l-8.099 14.747 1.3.715 8.099-14.748-1.3-.714zM179.626 513.6l-8.1 14.747 1.3.714 8.1-14.747-1.3-.714zM188.411 497.558l-8.098 14.747 1.3.714 8.098-14.747-1.3-.714zM109.129 641.981l-8.099 14.747 1.299.714 8.1-14.747-1.3-.714zM153.203 561.752l-8.099 14.747 1.3.715 8.099-14.748-1.3-.714zM91.508 674.073l-8.1 14.747 1.3.714 8.1-14.747-1.3-.714zM71.79 709.917c.326.434.652.868.977 1.266l2.388-4.342-1.303-.723-2.062 3.799zM82.71 690.122l-8.099 14.747 1.3.714 8.1-14.747-1.3-.714zM193.768 490.827c-.542-.036-1.085-.109-1.591-.145l-3.039 5.536 1.302.724 3.328-6.115zM170.794 529.609l-8.098 14.748 1.3.714 8.097-14.748-1.299-.714zM135.582 593.844l-8.099 14.747 1.3.715 8.099-14.748-1.3-.714zM162.006 545.686l-8.099 14.747 1.3.714 8.099-14.747-1.3-.714zM126.748 609.895l-8.099 14.747 1.3.715 8.099-14.748-1.3-.714zM100.326 658.05l-8.1 14.748 1.3.714 8.1-14.747-1.3-.715zM117.946 625.962l-8.1 14.747 1.3.714 8.1-14.747-1.3-.714zM204.476 506.365l-8.099 14.747 1.3.714 8.099-14.747-1.3-.714zM178.054 554.515l-8.1 14.747 1.3.715 8.1-14.748-1.3-.714zM195.641 522.379l-8.097 14.747 1.3.714 8.097-14.747-1.3-.714zM186.856 538.457l-8.099 14.748 1.299.714 8.1-14.747-1.3-.715zM125.175 650.821l-8.099 14.747 1.3.714 8.099-14.747-1.3-.714zM133.979 634.747l-8.099 14.748 1.3.714 8.099-14.747-1.3-.715zM212.904 494.047c-.506-.108-.977-.253-1.483-.362l-6.258 11.362 1.302.724 6.439-11.724zM107.555 682.911l-8.1 14.747 1.301.714 8.099-14.747-1.3-.714zM142.813 618.698l-8.099 14.747 1.3.715 8.099-14.748-1.3-.714zM151.598 602.665l-8.099 14.748 1.3.714 8.099-14.747-1.3-.715zM169.219 570.571l-8.099 14.748 1.3.714 8.099-14.748-1.3-.714zM84.632 724.571c.362.362.724.724 1.086 1.05l5.462-9.951-1.302-.724-5.246 9.625zM98.72 698.962l-8.099 14.747 1.3.715 8.099-14.748-1.3-.714zM160.433 586.611l-8.099 14.747 1.3.714 8.099-14.747-1.3-.714zM116.358 666.841l-8.099 14.747 1.3.714 8.099-14.747-1.3-.714zM132.405 675.68l-8.099 14.747 1.299.715 8.1-14.748-1.3-.714zM114.787 707.757l-8.099 14.747 1.3.715 8.099-14.748-1.3-.714zM123.588 691.698l-8.099 14.748 1.3.714 8.099-14.747-1.3-.715zM230.593 499.837l-1.266-.688-8.103 14.763 1.303.724 8.066-14.799zM150.027 643.583l-8.1 14.747 1.3.715 8.099-14.748-1.299-.714zM176.448 595.434l-8.099 14.747 1.3.715 8.099-14.748-1.3-.714zM194.101 563.354l-8.1 14.747 1.3.715 8.099-14.748-1.299-.714zM158.83 627.512l-8.1 14.747 1.3.714 8.099-14.747-1.299-.714zM202.903 547.288l-8.099 14.748 1.3.714 8.099-14.747-1.3-.715zM167.663 611.468l-8.099 14.748 1.3.714 8.099-14.748-1.3-.714zM185.283 579.377l-8.099 14.747 1.3.715 8.099-14.748-1.3-.714zM141.209 659.606l-8.1 14.748 1.3.714 8.1-14.747-1.3-.715zM211.738 531.236l-8.099 14.747 1.3.715 8.099-14.748-1.3-.714zM220.523 515.2l-8.099 14.747 1.3.714 8.099-14.747-1.3-.714zM98.812 736.729c.398.289.796.615 1.194.904l7.235-13.134-1.302-.724-7.127 12.954zM236.588 524.003l-8.099 14.747 1.3.715 8.099-14.748-1.3-.714zM218.968 556.099l-8.099 14.747 1.3.715 8.099-14.748-1.3-.714zM210.133 572.147l-8.099 14.748 1.3.714 8.099-14.747-1.3-.715zM166.09 652.395l-8.099 14.747 1.3.714 8.099-14.747-1.3-.714zM157.257 668.436l-8.099 14.748 1.3.714 8.099-14.748-1.3-.714zM130.833 716.6l-8.099 14.747 1.3.715 8.099-14.748-1.3-.714zM174.893 636.325l-8.099 14.747 1.3.715 8.099-14.748-1.3-.714zM139.637 700.53l-8.1 14.747 1.3.714 8.099-14.747-1.299-.714zM201.331 588.208l-8.099 14.748 1.3.714 8.099-14.747-1.3-.715zM245.373 507.966l-8.099 14.748 1.3.714 8.099-14.747-1.3-.715zM183.71 620.303l-8.099 14.747 1.3.714 8.099-14.747-1.3-.714zM114.222 746.715c.254.145.471.254.724.398.181.109.398.218.579.326l7.741-14.111-1.302-.724-7.742 14.111zM148.471 684.48l-8.1 14.748 1.3.714 8.1-14.747-1.3-.715zM192.513 604.233l-8.099 14.747 1.3.715 8.099-14.748-1.3-.714zM227.753 540.056l-8.099 14.747 1.3.714 8.099-14.747-1.3-.714zM234.984 564.915l-8.1 14.748 1.3.714 8.099-14.747-1.299-.715zM261.401 516.724l-8.098 14.747 1.3.714 8.098-14.747-1.3-.714zM199.743 629.097l-8.099 14.748 1.3.714 8.099-14.747-1.3-.715zM190.941 645.159l-8.099 14.747 1.3.714 8.099-14.747-1.3-.714zM208.56 613.073l-8.099 14.747 1.3.715 8.099-14.748-1.3-.714zM130.79 754.567l1.411.543 7.126-12.99-1.302-.724-7.235 13.171zM217.363 596.998l-8.099 14.748 1.3.714 8.099-14.747-1.3-.715zM182.106 661.21l-8.099 14.748 1.3.714 8.099-14.747-1.3-.715zM243.818 548.866l-8.099 14.747 1.3.714 8.099-14.747-1.3-.714zM146.866 725.392l-8.1 14.747 1.3.715 8.1-14.748-1.3-.714zM173.321 677.246l-8.099 14.748 1.3.714 8.099-14.747-1.3-.715zM155.701 709.336l-8.099 14.747 1.3.715 8.099-14.748-1.3-.714zM252.604 532.825l-8.1 14.747 1.3.714 8.099-14.747-1.299-.714zM226.18 580.984l-8.099 14.747 1.3.714 8.099-14.747-1.3-.714zM164.486 693.302l-8.099 14.748 1.299.714 8.1-14.747-1.3-.715zM215.79 637.933l-8.099 14.747 1.3.714 8.099-14.747-1.3-.714zM259.833 557.682l-8.099 14.747 1.3.715 8.099-14.748-1.3-.714zM171.715 718.165l-8.099 14.747 1.3.714 8.099-14.747-1.3-.714zM268.668 541.632l-8.099 14.748 1.3.714 8.099-14.747-1.3-.715zM206.974 653.947l-8.099 14.747 1.3.715 8.099-14.748-1.3-.714zM148.588 760.212c.506.108.976.253 1.483.362l5.281-9.625-1.302-.724-5.462 9.987zM162.913 734.228l-8.099 14.747 1.3.715 8.099-14.748-1.3-.714zM198.171 670.018l-8.1 14.748 1.3.714 8.099-14.747-1.299-.715zM224.593 621.864l-8.099 14.748 1.3.714 8.099-14.747-1.3-.715zM189.336 686.071l-8.099 14.747 1.3.715 8.099-14.748-1.3-.714zM251.048 573.72l-8.099 14.747 1.3.714 8.099-14.747-1.3-.714zM180.55 702.112l-8.099 14.747 1.3.715 8.099-14.747-1.3-.715zM242.214 589.767l-8.1 14.748 1.3.714 8.1-14.747-1.3-.715zM233.411 605.837l-8.099 14.747 1.3.714 8.099-14.747-1.3-.714zM276.896 529.615c-.362-.361-.724-.723-1.086-1.049l-6.475 11.76 1.303.723 6.258-11.434zM267.064 582.541l-8.1 14.747 1.3.715 8.1-14.748-1.3-.714zM275.898 566.486l-8.099 14.747 1.3.715 8.099-14.748-1.3-.714zM289.773 544.233a38.75 38.75 0 00-.976-1.266l-3.401 6.187 1.303.724 3.074-5.645zM196.566 710.925l-8.099 14.747 1.3.714 8.099-14.747-1.3-.714zM205.401 694.872l-8.099 14.747 1.3.715 8.099-14.748-1.3-.714zM231.824 646.715l-8.099 14.747 1.3.715 8.099-14.748-1.3-.714zM167.687 763.432c.543.036 1.085.109 1.592.145l2.098-3.836-1.303-.723-2.387 4.414zM249.444 614.629l-8.099 14.748 1.3.714 8.099-14.747-1.3-.715zM187.781 726.962l-8.099 14.747 1.3.714 8.099-14.747-1.3-.714zM240.641 630.696l-8.099 14.747 1.3.715 8.099-14.748-1.3-.714zM284.715 550.449l-8.1 14.748 1.3.714 8.099-14.747-1.299-.715zM214.186 678.836l-8.099 14.747 1.3.714 8.099-14.747-1.3-.714zM178.911 742.966l-8.098 14.748 1.3.714 8.097-14.748-1.299-.714zM223.021 662.783l-8.099 14.748 1.3.714 8.099-14.747-1.3-.715zM258.261 598.609l-8.099 14.747 1.3.714 8.099-14.747-1.3-.714zM247.871 655.557l-8.1 14.747 1.3.715 8.1-14.748-1.3-.714zM256.705 639.501l-8.099 14.748 1.3.714 8.099-14.747-1.3-.715zM274.326 607.412l-8.1 14.747 1.3.714 8.1-14.747-1.3-.714zM239.068 671.622l-8.099 14.747 1.3.714 8.099-14.747-1.3-.714zM265.491 623.46l-8.099 14.748 1.3.714 8.099-14.747-1.3-.715zM203.828 735.801l-8.099 14.748 1.3.714 8.099-14.748-1.3-.714zM221.449 703.703l-8.099 14.747 1.3.714 8.099-14.747-1.3-.714zM188.379 763.83l1.736-.108 6.149-11.217-1.302-.724-6.583 12.049zM212.631 719.728l-8.099 14.747 1.3.715 8.099-14.748-1.3-.714zM301.06 561.71a30.393 30.393 0 01-.832-1.52l-7.597 13.822 1.303.724 7.126-13.026zM230.251 687.643l-8.1 14.748 1.3.714 8.1-14.747-1.3-.715zM291.946 575.323l-8.1 14.747 1.3.715 8.099-14.748-1.299-.714zM283.129 591.345l-8.1 14.748 1.3.714 8.1-14.747-1.3-.715zM246.298 696.479l-8.099 14.747 1.3.714 8.099-14.747-1.3-.714zM263.935 664.365l-8.099 14.747 1.3.714 8.099-14.747-1.3-.714zM272.721 648.323l-8.099 14.748 1.3.714 8.099-14.747-1.3-.715zM255.101 680.415l-8.1 14.748 1.3.714 8.1-14.747-1.3-.715zM307.939 584.094l-8.098 14.747 1.3.714 8.098-14.747-1.3-.714zM299.176 600.181l-8.099 14.747 1.299.714 8.1-14.747-1.3-.714zM228.678 728.566l-8.099 14.747 1.3.714 8.099-14.747-1.3-.714zM281.555 632.265l-8.099 14.747 1.3.715 8.099-14.748-1.3-.714zM237.481 712.496l-8.099 14.748 1.3.714 8.099-14.747-1.3-.715zM290.341 616.235l-8.099 14.747 1.3.714 8.099-14.747-1.3-.714zM310.32 582.877c-.217-.615-.434-1.23-.651-1.881l-1.013 1.809 1.302.724.362-.652zM219.782 744.585l-8.099 14.745 1.3.715 8.099-14.746-1.3-.714zM315.208 608.949l-8.099 14.747 1.3.714 8.099-14.747-1.3-.714zM236.562 752.107l.072.036c.724-.326 1.447-.651 2.134-.977l7.199-13.098-1.302-.724-8.103 14.763zM253.531 721.304l-8.099 14.747 1.3.714 8.099-14.747-1.3-.714zM262.331 705.269l-8.099 14.747 1.3.715 8.099-14.748-1.3-.714zM271.148 689.246l-8.099 14.747 1.3.714 8.099-14.747-1.3-.714zM288.786 657.124l-8.1 14.748 1.3.714 8.1-14.747-1.3-.715zM279.951 673.18l-8.099 14.747 1.3.714 8.099-14.747-1.3-.714zM316.18 607.12l-.326.58.435.253c0-.326-.036-.579-.109-.833zM306.364 624.976l-8.098 14.747 1.3.714 8.098-14.747-1.3-.714zM297.571 641.088l-8.099 14.747 1.3.715 8.099-14.748-1.3-.714zM316.035 648.514c.217-1.375.435-2.786.579-4.161l-2.315 4.233 1.302.724.434-.796zM313.594 649.873l-8.098 14.747 1.3.715 8.098-14.748-1.3-.714zM278.336 714.078l-8.097 14.748 1.299.714 8.098-14.748-1.3-.714zM268.177 732.532c.76-.616 1.52-1.267 2.28-1.918l-.941-.507-1.339 2.425zM287.181 698.029l-8.099 14.747 1.3.714 8.099-14.747-1.3-.714zM296.016 681.962l-8.099 14.747 1.3.715 8.099-14.748-1.3-.714zM304.801 665.94l-8.099 14.747 1.3.715 8.099-14.748-1.3-.714z"/>
    <path opacity=".61" d="M156.075 749.646l-1.302-.723-14.759-8.105-1.302-.724-14.759-8.105-1.302-.724-14.759-8.105-1.302-.724-14.76-8.105-1.302-.723-14.686-8.033-1.302-.724-10.02-5.5 1.627 2.606 7.67 4.233 1.302.724 14.758 8.105 1.303.724 14.759 8.105 1.302.723L122 732.676l1.302.724 14.759 8.105 1.302.724 14.759 8.105 1.302.723 14.759 8.106 1.302.723 7.814 4.306h3.075l-10.165-5.572-1.302-.724-14.832-8.25zM196.988 751.238l-1.303-.723-14.758-8.105-1.303-.724-14.759-8.105-1.302-.724-14.759-8.105-1.302-.724-14.759-8.105-1.302-.723-14.759-8.105-1.302-.724-14.759-8.105-1.302-.724-14.76-8.105-1.302-.723-14.758-8.106-1.303-.723-14.758-8.105-1.303-.724-.072-.036c.253.687.47 1.411.723 2.099l14.65 8.068 1.303.724 14.759 8.105 1.302.724 14.759 8.105 1.302.724 14.759 8.105 1.302.723 14.759 8.105 1.303.724 14.758 8.105 1.303.724 14.759 8.105 1.302.723 14.759 8.106 1.302.723 14.759 8.105 1.302.724 14.759 8.105.036.036c.724-.181 1.447-.325 2.171-.506l-.181-.109-1.303-.724-14.722-8.105zM221.839 744.002l-1.302-.724-14.759-8.105-1.302-.724-14.759-8.105-1.302-.724-14.759-8.105-1.302-.723-14.759-8.105-1.302-.724-14.759-8.105-1.303-.724-14.758-8.105-1.303-.723-14.759-8.105-1.302-.724-14.759-8.105-1.302-.724-14.759-8.105-1.302-.723-14.759-8.106-1.302-.723-14.687-8.069c.109.615.181 1.23.29 1.845l13.673 7.526 1.303.724 14.758 8.105 1.303.724 14.759 8.105 1.302.723 14.759 8.106 1.302.723 14.759 8.105 1.302.724 14.759 8.105 1.302.724 14.759 8.105 1.302.723 14.759 8.105 1.302.724 14.759 8.105 1.303.724 14.758 8.105 1.303.723 14.759 8.106 1.302.723 13.818 7.599c.579-.254 1.122-.507 1.7-.76l-.072-.036-14.723-8.105zM230.629 727.936l-1.302-.723-14.759-8.105-1.302-.724-14.759-8.105-1.302-.724-14.759-8.105-1.302-.723-14.759-8.106-1.302-.723-14.759-8.105-1.303-.724-14.758-8.105-1.303-.724-14.759-8.105-1.302-.723-14.759-8.105-1.302-.724-14.759-8.105-1.302-.724-14.759-8.105-1.302-.724-14.759-8.105-1.302-.723-8.899-4.885v1.664l8.211 4.523 1.303.724 14.758 8.105 1.303.724 14.759 8.105 1.302.723 14.759 8.105 1.302.724 14.759 8.105 1.302.724 14.759 8.105 1.302.724 14.759 8.105 1.302.723 14.832 8.178 1.302.723 14.759 8.105 1.302.724 14.759 8.105 1.302.724 14.759 8.105 1.302.724 14.759 8.105 1.302.723 14.759 8.105 1.303.724 8.356 4.595c.47-.289.94-.615 1.41-.904l-9.043-4.957-1.302-.724-14.868-8.214zM255.481 720.7l-1.302-.724-14.759-8.105-1.303-.724-14.758-8.105-1.303-.723-14.759-8.105-1.302-.724-14.759-8.105-1.302-.724-14.759-8.105-1.302-.724-14.759-8.105-1.302-.723-14.759-8.105-1.302-.724-14.759-8.105-1.302-.724-14.759-8.105-1.303-.724-14.758-8.105-1.303-.723-14.759-8.105-1.302-.724-14.759-8.105-1.302-.724-14.759-8.105-1.266-.687c-.072.506-.18 1.049-.253 1.556l.796.434 14.759 8.105 1.302.723 14.759 8.106 1.302.723 14.759 8.105 1.302.724 14.759 8.105 1.302.724 14.759 8.105 1.302.723 14.759 8.105 1.302.724 14.759 8.105 1.303.724 14.758 8.105 1.303.724 14.759 8.105 1.302.723 14.759 8.105 1.302.724 14.759 8.105 1.302.724 14.759 8.105 1.302.724 14.759 8.105 1.302.723 14.759 8.105.941.507c.398-.326.796-.688 1.193-1.049l-.108-.073-1.302-.723-14.759-8.069zM69.801 599.485l1.302.724 14.76 8.105 1.301.724 14.759 8.105 1.303.724 14.758 8.105 1.303.723 14.759 8.105 1.302.724 14.759 8.105 1.302.724 14.759 8.105 1.302.724 14.759 8.105 1.302.723 14.759 8.105 1.302.724 14.759 8.105 1.302.724 14.759 8.105 1.303.723 14.758 8.106 1.303.723 14.759 8.105 1.302.724 14.759 8.105 1.302.724 4.305 2.388c.325-.398.651-.76.976-1.158l-4.594-2.533-1.302-.724-14.759-8.105-1.302-.723-14.759-8.105-1.302-.724-14.759-8.105-1.302-.724-14.759-8.105-1.303-.724-14.758-8.105-1.303-.723-14.759-8.105-1.302-.724-14.759-8.105-1.302-.724-14.759-8.105-1.302-.723-14.759-8.106-1.302-.723-14.759-8.105-1.302-.724-14.759-8.105-1.302-.724-14.76-8.105-1.302-.723-14.758-8.105-1.303-.724-14.759-8.105-1.302-.724-4.485-2.46c-.145.47-.29.977-.434 1.447l4.196 2.316 1.302.723 14.795 8.105zM78.591 583.42l1.303.724 14.758 8.105 1.303.723 14.759 8.106 1.302.723 14.759 8.105 1.302.724 14.759 8.105 1.302.724 14.759 8.105 1.302.723 14.759 8.105 1.302.724 14.759 8.105 1.303.724 14.758 8.105 1.303.724 14.759 8.105 1.302.723 14.759 8.105 1.302.724 14.759 8.105 1.302.724 14.759 8.105 1.302.723 14.759 8.106 1.302.723 6.692 3.691c.254-.398.543-.832.796-1.23l-6.764-3.727-1.302-.724-14.759-8.105-1.303-.724-14.758-8.105-1.303-.723-14.759-8.105-1.302-.724-14.759-8.105-1.302-.724-14.759-8.105-1.302-.724-14.759-8.105-1.302-.723-14.759-8.105-1.302-.724-14.759-8.105-1.303-.724-14.758-8.105-1.303-.723-14.759-8.106-1.302-.723-14.759-8.105-1.302-.724-14.759-8.105-1.302-.724-14.759-8.105-1.302-.723-14.759-8.105-1.302-.724-6.656-3.655c-.217.435-.434.905-.615 1.339l6.547 3.619 1.303.723 14.758 8.069zM87.418 567.391l1.302.724 14.759 8.105 1.302.723 14.759 8.105 1.302.724 14.759 8.105 1.302.724 14.759 8.105 1.303.723 14.758 8.106 1.303.723 14.759 8.105 1.302.724 14.759 8.105 1.302.724 14.759 8.105 1.302.723 14.759 8.105 1.302.724 14.759 8.105 1.302.724 14.759 8.105 1.302.724 14.759 8.105 1.303.723 14.758 8.105 1.303.724 6.873 3.799c.217-.434.434-.904.615-1.338l-6.801-3.727-1.302-.724-14.759-8.105-1.302-.724-14.759-8.105-1.302-.723-14.759-8.106-1.303-.723-14.759-8.105-1.302-.724-14.759-8.105-1.302-.724-14.867-8.249-1.303-.724-14.758-8.105-1.303-.724-14.759-8.105-1.302-.724-14.759-8.105-1.302-.723-14.759-8.105-1.302-.724-14.759-8.105-1.302-.724-14.759-8.105-1.302-.724-14.76-8.105-1.301-.723-14.76-8.105-1.301-.724-6.693-3.655c-.253.435-.542.833-.795 1.267l6.764 3.727 1.302.723 14.904 8.178zM96.208 551.325l1.302.724 14.759 8.105 1.302.724 14.759 8.105 1.302.723 14.759 8.106 1.302.723 14.759 8.105 1.302.724 14.759 8.105 1.303.724 14.758 8.105 1.303.723 14.759 8.106 1.302.723 14.759 8.105 1.302.724 14.759 8.105 1.302.724 14.759 8.105 1.302.723 14.759 8.105 1.302.724 14.759 8.105 1.302.724 14.759 8.105 1.303.724 4.955 2.713c.145-.47.326-.94.471-1.447l-4.703-2.569-1.302-.724-14.759-8.105-1.302-.723-14.759-8.105-1.302-.724-14.759-8.105-1.303-.724-14.758-8.105-1.303-.724-14.759-8.105-1.302-.723-14.759-8.105-1.302-.724-14.759-8.105-1.302-.724-14.759-8.105-1.302-.724-14.759-8.105-1.302-.723-14.759-8.105-1.302-.724-14.759-8.105-1.303-.724-14.758-8.105-1.303-.724-14.758-8.105-1.303-.723-14.759-8.105-1.302-.724-4.558-2.497c-.325.398-.65.76-.977 1.158l4.812 2.642 1.302.723 14.759 8.105zM105.034 535.296l1.303.724 14.759 8.105 1.302.724 14.759 8.105 1.302.723 14.759 8.105 1.302.724 14.759 8.105 1.302.724 14.759 8.105 1.302.724 14.759 8.105 1.302.723 14.759 8.105 1.303.724 14.758 8.105 1.303.724 14.759 8.105 1.302.724 14.759 8.105 1.302.723 14.759 8.105 1.302.724 14.759 8.105 1.302.724 14.759 8.105 1.302.724.724.398c.108-.507.181-1.014.253-1.556l-.289-.145-1.303-.724-14.758-8.105-1.303-.723-14.759-8.106-1.302-.723-14.759-8.105-1.302-.724-14.759-8.105-1.302-.724-14.759-8.105-1.302-.723-14.759-8.106-1.302-.723-14.759-8.105-1.302-.724-14.759-8.105-1.303-.724-14.759-8.105-1.302-.723-14.759-8.105-1.302-.724-14.759-8.105-1.302-.724-14.759-8.105-1.302-.724-14.759-8.105-1.302-.723-14.76-8.105-1.301-.724-.145-.072c-.398.361-.796.687-1.158 1.049l.615.326 1.303.723 14.758 8.105zM129.886 528.06l1.302.723 14.759 8.105 1.302.724 14.759 8.105 1.302.724 14.759 8.105 1.302.723 14.759 8.106 1.302.723 14.759 8.105 1.303.724 14.758 8.105 1.303.724 14.759 8.105 1.302.723 14.759 8.105 1.302.724 14.759 8.105 1.302.724 14.759 8.105 1.302.724 14.759 8.105 1.302.723 9.984 5.5c0-.543.037-1.121.037-1.664l-9.297-5.102-1.302-.724-14.759-8.105-1.303-.723-14.758-8.106-1.303-.723-14.759-8.105-1.302-.724-14.759-8.105-1.302-.724-14.759-8.105-1.302-.723-14.759-8.105-1.302-.724-14.759-8.105-1.302-.724-14.759-8.105-1.302-.724-14.759-8.105-1.303-.723-14.758-8.105-1.303-.724-14.759-8.105-1.302-.724-14.759-8.105-1.302-.724-9.188-5.029c-.47.289-.941.615-1.411.905l9.839 5.427 1.303.724 14.795 8.069zM138.712 511.994l1.302.724 14.759 8.105 1.302.724 14.759 8.105 1.303.723 14.758 8.105 1.303.724 14.759 8.105 1.302.724 14.759 8.105 1.302.724 14.759 8.105 1.302.723 14.759 8.105 1.302.724 14.759 8.105 1.302.724 14.759 8.105 1.302.723 14.759 8.106 1.303.723 14.758 8.105 1.303.724.108.036a27.37 27.37 0 00-.253-1.809l-.434-.253-14.759-8.105-1.302-.724-14.759-8.105-1.302-.724-14.759-8.105-1.303-.724-14.758-8.105-1.303-.723-14.759-8.105-1.302-.724-14.759-8.105-1.302-.724-14.759-8.105-1.302-.723-14.759-8.106-1.302-.723-14.759-8.105-1.302-.724-14.759-8.105-1.302-.724-14.759-8.105-1.303-.723-14.758-8.105-.326-.181c-.543.253-1.121.506-1.664.759l1.266.688 14.759 8.141zM163.564 504.758l1.302.723 14.759 8.105 1.302.724 14.759 8.105 1.302.724 14.759 8.105 1.302.723 14.759 8.105 1.302.724 14.759 8.105 1.302.724 14.759 8.105 1.302.724 14.759 8.105 1.303.723 14.758 8.105 1.303.724 14.759 8.105 1.302.724 2.098 1.158a46.146 46.146 0 00-.687-2.063l-.724-.398-1.302-.723-14.759-8.106-1.302-.723-14.759-8.105-1.302-.724-14.759-8.105-1.302-.724-14.759-8.105-1.303-.723-14.758-8.105-1.303-.724-14.759-8.105-1.302-.724-14.759-8.105-1.302-.724-14.759-8.105-1.302-.723-14.759-8.105-1.302-.724-14.759-8.105-1.302-.724-.579-.325c-.687.18-1.411.361-2.098.542l1.953 1.086 1.302.723 14.796 8.106zM204.439 506.35l1.303.723 14.759 8.105 1.302.724 14.759 8.105 1.302.724 14.759 8.105 1.302.724 14.759 8.105 1.302.723 14.759 8.105 1.302.724 13.24 7.273c-.47-.832-.977-1.665-1.483-2.497l-11.033-6.079-1.303-.723-14.758-8.105-1.303-.724-14.759-8.105-1.302-.724-14.759-8.105-1.302-.723-14.759-8.106-1.302-.723-14.759-8.105-1.302-.724-14.759-8.105-1.302-.724-10.889-6.006c-.976.036-1.953.036-2.893.108l13.094 7.201 1.303.724 14.722 8.105zM245.352 507.942l1.302.723 14.759 8.105 1.302.724.109.072a144.02 144.02 0 00-16.097-10.384 139.36 139.36 0 00-17.4-8.033l1.266.688 14.759 8.105z"/>
  </g>
  <path d="M792.444 532.402v157.904a4.084 4.084 0 01-4.088 4.088h-22.428a4.084 4.084 0 01-4.087-4.088V532.402c0-2.244 1.845-4.089 4.087-4.089h22.428a4.084 4.084 0 014.088 4.089zM836.141 532.402v157.904c0 2.243-1.844 4.088-4.087 4.088h-32.448a4.084 4.084 0 01-4.088-4.088V532.402a4.084 4.084 0 014.088-4.089h32.448c2.243 0 4.087 1.845 4.087 4.089z" fill="#1B65B9"/>
  <path d="M722.7 532.402v157.904a4.083 4.083 0 01-4.087 4.088h-32.448a4.084 4.084 0 01-4.088-4.088V532.402a4.084 4.084 0 014.088-4.089h32.448c2.243 0 4.087 1.845 4.087 4.089z" fill="#486C9A"/>
  <path d="M760.574 532.402v157.904a4.083 4.083 0 01-4.087 4.088H729.79a4.084 4.084 0 01-4.087-4.088V532.402a4.083 4.083 0 014.087-4.089h26.697c2.242 0 4.087 1.845 4.087 4.089z" fill="#1B65B9"/>
  <path d="M722.7 557.73h-40.587v29.417H722.7V557.73zM760.538 652.313h-34.835v13.931h34.835v-13.931z" fill="#6996C0"/>
  <path d="M760.538 618.265h-34.835v22.904h34.835v-22.904z" fill="#8296A5"/>
  <path d="M836.141 575.966h-40.587v37.341h40.587v-37.341z" fill="#CCDDEB"/>
  <path d="M814.401 563.845l-20.149-4.378a2.377 2.377 0 01-1.809-2.859l4.377-20.154a2.375 2.375 0 012.858-1.809l20.149 4.378a2.375 2.375 0 011.808 2.859l-4.377 20.154a2.402 2.402 0 01-2.857 1.809z" fill="#8296A5"/>
  <path d="M462.901 669.826c-12.371 15.595-25.973 22.94-39.9 30.249h-59.216c-67.609-34.302-108.413-180.699-88.951-260.954 131.672 31.045 246.849 157.434 188.067 230.705z" fill="#F5F5F0"/>
  <path d="M275.196 437.529c-.869-.217-1.773.325-1.99 1.23-19.172 79.097 19.823 223.866 87.07 261.352h7.199c-68.549-31.081-110.041-178.673-91.447-259h.072c55.056 84.995 134.711 199.985 145.816 257.661-.253.109-1.519.724-2.858 1.303h7.633c130.443-65.926-.217-226.869-151.495-262.546z" fill="#A3C2DB"/>
  <path d="M307.064 482.83c.796 0 1.484-.542 1.628-1.338l4.811-26.74a1.668 1.668 0 00-1.338-1.917 1.669 1.669 0 00-1.917 1.338l-4.811 26.74c-.181 1.013.615 1.917 1.627 1.917zM347.254 543.944c.217.109.434.145.651.145.615 0 1.23-.362 1.519-.977l24.888-55.976c.361-.832 0-1.809-.832-2.171-.832-.362-1.809 0-2.171.832l-24.887 55.976c-.362.832 0 1.809.832 2.171zM451.579 557.477a1.625 1.625 0 00-2.315.253l-53.501 66.36c-.579.688-.471 1.737.253 2.316.289.253.651.362 1.013.362.47 0 .94-.217 1.266-.615l53.501-66.361c.615-.687.506-1.736-.217-2.315z" fill="#F5F5F0"/>
  <path d="M365.051 574.664c-37.367-61.621-81.065-121.902-81.97-122.807-2.423-3.365-5.173-7.055-7.705-10.493a1.664 1.664 0 00-2.315-.325 1.62 1.62 0 00-.325 2.279c.181.253 1.844 2.461 2.206 2.967 23.043 31.154 57.372 80.725 87.287 130.079 17.147 28.26 53.682 90.784 58.276 123.711h3.328c-4.919-34.41-40.768-95.705-58.782-125.411z" fill="#F5F5F0"/>
  <path d="M321.389 513.659a1.655 1.655 0 00-1.193-1.99l-45.615-11.145a1.656 1.656 0 00-1.99 1.194 1.656 1.656 0 001.194 1.99l45.615 11.145a1.638 1.638 0 001.989-1.194zM289.52 584.469l77.448 6.911h.145c.832 0 1.555-.651 1.628-1.483.072-.905-.579-1.701-1.483-1.773l-77.448-6.911c-.905-.072-1.7.579-1.773 1.483-.108.869.579 1.665 1.483 1.773zM407.664 664.326l-72.891 4.885c-.904.072-1.591.832-1.519 1.737a1.65 1.65 0 001.628 1.519h.108l72.891-4.884c.904-.073 1.591-.833 1.519-1.737-.036-.905-.832-1.556-1.736-1.52z" fill="#A3C2DB"/>
  <path d="M275.196 437.529c-.869-.217-1.773.325-1.99 1.23-19.172 79.097 19.823 223.866 87.07 261.352h7.199c-68.549-31.081-110.041-178.673-91.447-259h.072c147.987 35.858 278.284 194.449 145.816 257.661-.253.109-1.447.688-2.858 1.303h7.633c130.443-65.926-.217-226.869-151.495-262.546z" fill="#A3C2DB"/>
  <path d="M539.083 444.295v253.03H432.877c-63.087-55.795-11.395-206.172 84.682-285.559 8.103 9.697 15.447 21.168 21.524 32.529z" fill="#1B65B9"/>
  <path d="M539.083 478.127v-4.668l-29.59 24.966c10.164-89.119 9.658-84.379 9.549-84.85-.47-1.917-3.255-1.736-3.508.254l-5.861 51.561-19.931-26.884c-.579-.796-1.7-.941-2.496-.362s-.941 1.701-.362 2.497l22.211 29.923-7.959 69.762-54.296-45.085c-.76-.615-1.881-.506-2.496.217-.615.76-.507 1.882.217 2.497l56.069 46.568c-.036.434-10.382 90.965-10.418 91.363l-80.161-37.088c-.904-.398-1.953-.036-2.351.868-.398.905-.036 1.954.868 2.352l81.246 37.595c-1.302 11.289-5.317 46.749-6.584 57.676h3.582l1.193-10.529 51.041-21.204v-3.871l-50.607 20.986c6.403-56.229 3.618-31.661 9.876-86.804l40.695-24.93v-4.198l-40.189 24.641 10.02-87.889 30.242-25.364z" fill="#F5F5F0"/>
  <path d="M383.753 654.448c3.69-.326 8.103-1.773 11.576-3.257 8.175-3.328 17.038-11.216 22.247-22.578 7.958-17.259 4.557-37.16-1.303-43.746-4.015 12.52-36.39 52.72-39.827 56.41-3.328 3.691-6.547 6.513-7.958 8.359-1.266-2.967-10.237-24.497-23.405-53.045 9.804 1.013 31.761-9.082 35.74-35.387 2.496-16.464-3.183-27.066.145-37.414-15.121 2.533-26.335 35.496-30.893 50.186-3.219 10.493-5.679 16.174-6.547 19.214-7.054-15.234-14.325-30.25-21.523-44.434 6.113-1.194 26.949-12.374 28.179-39.114.506-12.085-3.437-22.795-7.199-27.029-7.488 13.967-23.874 27.21-24.272 54.818-.036.941-.036 3.003.144 5.138-.976-1.918-13.963-26.884-14.867-27.463 1.664-4.487 2.351-20.661-6.077-34.121-7.741-12.628-22.934-22.361-33.931-25.69.253 4.27 2.134 17.078 5.317 26.16 7.778 23.773 26.95 34.121 32.593 34.917 0 .181.072.398.181.579 8.284 15.161 16.35 30.792 24.128 46.496-5.752-4.595-18.015-12.049-31.254-17.223-19.498-7.888-19.389-9.698-28.324-14.474-.615 7.635-.217 13.75 2.966 20.914 5.317 11.941 18.195 21.529 34.871 22.217 12.046.47 21.343-3.727 24.201-6.368a1582.093 1582.093 0 0124.525 52.538c-4.16-1.99-13.275-4.668-18.484-5.862-13.457-3.112-23.513-2.316-51.548 1.049 6.909 12.773 28.903 26.487 51.692 20.661 10.889-2.786 17.87-8.937 19.932-12.375 8.031 18.164 15.338 35.532 21.632 51.381-6.258-3.872-24.128-9.082-42.757.94-8.32 4.704-14.868 10.855-19.607 17.73h39.285c11.503-5.319 21.668-11.615 24.562-14.871a1466.275 1466.275 0 015.788 14.871h2.894c-4.884-12.845-10.527-26.956-16.713-41.683 2.496 1.122 7.271 2.207 13.891 1.556z" fill="#8296A5"/>
  <path d="M439.967 652.458c-27.13 4.125-45.398 23.953-49.739 42.153h25.213c14.868-12.917 15.736-14.654 41.672-42.551-3.038-.579-9.803-.796-17.146.398z" fill="#80A3C3"/>
  <path d="M339.548 675.253c20.619-28.765 2.641-67.083-12.769-68.965 1.519 7.273.47 19.032-.434 43.42-.181 13.135-.145 17.006-.615 22.723-.362 5.789-.977 9.444-.94 11.398-3.473-1.737-22.103-10.529-46.447-25.003 3.4-2.098 10.707-9.733 13.529-22.94 5.136-23.953-9.08-38.825-12.734-46.532-1.591-3.365-1.7-5.427-1.772-7.019-10.816 9.697-9.441 36.255-6.765 50.656 1.013 5.5 1.773 8.323 2.967 14.908.687 3.727 1.266 7.056 1.881 9.19-21.56-12.953-36.463-23.736-37.621-24.532 3.798-3.256 12.263-16.463 12.335-31.877.145-16.536-8.609-29.671-14.361-32.312-3.472 13.424-12.046 28.512-8.103 47.292 1.086 4.993 2.967 9.769 4.811 13.098-7.524-5.464-14.903-11.036-22.029-16.753a1.1 1.1 0 00-.579-.289c0-2.135-.941-6.26-2.351-10.023-4.92-12.954-12.082-19.829-22.645-25.69-7.126-3.944-18.015-7.635-23.513-8.757.904 11.724 6.801 26.667 16.531 35.822 11.178 10.276 25.973 12.013 30.495 10.638.289.506 17.58 14.364 39.321 28.946-7.814-.94-24.707-.542-34.582.326-17.943 1.375-19.353-.253-31.797-2.026 10.888 34.482 50.643 34.627 68.223 8.756.507-.76 1.773-2.822 2.243-4.342 14.687 9.516 26.552 17.006 45.471 27.319-4.956 1.302-15.374 5.825-17.472 6.802-9.225 4.233-15.266 8.539-24.924 16.463h37.548c6.186-8.43 8.429-17.512 8.067-21.529 14.542 7.816 29.373 15.052 44.204 21.529h6.765c-7.958-3.401-15.953-6.983-23.875-10.782 4.775-1.846 8.971-5.971 11.937-9.915zM366.136 695.986h16.025c0-.217.036-.434.036-.687 3.22-57.025 1.122-40.67 2.967-73.235-13.421 12.266-32.738 47.364-19.028 73.922z" fill="#E1A06F"/>
  <path d="M683.199 697.036h-92.351V420.378c30.313-37.595 68.042-71.752 110.112-97.152 59.832 97.912 65.511 314.758-17.761 373.81z" fill="#F5F5F0"/>
  <path d="M702.805 322.104a2.168 2.168 0 00-2.966-.724c-41.166 24.858-78.497 58.183-108.992 95.561v280.131h29.663c-3.328-82.1 46.628-248.073 79.654-370.807.037 0 .037-.036.073-.036 58.854 99.251 63.412 315.555-20.764 370.843h7.38c82.114-62.416 75.494-277.237 15.952-374.968z" fill="#A3C2DB"/>
  <path d="M675.639 390.165a2.2 2.2 0 002.93.904 2.2 2.2 0 00.904-2.93l-16.857-31.697a2.2 2.2 0 00-2.93-.905 2.2 2.2 0 00-.904 2.931l16.857 31.697zM651.077 484.784c1.845 0 2.858-2.207 1.628-3.618l-53.827-60.318c-.795-.904-2.17-.977-3.038-.181-.905.796-.977 2.171-.181 3.04 57.516 64.515 53.971 61.077 55.418 61.077zM622.861 608.531c2.135 0 3.003-2.786 1.194-3.98l-33.207-21.891v5.174c33.28 21.964 31.109 20.697 32.013 20.697z" fill="#F5F5F0"/>
  <path d="M703.891 324.963c-1.158-.398-2.388.253-2.749 1.338-27.854 81.304-87.541 284.727-83.127 370.735h4.34c-4.485-85.14 54.948-287.477 82.874-369.324a2.139 2.139 0 00-1.338-2.749z" fill="#F5F5F0"/>
  <path d="M675.639 436.407l52.668-32.42a2.17 2.17 0 00.724-2.967 2.168 2.168 0 00-2.966-.724l-52.669 32.42a2.17 2.17 0 00-.724 2.967 2.107 2.107 0 002.967.724zM646.157 551.977c.651 0-5.136 2.352 95.137-40.091 1.085-.471 1.628-1.737 1.158-2.823-.471-1.085-1.737-1.628-2.822-1.158l-94.341 39.911c-2.17.904-1.483 4.161.868 4.161zM721.362 638.238a2.176 2.176 0 00-2.64-1.592l-93.329 23.266c-2.749.687-1.772 4.884 1.049 4.197l93.329-23.266c1.157-.253 1.881-1.447 1.591-2.605z" fill="#A3C2DB"/>
  <path d="M702.805 322.104a2.168 2.168 0 00-2.966-.724c-41.166 24.858-78.497 58.183-108.992 95.561v6.983c30.929-38.752 69.02-72.982 109.281-97.659.036 0 .073-.036.073-.036 58.854 99.251 63.412 315.555-20.764 370.843h7.379c82.151-62.416 75.531-277.237 15.989-374.968z" fill="#8296A5"/>
  <path d="M782.495 537.25c11.395-5.934 19.136-15.306 21.054-21.059-17.111.543-41.311-8.394-68.007 9.697.868-1.338 17.291-27.101 17.327-28.295 4.992-.868 20.257-8.865 28.18-23.772 7.524-13.859 8.356-33.036 5.57-44.904-3.798 2.533-14.578 11.072-21.234 18.815-17.725 19.829-17.038 42.986-14.759 48.595v.036c-.253.868-11.973 19.828-30.349 47.219 1.121-7.779 1.447-22.94-.832-37.739-3.111-22.144-1.411-23.049-1.773-33.759-7.379 3.473-12.769 7.128-17.689 13.858-8.175 11.253-10.128 28.187-1.881 43.927 5.933 11.253 14.651 17.549 18.666 18.851a2038.597 2038.597 0 01-35.197 50.512c-.398-4.921-2.785-14.69-4.449-20.082-4.305-14.039-10.382-22.868-28.433-46.893-8.067 13.17-8.971 40.706 8.501 58.581 8.356 8.503 17.689 11.687 21.957 11.759-11.322 15.631-23.368 31.733-35.703 47.436.289-7.707-4.377-27.101-23.621-39.005-9.442-5.572-19.353-8.359-28.831-8.72v17.042a679.701 679.701 0 018.284 7.49c13.854 12.809 35.088 25.22 41.636 26.486-10.201 12.918-20.583 25.473-30.856 37.16h3.834c1.592-1.845 3.256-3.763 4.956-5.753 3.255 1.882 12.516 5.355 13.565 5.753h61.748c-20.655-20.913-50.353-24.242-67.572-15.016 10.671-12.881 22.464-27.825 34.618-43.854.326 2.931 1.845 7.888 5.969 13.641 2.243 3.221 5.932 6.513 9.152 8.901 7.415 5.754 19.389 9.698 32.592 8.467 20.113-1.845 36.608-15.595 39.574-24.496-13.854 3.003-68.296-5.536-73.107-6.621-5.136-1.086-9.477-2.533-11.937-2.859a1777.11 1777.11 0 0036.318-49.788c4.269 9.552 25.249 24.387 51.584 14.039 16.459-6.477 23.187-17.332 34.51-19.792-10.382-12.592-46.701-5.355-62.617-1.701-11.359 2.605-17.906 3.401-21.162 4.197 10.238-14.618 20.185-29.272 29.41-43.456 4.377 4.957 25.755 18.2 51.004 5.102z" fill="#E1A06F"/>
  <path d="M889.136 610.341c-7.995-5.175-20.511-8.721-31.218-6.875-12.082 2.171-20.475 10.891-21.813 14.473-.434-.036-17.834 4.306-37.946 11.181 4.413-4.596 12.48-15.668 16.748-22.47 7.922-12.23 9.659-12.339 16.893-19.539-27.564-9.878-47.134 15.703-39.067 39.729.253.688.94 2.497 1.7 3.582a523.282 523.282 0 00-39.9 15.921c1.592-3.836 3.762-12.773 4.16-14.582 2.641-11.796 1.809-19.25.76-41.719-3.835 1.736-11.214 7.562-15.446 16.318-9.731 19.901 2.532 37.957 7.777 41.213-12.516 5.717-24.851 11.941-36.789 18.635 1.013-2.425 2.026-7.056 1.773-13.931-1.302-22.832-21.632-38.101-37.91-38.246 13.239 26.125 15.446 30.973 20.981 38.644 1.193 1.737 9.007 12.447 12.552 15.016-12.48 7.128-24.49 14.727-35.848 22.796h3.798a376.524 376.524 0 0110.49-7.056c1.339 1.483 4.739 4.161 8.139 7.056h27.131c-7.561-7.599-17.979-12.737-28.433-11.471a465.152 465.152 0 0133.967-19.285c-1.121 3.98-.506 8.756.579 12.555 2.351 7.563 6.584 13.605 11.72 18.164h28.361c-4.305-3.473-9.767-8.105-17.147-14.184-8.392-6.549-10.888-8.43-14.361-11.542-3.545-3.076-5.607-5.283-6.873-6.187a490.797 490.797 0 0138.887-17.694c-.326 3.22 1.013 11.687 8.175 19.973 12.914 15.052 29.482 13.171 36.246 14.618 2.967.615 4.305 1.556 5.39 2.28-.94-11.724-18.738-23.881-29.337-29.2-4.051-2.063-6.222-2.931-11.069-5.391-2.749-1.375-5.173-2.642-6.837-3.293 11.286-4.487 22.754-8.612 34.257-12.23.253 4.052 4.594 15.993 14.505 23.591 10.599 8.178 23.369 9.01 27.854 6.55-6.945-8.829-12.48-21.747-26.515-28.404-3.762-1.773-7.741-2.859-10.78-3.329 7.199-2.171 14.397-4.197 21.596-6.007.181-.036.325-.144.47-.217 1.375 1.05 4.486 2.461 7.597 3.402 10.743 3.148 18.701 1.917 27.672-1.99 5.969-2.642 13.674-7.852 17.111-10.855z" fill="#8296A5"/>
  <path d="M1212.49 699.713H2.373a2.254 2.254 0 01-2.242-2.243 2.254 2.254 0 012.242-2.243H1212.49a2.26 2.26 0 012.25 2.243 2.26 2.26 0 01-2.25 2.243z" fill="#2A2F58"/>
  <path d="M393.881 696.384c-14.433 0-27.058 7.744-33.967 19.286-1.664-.326-3.4-.543-5.173-.543a26.158 26.158 0 00-13.565 3.763c-7.126-26.377-31.182-45.771-59.795-45.771-23.441 0-43.843 13.062-54.369 32.275a30.722 30.722 0 00-10.056-1.701c-16.749 0-30.386 13.497-30.567 30.214H433.347c-1.013-20.878-18.304-37.523-39.466-37.523z" fill="#1B65B9"/>
  <path d="M360.493 715.779l-.579-.109c-.181-.036-.362-.072-.579-.108l-3.581 17.983-11.973-.145c-.362-1.845-1.628-8.829-1.954-14.835a5.724 5.724 0 00-.651.362c-.181-.652-.362-1.267-.542-1.918.144 6.947 1.881 15.74 2.098 16.934h14.107l3.654-18.164zM235.477 733.943c-4.413-7.78-6.584-19.937-7.669-29.996-.289.47-.543.977-.832 1.447-.072-.036-.145-.036-.217-.072 1.085 9.624 3.256 20.914 7.379 28.585h1.339v.036z" fill="#F5F5F0"/>
  <path d="M1042.04 675.579c-14.43 0-27.06 7.743-33.97 19.286-1.66-.326-3.4-.543-5.17-.543-4.954 0-9.62 1.375-13.563 3.763-7.126-26.378-31.182-45.772-59.795-45.772-23.441 0-43.843 13.062-54.369 32.276a30.702 30.702 0 00-10.057-1.701c-16.748 0-30.386 13.496-30.566 30.213h246.96c-1.02-20.878-18.31-37.522-39.47-37.522z" fill="#1B65B9"/>
  <path d="M642.142 737.018H153.58a2.254 2.254 0 01-2.243-2.243 2.254 2.254 0 012.243-2.243h488.562a2.253 2.253 0 012.242 2.243 2.253 2.253 0 01-2.242 2.243z" fill="#2A2F58"/>
  <path d="M884.108 713.174h1.23c-2.894-8.431-6.62-19.612-9.804-29.164-.108.217-.253.398-.361.615-.254-.073-.471-.145-.724-.217 2.171 6.549 6.331 19.032 9.659 28.766zM984.417 713.173l5.897-15.595c-.326.181-.688.362-1.013.579a4.275 4.275 0 01-.181-.651l-5.933 15.704h1.23v-.037zM1013.03 713.174h1.19c-1.95-6.477-4.19-13.786-5.75-18.888-.14.217-.29.398-.4.615l-.65-.109c1.88 6.007 3.91 12.665 5.61 18.382z" fill="#F5F5F0"/>
  <path d="M1111.46 715.453H622.933a2.254 2.254 0 01-2.243-2.243 2.255 2.255 0 012.243-2.244H1111.5c1.23 0 2.24 1.013 2.24 2.244 0 1.23-1.01 2.243-2.28 2.243z" fill="#2A2F58"/>
  <path d="M653.102 254.767c-9.079-9.553-8.681-24.641.832-33.723l42.758-40.67c9.549-9.082 24.634-8.684 33.713.832 9.08 9.552 8.682 24.641-.832 33.723l-42.757 40.706c-9.514 9.082-24.634 8.684-33.714-.868z" fill="#E3A586"/>
  <path opacity=".35" d="M715.104 224.445c-22.934 5.174-28.36-17.115-29.337-33.65l-31.797 30.249c-9.55 9.082-9.911 24.17-.832 33.723 9.08 9.552 24.164 9.914 33.714.832l34.365-32.71a137.097 137.097 0 01-6.113 1.556z" fill="#E3A586"/>
  <path d="M627.781 548.612s38.416-25.98 40.659-50.838c2.243-24.858-6.765-50.838-27.094-49.716-20.33 1.122-28.252-10.167-30.495 15.812-2.242 25.98-1.121 40.67 2.243 57.64 3.364 16.934 14.687 27.102 14.687 27.102z" fill="#E3A586"/>
  <path d="M672.817 693.707H463.733v-307.45h129.719l79.365 307.45z" fill="#E3A586"/>
  <path d="M471.329 529.362s-49.341-73.344-57.914-116.764 1.266-121.25 26.262-142.96c24.996-21.71 53.103 53.153 31.218 95.814 7.38 13.46 29.445 70.34 25.575 107.03-3.871 36.654-25.141 56.88-25.141 56.88z" fill="#E3A586"/>
  <path d="M678.822 517.783H477.443a5.898 5.898 0 01-5.896-5.898V113.76a5.899 5.899 0 015.896-5.898h201.379a5.899 5.899 0 015.897 5.898v398.089c.036 3.293-2.605 5.934-5.897 5.934z" fill="#2A2F58"/>
  <path d="M607.27 136.918h-58.239c-8.899 0-16.098-7.201-16.098-16.102h90.435c0 8.901-7.199 16.102-16.098 16.102z" fill="#2A2F58"/>
  <path d="M677.158 497.629H479.143a2.516 2.516 0 01-2.532-2.533V127.112a2.517 2.517 0 012.532-2.533h198.015a2.517 2.517 0 012.532 2.533v367.984a2.54 2.54 0 01-2.532 2.533z" fill="#1B65B9"/>
  <path d="M578.476 343.271c-.325 0-.651-.144-.868-.434-18.34-25.69-25.539-49.752-19.28-64.298 3.183-7.345 9.694-11.904 18.846-13.134.579-.073 1.121.325 1.194.904.072.579-.326 1.122-.905 1.194-8.5 1.158-14.288 5.175-17.182 11.868-5.969 13.859 1.121 37.125 19.027 62.2.362.47.217 1.158-.253 1.483a.821.821 0 01-.579.217zM607.451 343.271c-.072 0-.181 0-.253-.036a1.08 1.08 0 01-.796-1.303c7.343-31.407 2.424-53.949-4.63-64.587-3.075-4.631-6.728-7.454-10.563-8.105-.579-.108-.976-.651-.868-1.23.109-.579.651-.977 1.23-.869 4.413.76 8.573 3.872 11.974 9.01 7.307 11 12.443 34.157 4.955 66.252a1.08 1.08 0 01-1.049.868z" fill="#2A2F58"/>
  <path d="M634.437 308.897c3.256 2.75 16.097 65.745 14.18 82.462-2.713 23.483-17.363 57.097-17.363 57.097l-26.154 4.306s1.519-167.167 29.337-143.865z" fill="#DE9E87"/>
  <path d="M624.272 433.621c-.723 5.717 3.762 14.039 6.982 14.835 0 5.355-5.173 14.148-7.922 21.276-2.967 7.779-14.361-15.197-14.361-15.197l15.301-20.914z" fill="#375071"/>
  <path d="M583.794 273.257c17.869 1.845 44.132 16.318 50.643 35.64 3.653 10.927-4.232 126.316-4.232 126.316l-96.078 2.388s6.584-28.874 7.271-36.4c1.628-18.056-7.633-75.479-18.991-95.814-8.067-14.328 45.76-33.759 61.387-32.13z" fill="#F5F5F0"/>
  <path d="M594.176 248.399s4.774 31.696 4.557 32.601c-.434 1.7-2.93 19.683-5.824 21.348-4.232 2.46-28.287-17.585-29.879-21.348-.362-.833 4.124-36.365 4.124-36.365l27.022 3.764z" fill="#DE9E87"/>
  <path d="M600.542 239.678c3.111-18.308-.868-28.693-2.64-31.19-2.46-3.509-31.544-5.572-36.174 2.027-4.594 7.598-2.17 26.196-.289 29.163 1.881 2.967 23.042 5.681 23.042 5.681l16.061-5.681z" fill="#2A2F58"/>
  <path d="M594.827 218.945c2.93 3.691 3.762 8.069 3.834 15.74 6.475-10.855 4.305 13.424-.506 11-.76 7.852-4.811 16.282-11.612 20.009-3.762 2.063-6.584 1.954-9.224.724-8.429-3.944-12.408-13.171-13.204-19.901-2.387.145-5.064-8.105-4.847-12.664.145-3.148 2.568-4.523 3.834-.29-.253-8.358.615-12.845 2.388-14.654 2.243-2.279 9.007 4.632 18.304 4.668 8.754.036 9.188-6.984 11.033-4.632z" fill="#E5B48F"/>
  <path d="M573.629 246.662c-3.509 0-7.524-.254-8.103-.398-.615-.145-.94-.796-1.157-1.267-.869-2.062-1.483-8.286-.941-9.226.217-.326.579-.507 1.483-.688 2.641-.506 11.793-1.158 13.963.47.254.181.941.724 1.013 4.451 0 .543.073 5.247-.976 6.115-.507.398-2.786.543-5.282.543zm-7.669-1.846c1.52.326 10.563.579 11.974.109.542-1.122.687-7.309 0-8.214-1.664-1.194-11.467-.687-13.276-.072-.145 1.303.543 7.345 1.302 8.177zM589.329 246.662c-2.533 0-4.775-.145-5.282-.543-1.049-.868-1.013-5.572-.976-6.115.072-3.727.759-4.233 1.012-4.451 2.135-1.628 11.323-.976 13.963-.47.905.181 1.303.362 1.484.688.578.976-.037 7.091-.941 9.226-.181.471-.543 1.122-1.158 1.267-.578.108-4.594.398-8.102.398zm-4.305-1.737c1.411.434 10.49.181 11.973-.109.76-.796 1.447-6.657 1.23-8.177-1.845-.615-11.611-1.086-13.239.072-.688.905-.507 7.092.036 8.214z" fill="#2A2F58"/>
  <path d="M521.611 302.601c-15.229 24.424-18.81 85.972-15.265 97.912 6.439 21.602 41.491 57.278 41.491 57.278l6.439-13.93s-19.389-43.746-19.317-52.466c.072-8.72 5.028-28.549 5.028-38.499 0-10.023-18.376-50.295-18.376-50.295z" fill="#DE9E87"/>
  <path d="M503.524 367.659c.796-14.799 9.478-70.594 26.154-75.442 12.082-3.51 23.73 81.412 17.58 82.823-6.149 1.448-43.734-7.381-43.734-7.381zM625.936 294.894c11.539 5.645 25.611 54.999 22.826 66.541-12.263 4.017-20.511 4.849-20.511 4.849l-2.315-71.39z" fill="#F5F5F0"/>
  <path d="M634.365 361.689c-.326 0-.543-.254-.543-.579.615-13.461 0-35.279 0-35.496 0-.29.217-.543.506-.543.29-.072.543.217.543.507 0 .217.615 22.071 0 35.568.036.289-.217.543-.506.543z" fill="#3D5A81"/>
  <path d="M582.274 354.235a8.864 8.864 0 008.863-8.865 8.864 8.864 0 00-8.863-8.865c-4.894 0-8.862 3.969-8.862 8.865 0 4.896 3.968 8.865 8.862 8.865z" fill="#A3C2DB"/>
  <path d="M548.958 373.81h-.036a.584.584 0 01-.506-.579c.036-.326 2.243-31.19-2.568-47.472-.073-.29.072-.579.361-.652.29-.072.579.073.651.362 4.884 16.463 2.641 47.545 2.605 47.834.036.29-.217.507-.507.507zM555.868 327.387c3.472 0 24.598-.254 25.032 0 .434.253.362 7.526.362 7.526h-24.671l-.723-7.526z" fill="#3D5A81"/>
  <path d="M578.476 343.271c-.325 0-.651-.144-.868-.434-20.764-29.128-27.094-55.578-16.423-69.074.362-.47 1.049-.543 1.519-.181.471.362.543 1.049.181 1.52-9.875 12.519-3.4 38.644 16.496 66.505.361.47.217 1.158-.254 1.483-.217.109-.434.181-.651.181zM607.451 343.271c-.072 0-.18 0-.253-.036a1.08 1.08 0 01-.796-1.303c7.85-33.614 1.628-56.844-6.077-66.541-.362-.47-.289-1.121.181-1.519.47-.362 1.121-.29 1.519.181 8.393 10.529 14.506 34.048 6.475 68.35a1.08 1.08 0 01-1.049.868z" fill="#2A2F58"/>
  <path d="M613.673 359.807c-.289 0-.506-.217-.542-.507-.29-3.618-3.292-6.983-7.271-8.177-4.522-1.375-9.08.289-12.48 4.559-.181.217-.507.289-.76.072-.217-.181-.253-.506-.072-.76 3.69-4.631 8.645-6.44 13.637-4.92 4.377 1.338 7.669 5.065 8.031 9.118.036.289-.181.543-.507.579 0 .036-.036.036-.036.036z" fill="#A3C2DB"/>
  <path d="M603.87 380.504a.77.77 0 01-.579-.253c-.325-.326-.325-.833 0-1.122 4.486-4.487 11.829-19.901 10.057-29.2-.543-2.895-1.954-4.849-4.196-5.826-3.401-1.483-6.439-1.374-9.008.326-5.317 3.546-8.247 13.46-7.994 27.174 0 .434-.362.796-.796.832-.398 0-.796-.362-.832-.796-.253-14.292 2.894-24.677 8.718-28.549 3.002-2.026 6.656-2.171 10.527-.47 2.749 1.194 4.485 3.546 5.136 6.983 1.845 9.77-5.824 25.944-10.526 30.648-.073.181-.29.253-.507.253zM583.034 351.412c-3.328 0-6.077-2.713-6.077-6.078 0-3.329 2.713-6.043 6.077-6.043 3.328 0 6.077 2.714 6.077 6.043 0 3.365-2.749 6.078-6.077 6.078zm0-10.493a4.446 4.446 0 00-4.449 4.451c0 2.46 1.989 4.45 4.449 4.45s4.449-1.99 4.449-4.45a4.446 4.446 0 00-4.449-4.451z" fill="#2A2F58"/>
  <path d="M591.39 370.843c-2.641-.398-2.46 6.006-.253 5.898 2.17-.073 2.315-5.572.253-5.898zM605.57 377.718c-1.917-1.846-5.462 3.473-3.617 4.667 1.881 1.194 5.136-3.256 3.617-4.667z" fill="#A3C2DB"/>
  <path d="M590.811 376.126c-.072-.326.833-.399.906 0 .108.399-.833.326-.906 0zM601.917 381.698c.108-.326.941 0 .796.399-.108.398-.869-.073-.796-.399z" fill="#486C9A"/>
  <path d="M608.573 337.916c-1.737-.326-1.483 1.628-2.713 2.497-.905.651-4.594-.073-4.016 2.207.435 1.809 2.858.47 5.246 1.085 2.423.616 4.123 2.787 4.955 1.773 1.411-1.773-1.736-2.786-2.423-4.052-.688-1.23.759-3.184-1.049-3.51z" fill="#A3C2DB"/>
  <path d="M682.656 406.013H470.715v102.58h211.941v-102.58z" fill="#419AFF"/>
  <path opacity=".35" d="M718.721 257.481c-6.33-8.105-16.82-10.964-26.081-7.997a23.792 23.792 0 0112.806 8.358c8.102 10.385 6.294 25.365-4.088 33.47l-58.059 44.107a23.98 23.98 0 01-7.415 3.908c6.945 1.773 14.578.471 20.655-4.269l58.059-44.108c10.381-8.105 12.226-23.085 4.123-33.469z" fill="#E3A586"/>
  <path d="M640.586 380.251c-7.524-8.503-6.728-21.457 1.773-28.983l44.168-38.861c8.5-7.526 21.451-6.73 28.939 1.773 7.524 8.503 6.728 21.457-1.773 28.983l-44.168 38.861c-8.465 7.49-21.415 6.73-28.939-1.773z" fill="#E3A586"/>
  <path opacity=".35" d="M686.526 318.956c9.116-6.73 21.958-4.812 28.686 4.306a20.397 20.397 0 014.016 12.013c2.713-6.948 1.555-15.125-3.726-21.095-7.524-8.467-20.475-9.263-28.939-1.773l-44.169 38.861c-.217.181-.397.398-.614.579l44.746-32.891z" fill="#E3A586"/>
  <path d="M651.583 432.897c-7.054-6.187-7.778-16.897-1.592-23.989l37.368-42.443c6.185-7.056 16.929-7.78 23.983-1.629 7.054 6.188 7.777 16.898 1.591 23.99l-37.367 42.443c-6.186 7.092-16.929 7.816-23.983 1.628z" fill="#E3A586"/>
  <path opacity=".35" d="M649.413 411.73l41.925-37.92c6.945-6.332 17.689-5.826 24.019 1.085.651.724 1.23 1.52 1.736 2.316-.108-4.595-2.061-9.118-5.787-12.338-7.054-6.188-17.798-5.428-23.984 1.628l-37.367 42.443a16.323 16.323 0 00-3.473 6.332c.832-1.303 1.773-2.497 2.931-3.546z" fill="#E3A586"/>
  <path d="M471.257 366.139c-.108-.217-.253-.47-.362-.687 21.885-42.66-6.185-117.488-31.218-95.814-18.303 15.921-28.468 61.946-29.228 102.508 20.004-3.872 40.189-6.513 60.808-6.007z" fill="#E3A586"/>
  <path opacity=".35" d="M471.619 367.84c0-.326.036-.615.036-.941-.29-.543-.543-1.013-.796-1.484 16.893-32.963 3.979-85.103-14.289-97.116l-.108.073s22.934 60.643 4.92 72.692c-18.015 12.013-24.599 10.927-24.599 10.927s34.98 48.631 34.402 71.028c.108-.615.253-1.194.361-1.773V367.84h.073z" fill="#E3A586"/>
  <path d="M638.886 216.014c19.179 0 34.727-15.551 34.727-34.736 0-19.184-15.548-34.736-34.727-34.736-19.179 0-34.727 15.552-34.727 34.736 0 19.185 15.548 34.736 34.727 34.736z" fill="#419AFF"/>
  <mask id="a" maskUnits="userSpaceOnUse" x="604" y="146" width="70" height="71">
    <path d="M638.886 216.014c19.179 0 34.727-15.551 34.727-34.736 0-19.184-15.548-34.736-34.727-34.736-19.179 0-34.727 15.552-34.727 34.736 0 19.185 15.548 34.736 34.727 34.736z" fill="#419AFF"/>
  </mask>
  <g mask="url(#a)">
    <path d="M664.75 204.182c1.556 1.303 5.499 26.668 6.692 38.825 1.086 10.783 1.086 23.99 1.086 23.99l-20.728-24.46c.036.036-.289-49.463 12.95-38.355z" fill="#F5F5F0"/>
    <path d="M616.386 288.743h47.641c1.121-27.608 2.858-77.867.724-84.56-1.918-5.935-7.778-10.892-14-13.895-3.472-1.7-7.09-2.786-10.165-3.112-3.11-.325-9.369 1.086-15.373 3.365-8.357 3.185-16.17 7.961-13.927 11.977 6.62 11.76 5.968 60.354 5.1 86.225z" fill="#F5F5F0"/>
    <path d="M645.578 175.344s2.279 15.125 2.171 15.559c-.217.832-4.269-2.714-5.643-1.881-2.026 1.158-10.635 3.69-11.359 1.881-.181-.398 1.953-17.332 1.953-17.332l12.878 1.773z" fill="#DE9E87"/>
    <path d="M647.93 171.364c3.617-3.329 1.302-5.5 4.485-7.634-.795-.362-2.17-.398-2.966-.109.832-1.23 1.085-2.967 2.315-3.618-.904-.145-2.351.036-3.328.687.036-1.194 2.279-2.424 1.881-3.908-.506.652-2.242 1.411-3.4 1.448-.072-.76.76-2.461 2.424-3.51-1.737-.145-2.967-.036-4.305 1.085-.326-1.194.217-2.207.977-3.148a3.63 3.63 0 00-3.907 1.954c-.724-.47-1.049-2.496-1.085-3.835-.832.615-1.737 2.605-1.954 3.546-.036-.977-.542-3.329-.94-4.234-.977 2.497-3.256 1.882-3.437 4.958-.289-1.375-2.894-2.244-3.798-2.75.941 2.062.832 4.088.543 4.378-.217.217-1.881-.724-1.881-2.786-1.194 1.158-2.388 3.509-.941 7.2-.47-.036-1.881-1.266-2.387-2.786-.471.651-1.086 4.306.253 7.779-.326 0-.905-.398-1.339-.832 1.049 5.066 3.654 7.02 4.703 8.141.796.869 2.46.145 3.545.398a77.36 77.36 0 007.597 1.339l6.945-3.763z" fill="#2A2F58"/>
    <path d="M648.726 165.177c.904 1.411.868 6.151.795 7.743-.072 1.845-1.736 9.661-3.798 10.819-1.809.977-6.981 1.302-8.247.687-3.075-1.447-5.861-6.766-6.259-9.986-1.736.108-3.617-8.612-1.049-7.273.76.398 1.122 2.533 1.158 3.293.036.723.76 1.7.832 1.447.651-1.99 1.013-6.187 1.592-6.549 1.085-.652 2.785.253 3.002 1.628.506-.687.868-1.701.036-2.605 1.99-.434 4.269-.326 6.077 2.822.434-.868.254-2.858-.615-3.908 1.701.254 3.111 1.629 3.546 3.184.397-1.049.217-2.424-.579-3.835.868.289 3.038 1.809 3.509 2.533z" fill="#E5B48F"/>
    <path d="M611.43 199.298c-7.271 11.651-13.746 42.443-12.263 48.196 1.23 4.849 16.206 10.674 34.474 9.335 2.605-.181.796-14.003.796-14.003s-15.989-1.266-15.953-5.427c.036-4.161 1.339-7.201 1.339-11.941-.036-4.74-8.393-26.16-8.393-26.16z" fill="#F5F5F0"/>
    <path d="M648.726 212.794c-3.907 1.665-5.535 2.352-9.478 0-3.545-2.099-13.239-15.884-13.963-22.253 3.184-1.194 6.439-2.171 9.224-2.75 2.496-.542 4.884.688 6.331.869 1.845.181 3.653-.796 5.715-.073a34.411 34.411 0 014.196 1.737c.796 4.523 1.881 12.845-2.025 22.47z" fill="#BBD3E6"/>
    <path d="M638.814 191.555s2.46 5.21 3.075 6.332c.615 1.157-2.677 13.17-2.677 14.907 1.338 1.52 6.547 5.102 6.547 5.102s2.569-3.944 2.967-5.102c.289-3.98-5.065-14.473-4.703-16.174.362-1.7 1.953-5.862 1.953-5.862l-2.966-2.098h-1.845l-2.351 2.895z" fill="#486C9A"/>
    <path d="M630.892 184.209c-1.158 0-3.183 5.211-3.002 5.934.289 1.086 7.27 5.392 9.115 5.392.543 0 4.269-6.224 5.245-6.296.977-.073 3.69 5.536 4.703 5.21.651-.217 2.207-3.582 2.062-4.921-.145-1.339-1.194-4.342-1.664-4.414-.507-.109-3.509 3.075-5.101 3.293-1.881.253-10.671-4.198-11.358-4.198z" fill="#A9C9E3"/>
    <path d="M621.957 205.015c.253 1.085.362 1.592.47 1.809.253.47 1.158.434 3.726.108 1.483-.18 3.979-.47 4.269-.072.253.362-1.05 1.918-1.701 2.678-.904 1.049-1.302 1.592-1.23 1.954a.53.53 0 00.218.325c.18.109 1.049.434 3.038 1.158 3.907 1.447 14.253 5.283 14.759 6.115.181.832.687 20.082.832 40.489.072 11.941.036 21.746-.181 29.128h.615c.217-8.72.217-19.648.145-29.345-.145-19.937-.615-39.802-.832-40.453-.253-.796-4.233-2.497-15.157-6.549-1.302-.47-2.424-.905-2.822-1.049.145-.29.688-.905 1.086-1.375 1.121-1.339 2.279-2.714 1.736-3.474-.47-.651-2.17-.507-4.847-.181-1.194.145-2.858.326-3.075.217-.072-.144-.253-.868-.434-1.664-.615-2.642-1.737-7.599-3.871-10.602-.108-.145-.289-.181-.434-.072-.145.108-.181.289-.072.434 2.062 2.931 3.183 7.816 3.762 10.421zM646.736 218.222c-.109 0-.217-.073-.29-.181-.072-.145.001-.326.145-.398 3.979-1.81 8.356-8.757 8.393-9.553-.073-.217-1.086-1.158-1.773-1.809-1.338-1.23-1.664-1.592-1.7-1.881 0-.109.036-.218.108-.29.254-.217.832-.145 2.967.217 1.121.181 2.821.471 3.219.398.326-.687-.036-5.934-1.049-9.046-.072-.181.036-.325.181-.398.181-.036.325.037.398.181.977 2.895 1.628 9.118.868 9.734-.326.253-1.158.181-3.726-.254-.723-.108-1.628-.289-2.134-.325.289.325.832.832 1.266 1.23 1.266 1.158 1.845 1.773 1.953 2.135.29 1.013-4.775 8.503-8.718 10.276-.036-.036-.072-.036-.108-.036z" fill="#A3C2DB"/>
  </g>
  <path d="M623.078 330.969c-8.103-10.385-6.294-25.365 4.088-33.47l58.058-44.107c10.382-8.105 25.358-6.296 33.461 4.089 8.103 10.384 6.294 25.364-4.088 33.469l-58.058 44.108c-10.382 8.141-25.358 6.296-33.461-4.089z" fill="#E3A586"/>
  <path d="M635.92 475.558H521.828a5.328 5.328 0 01-5.318-5.319v-34.483a5.327 5.327 0 015.318-5.319H635.92a5.326 5.326 0 015.317 5.319v34.483c.036 2.93-2.351 5.319-5.317 5.319z" fill="#fff"/>
  <path d="M531.92 447.589h5.969v1.194h-4.522v3.691h4.16v1.194h-4.16v4.993h-1.447v-11.072zM541.362 447.588v11.072h-1.447v-11.072h1.447zM543.858 458.624v-11.036h1.591l3.509 5.608c.796 1.303 1.447 2.461 1.954 3.582h.036c-.145-1.483-.181-2.822-.181-4.559v-4.631h1.338v11.072h-1.447l-3.508-5.609c-.76-1.23-1.52-2.496-2.062-3.69h-.037c.073 1.411.109 2.714.109 4.559v4.74h-1.302v-.036zM554.637 447.733a18.7 18.7 0 013.039-.254c2.062 0 3.509.507 4.486 1.375 1.013.905 1.591 2.171 1.591 3.98 0 1.81-.578 3.293-1.591 4.306-1.049 1.05-2.75 1.592-4.92 1.592-1.049 0-1.881-.036-2.605-.144v-10.855zm1.411 9.805c.362.036.868.073 1.447.073 3.075 0 4.703-1.701 4.703-4.704 0-2.605-1.447-4.27-4.486-4.27-.723 0-1.302.073-1.664.145v8.756zM569.034 447.733a18.7 18.7 0 013.039-.254c2.062 0 3.509.507 4.486 1.375 1.013.905 1.591 2.171 1.591 3.98 0 1.81-.578 3.293-1.591 4.306-1.049 1.05-2.75 1.592-4.92 1.592-1.049 0-1.881-.036-2.605-.144v-10.855zm1.447 9.805c.362.036.869.073 1.447.073 3.075 0 4.703-1.701 4.703-4.704 0-2.605-1.447-4.27-4.486-4.27-.723 0-1.302.073-1.664.145v8.756zM589.437 452.979c0 3.799-2.316 5.826-5.137 5.826-2.93 0-4.956-2.28-4.956-5.609 0-3.51 2.17-5.825 5.101-5.825 3.038 0 4.992 2.316 4.992 5.608zm-8.61.181c0 2.388 1.266 4.487 3.545 4.487s3.545-2.099 3.545-4.595c0-2.208-1.157-4.523-3.509-4.523-2.387.036-3.581 2.207-3.581 4.631zM598.986 458.298c-.506.253-1.591.543-2.93.543-3.111 0-5.462-1.954-5.462-5.609 0-3.473 2.351-5.825 5.788-5.825 1.374 0 2.243.289 2.641.506l-.362 1.158a5.266 5.266 0 00-2.207-.47c-2.604 0-4.304 1.664-4.304 4.559 0 2.714 1.555 4.451 4.232 4.451.868 0 1.772-.181 2.351-.471l.253 1.158zM603.363 448.782h-3.364v-1.23h8.175v1.23h-3.364v9.842h-1.447v-9.842zM618.412 452.979c0 3.799-2.315 5.826-5.137 5.826-2.93 0-4.956-2.28-4.956-5.609 0-3.51 2.171-5.825 5.101-5.825 3.038 0 4.992 2.316 4.992 5.608zm-8.609.181c0 2.388 1.266 4.487 3.545 4.487 2.278 0 3.544-2.099 3.544-4.595 0-2.208-1.157-4.523-3.508-4.523-2.388.036-3.581 2.207-3.581 4.631zM620.256 447.733c.724-.145 1.773-.217 2.75-.217 1.519 0 2.532.289 3.183.904.543.507.868 1.23.868 2.135 0 1.447-.904 2.424-2.062 2.822v.036c.832.29 1.339 1.086 1.592 2.244.362 1.556.615 2.605.868 3.039h-1.483c-.181-.326-.434-1.266-.723-2.641-.326-1.52-.941-2.099-2.243-2.135h-1.339v4.776h-1.411v-10.963zm1.447 5.029h1.447c1.52 0 2.496-.832 2.496-2.099 0-1.411-1.049-2.062-2.532-2.062-.687 0-1.157.036-1.411.109v4.052z" fill="#1B65B9"/>
  <path d="M632.194 40.851c-8.465 0-15.844 4.631-19.751 11.506-4.232-13.243-16.64-22.831-31.326-22.831-.543 0-1.049 0-1.592.036C576.812 12.809 562.306 0 544.798 0c-19.425 0-35.161 15.74-35.161 35.17 0 3.257.434 6.44 1.266 9.444a29.85 29.85 0 00-9.224-1.483c-3.219 0-6.33.542-9.224 1.483-6.367-14.256-20.655-24.17-37.295-24.17-22.573 0-40.84 18.308-40.84 40.85v.073h240.374c-1.013-11.543-10.708-20.516-22.5-20.516zM333.282 214.444c-8.464 0-15.844 4.631-19.75 11.506-4.233-13.243-16.64-22.832-31.327-22.832-.543 0-1.049 0-1.592.036-2.713-16.752-17.218-29.561-34.726-29.561-19.426 0-35.161 15.739-35.161 35.17 0 3.256.434 6.44 1.266 9.444a29.846 29.846 0 00-9.224-1.484c-3.22 0-6.331.543-9.225 1.484-6.366-14.257-20.655-24.171-37.295-24.171-22.572 0-40.84 18.309-40.84 40.851v.073h240.374c-1.012-11.507-10.707-20.516-22.5-20.516zM1090.04 129.753c-8.46 0-15.84 4.632-19.75 11.507-4.23-13.243-16.64-22.832-31.32-22.832-.55 0-1.05 0-1.59.036-2.72-16.753-17.22-29.562-34.73-29.562-19.426 0-35.162 15.74-35.162 35.171 0 3.256.434 6.44 1.266 9.443a29.876 29.876 0 00-9.224-1.483c-3.22 0-6.33.543-9.224 1.483-6.367-14.256-20.656-24.17-37.295-24.17-22.573 0-40.841 18.309-40.841 40.851v.072H1112.54c-1.01-11.542-10.7-20.516-22.5-20.516z" fill="#fff"/>
  <path d="M909.393 260.063H763.251a4.524 4.524 0 01-4.522-4.523v-75.143a4.524 4.524 0 014.522-4.523h146.142a4.524 4.524 0 014.522 4.523v75.143c-.037 2.497-2.062 4.523-4.522 4.523z" fill="#8296A5"/>
  <path d="M758.729 247.363s-13.746 33.614-11.105 30.321c2.641-3.292 43.662-23.808 43.662-23.808l-32.557-6.513z" fill="#8296A5"/>
  <path d="M883.696 205.027h13.493v-8.286h-13.493v8.286zM778.012 205.027h96.729v-8.286h-96.729v8.286zM842.082 222.49h55.093v-8.286h-55.093v8.286zM778.034 222.49h55.092v-8.286h-55.092v8.286zM858.727 239.952h38.453v-8.286h-38.453v8.286zM778.004 239.952h71.768v-8.286h-71.768v8.286z" fill="#fff"/>
  <path d="M519.947 216.015c19.179 0 34.727-15.552 34.727-34.737 0-19.184-15.548-34.736-34.727-34.736-19.179 0-34.727 15.552-34.727 34.736 0 19.185 15.548 34.737 34.727 34.737z" fill="#419AFF"/>
  <mask id="b" maskUnits="userSpaceOnUse" x="485" y="146" width="70" height="71">
    <path d="M519.947 216.015c19.179 0 34.727-15.552 34.727-34.737 0-19.184-15.548-34.736-34.727-34.736-19.179 0-34.727 15.552-34.727 34.736 0 19.185 15.548 34.737 34.727 34.737z" fill="#419AFF"/>
  </mask>
  <g mask="url(#b)">
    <path d="M500.196 242.682c-.977 2.532-1.772 4.559-1.953 5.5-1.556 8.792-.868 24.17.108 33.722h49.739c.579-9.443 0-25.979-1.157-31.045-.471-2.026-1.158-4.487-2.026-7.164 1.953-4.776 3.328-8.684 3.4-9.661.181-2.786-2.279-23.917-6.511-33.687-1.411-3.256-7.741-9.01-14.072-11.94-3.4-2.135-10.02-.652-12.697 1.049-6.656 3.437-10.382 6.802-12.624 12.302-2.243 5.5-6.729 29.924-5.028 34.881.253.941 1.302 3.184 2.821 6.043z" fill="#F5F5F0"/>
    <path d="M532.391 173.608c3.726-2.533-.073-15.849-6.005-20.552-5.933-4.668-11.033-2.027-12.95-.833-3.075 1.882-14.976 14.039-6.692 22 8.283 7.924 25.647-.615 25.647-.615z" fill="#2A2F58"/>
    <path d="M521.032 188.515c-2.062.326-5.534 1.665-7.488 4.161-1.917 2.461 7.705 19.684 8.501 19.684 1.664 0 8.573-17.983 7.741-20.118-.506-1.447-6.439-4.125-8.754-3.727z" fill="#486C9A"/>
    <path d="M517.487 177.262c-.398 5.97-1.555 12.23-2.568 14.112-1.411 2.641 6.258 5.174 9.478 4.306 3.219-.869 4.159-2.57 4.268-3.691.109-1.122-3.762-4.885-4.449-12.881-.543-6.333-6.584-4.27-6.729-1.846z" fill="#DE9E87"/>
    <path d="M530.003 163.549c.905 8.177-2.315 17.042-4.992 17.512-3.581.652-9.984-4.016-10.201-11.614-2.532-.181-3.4-3.004-2.677-4.234 1.303-2.207 3.039.181 3.039.181s.832-4.125 7.705-7.526c2.279-.326 6.909 3.691 7.126 5.681z" fill="#E5B48F"/>
    <path d="M512.35 224.337c-.036 0-.108 0-.144-.037-6.982-3.582-6.294-8.43-2.93-15.052.072-.145.253-.217.434-.145.144.073.217.254.144.435-3.834 7.526-3.147 11.253 2.641 14.22.145.072.217.253.145.434-.036.108-.145.145-.29.145zM532.571 223.939c-.108 0-.217-.037-.253-.145a.345.345 0 01.109-.434c2.821-1.701 4.449-3.836 4.847-6.369.434-2.749-.723-5.897-3.183-8.684-.109-.144-.109-.325.036-.434.145-.108.325-.108.434.036 2.568 2.895 3.762 6.224 3.328 9.191-.398 2.714-2.134 4.993-5.137 6.802-.072.037-.108.037-.181.037zM522.515 247.132a.347.347 0 01-.325-.253c0-.072-1.339-7.526-1.483-14.908-.109-4.342.289-9.48.578-13.243.181-2.46.326-4.595.217-4.957-.217-.543-3.472-2.714-9.73-6.477-.507-.289-.869-.542-1.086-.651a.638.638 0 01-.325-.543c.036-.615.977-1.158 2.532-1.99.796-.398 1.953-1.049 2.062-1.302-.109-.688-4.305-4.704-6.294-6.622-.434-.398-.832-.796-1.158-1.122-.108-.108-.145-.325 0-.434.109-.108.326-.145.434 0 .326.326.724.688 1.158 1.122 4.087 3.944 6.33 6.26 6.475 7.019.108.579-.76 1.05-2.388 1.918-.795.398-2.061 1.086-2.206 1.411l.036.036c.181.109.579.326 1.049.652 7.018 4.197 9.803 6.115 10.02 6.838.145.471.036 2.027-.217 5.175-.289 3.727-.651 8.865-.579 13.17.145 7.346 1.447 14.763 1.483 14.836.037.18-.072.325-.253.361.036-.036 0-.036 0-.036zM523.6 212.939a.562.562 0 01-.289-.072c-.145-.073-.217-.29-.108-.435.072-.144.289-.217.434-.108.325 0 1.953-.869 4.521-2.931 2.822-2.243 4.16-3.763 4.196-4.089-.144-.253-1.7-1.013-2.532-1.411-1.7-.796-2.134-1.049-1.989-1.447.181-.507 3.038-4.306 7.632-7.852.145-.109.326-.072.434.072.109.145.073.326-.072.435-4.268 3.292-6.873 6.621-7.343 7.417.289.181 1.013.543 1.591.832 2.026.977 2.894 1.448 2.894 1.99 0 1.194-5.534 5.681-7.958 7.092-.759.362-1.157.507-1.411.507z" fill="#A3C2DB"/>
  </g>
  <path d="M1181.13 669.898c-10.74-6.947-27.53-11.651-41.82-9.227-16.2 2.895-27.45 14.582-29.23 19.395-.68-.073-24.52 5.97-50.82 14.943 5.93-6.151 16.71-20.986 22.43-30.104 10.6-16.391 12.95-16.572 22.64-26.161-36.97-13.243-63.19 21.023-52.34 53.226.33.941 1.27 3.365 2.28 4.776-4.67 1.556-22.1 7.888-40.41 15.668h7.56c1.27-.507 2.54-1.05 3.8-1.556-.03.434-.07.977-.04 1.556h9.74c-2.46-1.231-4.63-2.316-6.26-2.931 15.15-6.043 30.49-11.543 45.9-16.391.22 3.473 2.72 11.397 8.07 19.322h33.79c-5.25-6.586-11.62-12.737-20.59-17.007-5.03-2.352-10.42-3.835-14.47-4.45a617.093 617.093 0 0128.98-8.033c.25-.072.47-.181.61-.289 1.85 1.411 6.04 3.292 10.2 4.559 14.44 4.233 25.07 2.569 37.08-2.678 7.96-3.654 18.31-10.638 22.9-14.618zM986.696 664.471c-9.586 19.575-3.255 37.847 3.582 47.906h12.442c7.81-25.943 6.33-33.505 4.67-69.797-5.18 2.352-15.051 10.167-20.694 21.891zM899.337 674.783c9.911 19.539 15.192 30.213 19.244 37.594h28.975c-7.596-22.867-29.843-37.413-48.219-37.594z" fill="#E1A06F"/>
  <path d="M196.173 369.324l20.583 1.375 1.266-6.585-6.403-3.872-15.446 9.082z" fill="#AFAFB3"/>
  <path d="M198.307 342.73l51.62 2.931-44.241 14.907-7.379-17.838zM214.441 383.617l35.486-37.595-42.396 19.576 6.91 18.019z" fill="#F2F2F2"/>
  <path d="M205.686 360.568l-9.513 8.756s10.382-3.22 11.394-3.726c1.013-.507 42.36-19.576 42.36-19.576l-44.241 14.546z" fill="#DDDEE0"/>
  <path d="M280.043 176.624h146.142a4.523 4.523 0 004.521-4.523V96.994a4.523 4.523 0 00-4.521-4.523H280.043a4.524 4.524 0 00-4.522 4.523v75.143c0 2.497 2.026 4.487 4.522 4.487z" fill="#8296A5"/>
  <path d="M430.706 163.924s13.746 33.614 11.106 30.322c-2.641-3.293-43.662-23.809-43.662-23.809l32.556-6.513z" fill="#8296A5"/>
  <path d="M305.726 113.29h-13.493v8.286h13.493v-8.286zM411.39 113.29h-96.729v8.286h96.729v-8.286zM347.326 130.767h-55.093v8.286h55.093v-8.286zM411.353 130.767h-55.092v8.286h55.092v-8.286zM330.686 148.243h-38.453v8.286h38.453v-8.286zM411.39 148.243h-71.769v8.286h71.769v-8.286z" fill="#fff"/>
  <path d="M1026.09 557.404l-28.65-6.006.796-9.48 10.204-2.859 17.65 18.345z" fill="#AFAFB3"/>
  <path d="M1033.36 520.244l-71.623-15.74 54.733 37.269 16.89-21.529zM995.667 569.924l-34.075-64.949 50.388 42.95-16.313 21.999z" fill="#F2F2F2"/>
  <path d="M1016.47 541.774l9.62 15.631s-12.95-8.395-14.11-9.48c-1.16-1.086-50.388-42.986-50.388-42.986l54.878 36.835z" fill="#DDDEE0"/>
</svg>