<svg viewBox="0 0 300 437" fill="none" xmlns="http://www.w3.org/2000/svg">
  <g opacity=".13" fill="#8296A5">
    <path d="M163.346 91.973c-16.468 0-33.828 9.576-46.519 16.577-3.027 1.669-9.084 5.716-11.187 5.715-2.088 0-8.121-4.035-11.146-5.707-12.65-6.999-29.973-16.585-46.56-16.585-20.955 0-40.192 8.617-54.166 24.264-13.244 14.828-20.54 34.331-20.54 54.92 0 28.796 10.298 69.657 27.55 109.297 7.685 17.658 15.877 32.932 23.692 44.179 9.736 14.01 18.357 20.821 26.356 20.821 3.842 0 10.853-1.56 14.626-12.005 3.142-8.689 5.956-18.618 8.95-29.182 6.799-23.999 17.076-60.27 30.741-60.27h.995c5.834 0 11.29 5.486 16.677 16.77 5.731 12.001 10.134 28.136 14.396 43.744 2.854 10.454 5.55 20.33 8.603 28.902 3.706 10.4 10.656 11.956 14.473 11.958 7.971 0 16.587-6.912 26.342-21.131 7.796-11.365 16.004-26.787 23.733-44.601 17.337-39.948 27.686-80.5 27.686-108.48 0-20.589-7.294-40.094-20.538-54.92-13.972-15.649-33.208-24.266-54.164-24.266zm32.255 181.256c-7.226 16.651-15.125 31.531-22.241 41.903-6.334 9.233-8.069 10.212-11.359 13.159-.431.385-.844.216-1.023-.282-2.858-7.981-5.467-17.58-8.244-27.75-4.442-16.283-9.039-33.12-15.393-46.428-8.333-17.448-18.539-25.931-31.203-25.931h-.995c-12.24 0-22.227 8.415-30.534 25.729-6.326 13.186-11.098 30.026-15.724 46.353-2.891 10.205-5.621 19.841-8.566 27.986-.13.359-.338 1.143-1.15.902-1.994-.587-5.038-4.156-11.483-13.429-7.12-10.244-14.985-24.951-22.151-41.412-16.168-37.156-26.212-76.576-26.212-102.875 0-31.012 21.923-63.09 58.61-63.09 9.481 0 22.05 4.388 33.62 11.739 1.666 1.059 4.095 2.926 6.443 4.732a343.23 343.23 0 002.788 2.129c2.874 2.152 6.756 4.965 11.324 7.652 2.419 1.431 4.621 2.699 7.106 3.752 9.953 4.225 20.506 6.368 31.367 6.368 11.182 0 34.22-4.738 34.22-7.315 0-1.756-27.19 1.537-46.879-6.014-3.122-1.197-9.493-3.28-9.493-4.098 0-.585.578-1.116 1.149-1.459 1.405-.84 2.994-1.791 5.043-2.921 11.139-6.147 26.396-14.565 38.723-14.565 36.686 0 58.61 32.078 58.61 63.09.002 25.498-10.097 64.61-26.353 102.075z"/>
    <path d="M298.438 102.54c-.535-12.639-9.656-26.035-21.222-31.158L124.068 3.52C118.944 1.25 112.34 0 105.472 0S92 1.25 86.876 3.52L-66.272 71.382c-11.59 5.135-20.671 18.562-21.12 31.232-.227 6.385-5.218 156.96 22.971 206.292 28.08 49.139 146.048 119.763 151.056 122.745 5.197 3.097 11.91 4.8 18.903 4.8 6.937 0 13.602-1.68 18.765-4.731 5.056-2.984 124.102-73.66 152.193-122.817 28.207-49.361 22.213-199.974 21.942-206.363zm-40.001 196.046C233.068 342.98 114.918 413.109 113.73 413.814c-1.953 1.15-5.012 1.84-8.191 1.84-3.205 0-6.295-.699-8.26-1.871-1.179-.703-118.26-70.785-143.64-115.197-20.969-36.698-21.723-153.375-20.244-195.236.166-4.652 4.504-11.067 8.76-12.953l153.149-67.86c2.453-1.088 6.256-1.737 10.168-1.737 3.914 0 7.715.65 10.168 1.737l153.149 67.86c4.278 1.896 8.67 8.343 8.866 13.018 1.764 41.847 1.747 158.48-19.218 195.171z"/>
  </g>
</svg>