<svg width="194" height="219" viewBox="0 0 194 219" fill="none" xmlns="http://www.w3.org/2000/svg">
<g opacity="0.13">
<path d="M125.608 45.9863C117.374 45.9863 108.694 50.774 102.348 54.2747C100.835 55.1093 97.8067 57.1327 96.7553 57.1322C95.7111 57.1322 92.6945 55.1145 91.1823 54.2789C84.8575 50.7792 76.1957 45.9863 67.9026 45.9863C57.425 45.9863 47.8064 50.2946 40.8196 58.1181C34.1973 65.5324 30.5494 75.2836 30.5494 85.5782C30.5494 99.9761 35.6986 120.406 44.3239 140.226C48.1668 149.056 52.2629 156.692 56.1702 162.316C61.0385 169.321 65.3489 172.726 69.3483 172.726C71.2692 172.726 74.7745 171.946 76.6611 166.724C78.2321 162.379 79.6392 157.415 81.1358 152.133C84.5356 140.133 89.6743 121.998 96.5067 121.998H97.0044C99.9211 121.998 102.649 124.741 105.343 130.383C108.208 136.383 110.41 144.451 112.541 152.255C113.968 157.482 115.315 162.42 116.842 166.706C118.695 171.906 122.17 172.684 124.079 172.685C128.064 172.685 132.372 169.229 137.249 162.119C141.147 156.437 145.251 148.726 149.116 139.819C157.784 119.845 162.959 99.569 162.959 85.5792C162.959 75.2846 159.312 65.5324 152.69 58.1192C145.704 50.2946 136.086 45.9863 125.608 45.9863ZM141.735 136.614C138.122 144.939 134.173 152.379 130.615 157.565C127.448 162.182 126.58 162.671 124.936 164.145C124.72 164.338 124.513 164.253 124.424 164.004C122.995 160.013 121.691 155.214 120.302 150.129C118.081 141.988 115.782 133.569 112.606 126.915C108.439 118.191 103.336 113.949 97.0044 113.949H96.5067C90.3862 113.949 85.3931 118.157 81.2398 126.814C78.0766 133.407 75.6908 141.827 73.3778 149.991C71.9322 155.093 70.5672 159.911 69.0945 163.983C69.0295 164.163 68.926 164.555 68.5194 164.434C67.5225 164.141 66.001 162.356 62.7785 157.72C59.2185 152.598 55.2857 145.244 51.7028 137.014C43.6188 118.436 38.5971 98.726 38.5971 85.5766C38.5971 70.0705 49.5583 54.0319 67.9021 54.0319C72.6425 54.0319 78.9268 56.2258 84.7119 59.9012C85.5444 60.4306 86.7592 61.364 87.9333 62.2673C88.4128 62.6365 88.8855 62.9989 89.327 63.3317C90.7643 64.4076 92.7049 65.8142 94.9893 67.1579C96.1989 67.8729 97.2997 68.5074 98.542 69.0336C103.518 71.1464 108.795 72.2176 114.225 72.2176C119.817 72.2176 131.335 69.8484 131.335 68.5604C131.335 67.6821 117.741 69.3284 107.896 65.5532C106.335 64.9547 103.15 63.9131 103.15 63.5044C103.15 63.2116 103.438 62.9464 103.724 62.7748C104.426 62.3546 105.221 61.8793 106.245 61.3141C111.815 58.2408 119.444 54.0319 125.607 54.0319C143.95 54.0319 154.912 70.0705 154.912 85.5766C154.913 98.3256 149.863 117.882 141.735 136.614Z" fill="#8296A5"/>
<path d="M193.154 51.2697C192.886 44.9505 188.326 38.2523 182.543 35.6907L105.969 1.76023C103.407 0.625049 100.105 0 96.6711 0C93.2369 0 89.9354 0.625049 87.3733 1.76023L10.7996 35.6907C5.00407 38.2585 0.463884 44.9718 0.23976 51.3066C0.125879 54.4994 -2.36964 129.787 11.7252 154.452C25.7654 179.022 84.7488 214.334 87.2527 215.825C89.8511 217.373 93.2078 218.224 96.7043 218.224C100.173 218.224 103.505 217.385 106.087 215.859C108.615 214.367 168.137 179.029 182.183 154.451C196.286 129.771 193.289 54.4641 193.154 51.2697ZM173.153 149.292C160.469 171.489 101.394 206.554 100.8 206.906C99.8238 207.481 98.294 207.826 96.7048 207.826C95.1022 207.826 93.5572 207.477 92.5744 206.891C91.9853 206.539 33.4449 171.498 20.7551 149.292C10.2707 130.944 9.89371 72.6051 10.6332 51.6747C10.7158 49.3487 12.8848 46.1413 15.0127 45.1986L91.5869 11.2686C92.8136 10.7246 94.7153 10.4002 96.6711 10.4002C98.6284 10.4002 100.528 10.7246 101.755 11.2686L178.329 45.1986C180.468 46.1465 182.664 49.3701 182.762 51.7075C183.644 72.6305 183.636 130.947 173.153 149.292Z" fill="#8296A5"/>
</g>
</svg>
